{"glyphs":{"0":{"ha":797,"x_min":75,"x_max":720,"o":"m 572 501 q 408 817 572 817 q 253 714 302 817 q 203 440 203 611 l 203 410 q 302 111 203 172 q 367 92 332 92 l 385 92 q 460 117 423 92 q 519 185 496 141 q 572 450 572 287 l 572 501 m 402 922 l 416 922 q 650 797 568 922 q 720 496 720 689 l 720 454 q 697 266 719 357 q 532 23 654 85 q 385 -14 460 -14 l 371 -14 q 154 90 233 -14 q 75 424 75 194 l 75 438 q 266 887 75 785 q 402 922 332 922 z "},"1":{"ha":559,"x_min":106,"x_max":427,"o":"m 162 708 q 134 711 162 708 q 106 752 106 715 q 168 831 106 789 q 339 909 283 909 q 391 859 381 909 l 391 546 l 387 425 q 389 285 387 302 q 409 222 391 269 q 427 120 427 176 q 385 26 427 64 q 307 2 358 2 q 223 32 255 2 q 191 116 191 62 q 219 223 191 140 q 247 380 247 307 l 248 406 l 249 445 q 249 510 249 477 q 227 684 249 651 q 162 708 217 701 z "},"2":{"ha":745,"x_min":87,"x_max":655,"o":"m 568 125 q 655 66 655 125 q 597 16 655 25 q 298 6 540 6 l 257 5 l 175 5 q 107 17 128 5 q 87 53 87 28 l 87 71 q 161 227 87 134 q 311 384 203 280 q 458 546 420 488 q 497 667 497 604 q 460 766 497 731 q 363 801 423 801 q 231 752 303 801 q 136 704 158 704 q 103 759 103 704 q 125 808 103 777 q 191 868 148 840 q 384 921 274 921 q 564 859 494 921 q 618 782 599 829 q 638 682 638 734 q 566 476 638 572 q 400 306 526 422 q 275 148 275 189 q 434 123 275 123 l 513 124 l 532 125 l 568 125 z "},"3":{"ha":741,"x_min":93,"x_max":657,"o":"m 267 491 q 325 542 267 513 q 422 615 383 570 q 460 707 460 661 q 433 778 460 753 q 337 803 406 803 q 248 785 315 803 q 160 768 182 768 q 127 809 127 768 q 212 886 127 850 q 379 923 296 923 l 401 923 q 535 890 491 923 q 597 752 597 844 q 543 570 597 660 q 515 519 515 524 q 558 471 515 504 q 629 388 601 437 q 657 277 657 338 l 657 255 q 562 62 657 141 q 328 -18 467 -18 l 307 -18 q 163 20 233 -18 q 93 99 93 58 l 93 113 q 154 150 93 150 q 236 132 174 150 q 338 114 298 114 q 459 153 411 114 q 507 260 507 192 q 459 370 507 328 q 394 409 427 399 q 333 426 362 419 q 292 439 304 432 q 267 491 267 456 z "},"4":{"ha":781,"x_min":62,"x_max":710,"o":"m 217 331 l 251 331 l 256 332 l 405 335 q 416 336 410 336 q 455 390 455 336 l 457 408 l 459 444 l 459 457 l 464 543 q 464 555 464 549 l 472 724 l 472 730 q 470 747 472 747 q 426 689 469 747 l 406 659 q 380 623 398 647 q 191 339 191 364 l 191 336 q 217 331 191 331 m 710 290 q 651 220 710 239 q 608 190 616 209 q 601 114 604 181 q 585 17 597 47 q 529 -13 572 -13 q 475 11 486 -13 q 458 105 463 34 q 429 196 452 176 q 229 228 390 228 l 215 229 q 159 229 201 229 q 90 241 118 229 q 62 295 62 254 q 109 408 62 336 q 389 804 206 556 q 470 898 442 878 q 534 919 498 919 l 547 919 q 600 885 589 919 q 605 760 605 867 l 604 746 l 604 717 l 604 702 q 603 658 603 686 l 603 586 l 604 557 l 604 528 l 606 459 q 627 365 606 396 q 679 334 631 358 q 710 290 710 319 z "},"5":{"ha":746,"x_min":85,"x_max":659,"o":"m 583 920 q 633 888 633 920 q 593 825 633 840 q 435 805 553 809 q 290 781 317 802 q 243 622 243 746 q 288 576 243 576 l 327 577 q 629 431 553 577 q 659 306 659 372 l 659 283 q 573 70 659 152 q 323 -19 480 -19 q 181 9 243 -19 q 85 110 85 53 q 101 143 85 130 q 135 155 117 155 q 217 131 153 155 q 338 107 282 107 q 470 157 424 107 q 515 291 515 206 q 446 422 515 376 q 236 459 390 459 q 143 488 168 459 q 118 589 118 516 q 159 874 118 811 q 217 909 176 901 q 366 917 259 917 l 475 919 l 519 920 l 540 920 l 583 920 z "},"6":{"ha":763,"x_min":74,"x_max":688,"o":"m 376 474 q 260 418 308 474 q 225 292 225 376 l 225 286 q 266 148 225 201 q 371 94 307 94 l 389 94 q 509 149 460 94 q 559 284 559 203 l 559 317 q 518 431 559 387 q 412 475 478 475 l 394 475 q 376 474 382 474 m 688 292 l 688 275 q 663 162 688 220 q 499 9 616 52 q 381 -12 442 -12 l 363 -12 q 239 16 294 -12 q 74 360 74 100 q 74 362 74 361 l 74 380 l 75 397 q 101 607 75 507 q 313 883 153 803 q 451 918 383 918 q 551 900 518 918 q 585 852 585 881 q 556 806 585 823 q 457 779 541 796 q 322 719 374 762 q 243 578 243 654 q 281 536 243 536 q 342 545 287 536 q 443 553 398 553 q 539 533 487 553 q 627 473 592 513 q 688 292 688 404 z "},"7":{"ha":704,"x_min":71,"x_max":633,"o":"m 71 853 q 115 903 71 892 q 363 918 179 918 l 459 918 q 602 900 557 918 q 633 842 633 888 q 333 28 633 753 q 275 -20 313 -20 q 220 -8 236 -20 q 203 33 203 3 q 314 394 203 85 q 405 597 346 484 q 465 744 465 710 q 427 789 465 779 q 298 800 390 800 l 138 794 q 71 853 71 794 z "},"8":{"ha":763,"x_min":66,"x_max":673,"o":"m 527 713 l 527 728 q 491 813 527 777 q 392 850 454 850 l 377 850 q 275 812 316 850 q 233 721 233 775 l 233 706 q 275 604 233 650 q 380 557 317 557 l 385 557 q 481 603 436 557 q 527 713 527 648 m 351 92 l 375 92 q 499 140 456 92 q 543 262 543 188 l 543 268 q 490 391 543 339 q 370 444 438 444 l 358 444 q 244 390 293 444 q 195 261 195 336 l 195 249 q 237 138 195 184 q 351 92 279 92 m 549 509 q 585 469 549 505 q 673 272 673 378 l 673 242 q 652 145 673 193 q 499 8 610 50 q 368 -16 437 -16 l 352 -16 q 145 55 224 -16 q 66 237 66 125 l 66 253 q 159 456 66 363 q 199 496 199 496 q 170 540 198 504 q 106 718 106 620 q 183 883 106 816 q 385 949 260 949 l 401 949 q 584 887 516 949 q 652 733 652 825 q 583 555 652 642 q 549 509 549 514 z "},"9":{"ha":761,"x_min":75,"x_max":681,"o":"m 390 827 l 366 827 q 245 768 291 827 q 200 623 200 709 l 200 616 q 243 489 200 532 q 352 446 286 446 l 358 446 l 364 447 q 493 491 444 447 q 541 618 541 536 l 541 636 q 539 667 539 654 q 494 777 539 728 q 390 827 448 827 m 483 376 q 419 367 465 376 q 324 359 373 359 q 223 380 275 359 q 141 434 171 402 q 75 613 75 505 l 75 630 q 158 846 75 760 q 385 932 241 932 l 402 932 q 522 903 465 932 q 663 726 631 850 q 681 555 681 657 l 681 537 q 450 36 681 156 q 289 -7 366 -7 l 275 -7 q 199 13 224 -7 q 173 60 173 33 q 252 121 173 104 q 278 126 254 122 q 501 276 441 156 q 517 342 517 308 q 483 376 517 376 z "},"\u0000":{"ha":781,"x_min":36,"x_max":741,"o":"m 552 44 q 626 51 626 44 q 458 310 626 65 q 421 366 452 318 q 387 414 390 414 l 354 363 l 351 357 l 325 318 q 317 307 322 313 q 150 47 150 63 q 162 47 150 47 l 169 46 l 175 45 l 222 44 l 552 44 m 102 492 l 102 242 q 105 109 102 109 q 180 218 109 109 l 221 279 q 245 315 236 302 q 268 350 254 328 q 315 418 283 372 q 347 467 347 463 l 347 474 q 257 610 347 479 q 163 749 168 741 l 104 835 q 102 492 102 835 m 673 431 l 673 511 q 670 836 673 836 q 633 785 667 836 q 514 611 600 734 q 429 477 429 488 q 480 391 429 465 q 599 214 532 317 q 670 112 666 112 q 673 431 673 112 m 459 903 l 438 903 l 431 902 l 390 902 q 149 896 149 902 q 184 839 149 890 q 238 759 219 788 q 271 709 256 730 q 336 611 286 688 q 390 533 387 533 q 433 594 393 533 q 478 664 472 654 q 494 687 484 673 l 577 813 q 631 897 631 890 q 459 903 631 903 m 36 27 l 36 163 l 37 180 l 37 486 q 38 958 37 955 q 94 970 43 970 l 667 970 q 737 959 734 970 q 740 686 740 948 l 740 399 l 741 331 l 741 9 q 719 -17 741 -15 q 532 -20 698 -20 l 227 -20 q 43 -16 50 -20 q 36 27 36 -12 z "}," ":{"ha":401,"x_min":0,"x_max":0,"o":""},"!":{"ha":395,"x_min":111,"x_max":279,"o":"m 250 349 q 195 271 250 271 l 180 271 q 140 332 140 271 l 139 349 q 139 365 139 357 l 138 406 l 138 463 l 137 496 l 137 711 q 144 934 137 904 q 210 975 155 975 l 233 975 q 269 959 258 975 q 279 897 279 943 l 279 890 l 279 882 l 277 826 l 275 793 q 274 769 274 777 l 273 752 q 272 736 272 743 l 271 720 q 270 703 270 711 l 268 670 l 267 653 q 265 628 265 636 l 264 612 q 263 595 263 604 l 262 578 q 261 562 261 570 l 260 545 q 259 529 259 537 l 257 496 l 256 479 q 252 406 252 431 l 250 390 q 250 349 250 382 m 111 68 l 111 79 l 111 82 l 113 102 q 114 107 114 105 q 133 145 114 130 q 192 161 151 161 l 200 161 q 257 141 244 161 q 271 87 271 121 l 271 76 q 253 15 271 36 q 190 -6 235 -6 l 181 -6 l 178 -5 l 173 -5 l 162 -4 q 111 68 111 -4 z "},"\"":{"ha":507,"x_min":88,"x_max":426,"o":"m 144 1001 l 161 1001 q 210 969 210 1001 l 210 940 l 210 936 l 208 903 l 205 878 l 203 857 l 201 840 l 200 831 l 198 806 q 194 771 195 787 q 191 749 192 755 q 190 735 191 743 q 189 722 189 726 q 138 673 189 673 l 130 673 q 96 707 96 673 l 94 724 q 94 732 94 728 l 92 749 l 92 758 l 92 766 l 92 775 l 91 783 l 91 792 l 90 800 l 90 825 l 90 834 l 90 855 l 89 860 l 89 881 l 88 897 l 88 956 q 144 1001 88 1001 m 393 999 q 426 969 426 999 l 426 948 l 425 944 q 425 936 425 940 l 420 869 q 418 857 418 861 l 416 840 l 415 823 q 411 797 412 807 q 410 779 410 786 q 408 767 409 772 q 407 752 408 761 q 405 736 406 744 q 404 724 404 728 q 356 675 404 675 l 345 675 q 311 700 318 675 q 304 785 304 724 l 304 852 l 304 865 q 304 878 304 871 l 303 895 l 303 953 q 345 998 303 998 l 364 1000 l 380 1000 q 393 999 389 999 z "},"#":{"ha":859,"x_min":85,"x_max":774,"o":"m 337 369 l 344 369 l 347 370 l 407 372 q 484 382 475 372 q 511 493 511 415 l 523 547 l 524 551 l 524 554 l 524 561 q 515 569 524 569 l 496 569 l 492 568 l 471 568 l 468 568 l 461 568 l 454 567 l 446 567 q 370 559 383 567 q 347 490 347 547 l 339 448 l 328 399 l 326 387 l 326 377 q 337 369 326 369 m 743 663 q 774 614 774 647 q 730 571 774 582 q 643 541 650 551 q 619 424 619 506 q 680 379 619 390 q 741 334 741 369 q 717 294 741 309 q 663 279 709 290 q 598 247 618 269 q 560 151 578 226 q 534 65 541 77 q 487 41 519 41 q 446 81 446 41 q 454 162 446 104 q 463 231 463 220 q 420 273 463 273 q 326 258 341 273 q 291 172 310 243 q 255 74 271 101 q 201 46 239 46 q 163 90 163 46 l 168 189 q 141 259 168 241 q 85 323 85 296 q 122 365 85 351 q 205 398 203 395 q 231 511 231 429 q 213 552 231 541 q 160 564 209 555 q 111 599 111 572 q 131 643 111 626 q 193 663 136 647 q 268 706 250 680 q 296 789 275 716 q 319 868 317 863 q 363 894 333 894 q 408 833 408 894 l 406 812 l 400 768 q 393 704 393 708 q 437 667 393 667 q 536 686 517 667 q 562 758 547 696 q 589 846 577 819 q 637 893 608 893 q 688 844 688 893 l 681 741 q 688 697 681 708 q 743 663 695 686 z "},"$":{"ha":760,"x_min":100,"x_max":677,"o":"m 343 833 l 330 833 q 260 803 296 833 q 224 733 224 772 q 222 715 222 720 l 222 693 q 257 613 222 655 q 336 572 293 572 l 344 572 q 351 585 351 572 l 353 604 l 353 642 l 354 649 l 354 688 l 355 706 l 355 716 l 356 720 l 356 737 l 357 747 l 357 785 l 357 791 q 343 833 357 833 m 435 119 l 447 119 q 538 172 496 119 q 565 250 565 206 l 565 262 q 532 363 565 321 q 442 425 484 425 q 418 341 418 425 l 418 329 l 419 325 l 419 309 l 423 248 q 435 119 423 119 m 481 793 q 433 654 434 793 q 446 554 433 572 q 529 495 458 536 q 638 407 600 454 q 677 287 677 360 l 677 266 q 530 45 677 118 q 429 -7 432 -4 q 408 -66 426 -10 q 371 -97 397 -97 q 329 -59 344 -97 q 300 -10 314 -21 q 225 32 287 1 q 132 95 164 62 q 100 157 100 127 q 148 209 100 209 q 215 179 165 209 q 294 150 264 150 q 336 303 336 150 q 317 399 336 372 q 233 474 298 427 q 142 571 169 522 q 116 694 116 620 q 163 822 116 768 q 281 907 211 876 q 326 932 316 923 q 357 981 336 941 q 399 1021 377 1021 q 593 870 416 1021 q 634 802 634 836 q 592 756 634 756 q 536 775 570 756 q 481 793 502 793 z "},"%":{"ha":1086,"x_min":60,"x_max":994,"o":"m 231 571 l 250 571 q 308 604 282 571 q 334 682 334 637 q 335 694 335 690 l 336 712 l 336 743 q 314 833 336 800 q 256 866 292 866 l 248 866 q 180 823 203 866 q 156 720 156 781 l 156 698 q 177 609 156 646 q 231 571 198 571 m 694 225 l 696 204 q 715 139 696 168 q 760 110 735 110 l 768 109 l 776 109 l 780 109 q 850 152 821 109 q 878 269 878 195 l 878 286 l 878 291 l 878 300 q 876 312 876 308 q 853 382 876 352 q 800 412 829 412 l 792 412 q 721 371 748 412 q 694 261 694 330 l 694 230 l 694 225 m 459 748 l 459 710 q 398 537 459 603 q 250 471 336 471 l 227 471 q 107 526 155 471 q 60 677 60 580 l 60 701 q 119 879 60 810 q 277 947 178 947 l 285 947 q 410 893 360 947 q 459 748 459 840 m 774 943 l 785 943 q 827 924 827 943 q 365 98 827 859 q 275 12 313 12 l 264 12 q 222 31 222 12 q 648 798 222 73 q 774 943 732 943 m 793 485 l 823 485 q 895 465 859 484 q 994 256 994 413 l 994 248 l 994 241 q 947 84 994 138 q 797 14 886 14 l 781 14 q 650 70 699 14 q 602 218 602 126 l 600 232 l 600 262 q 657 423 600 361 q 793 485 715 485 z "},"&":{"ha":899,"x_min":96,"x_max":807,"o":"m 312 759 l 312 731 q 360 612 312 692 q 391 585 376 585 q 474 657 429 585 q 500 747 500 699 l 500 759 q 477 827 500 798 q 421 857 454 857 l 407 857 q 339 821 367 857 q 312 759 312 786 m 220 287 l 220 266 q 262 153 220 199 q 361 106 303 106 l 382 106 q 497 146 441 106 q 526 180 526 166 l 526 184 q 491 232 526 186 q 400 360 456 279 q 337 441 345 441 q 253 364 311 441 q 220 287 220 321 m 361 -11 q 172 57 248 -11 q 96 231 96 125 q 189 449 96 336 q 238 525 238 508 q 215 600 238 541 q 192 706 192 658 q 256 856 192 798 q 405 913 321 913 q 544 863 489 913 q 600 751 600 812 q 578 643 600 690 q 516 543 557 595 q 475 460 475 491 q 530 370 475 429 q 609 311 584 311 q 673 372 633 311 q 744 433 713 433 q 785 395 785 433 q 760 308 785 371 q 734 207 734 245 q 771 119 734 168 q 807 54 807 71 q 766 24 807 24 q 700 40 739 24 q 646 56 661 56 q 587 39 631 56 l 555 26 q 380 -11 458 -11 l 361 -11 z "},"'":{"ha":308,"x_min":102,"x_max":227,"o":"m 155 989 l 180 989 q 227 954 227 989 l 227 941 l 226 937 q 226 924 226 930 l 220 857 l 220 853 l 219 844 l 217 823 q 213 794 214 807 q 211 773 212 782 q 208 752 210 764 q 206 720 206 740 q 194 681 206 699 q 150 662 181 662 l 146 662 q 110 683 116 662 q 104 770 104 705 l 104 844 l 104 852 l 104 865 l 103 873 q 103 890 103 882 l 102 907 l 102 937 q 113 977 102 965 q 155 989 123 989 z "},"(":{"ha":475,"x_min":97,"x_max":416,"o":"m 267 966 q 298 1001 267 966 q 372 1036 328 1036 q 416 1008 416 1036 l 416 998 q 357 901 416 988 q 275 743 299 813 q 226 363 226 594 q 330 -22 226 132 q 395 -139 395 -119 q 353 -172 395 -172 l 340 -172 q 254 -111 307 -171 q 120 174 153 5 q 97 401 97 292 l 98 416 q 169 805 98 629 q 267 966 205 896 z "},")":{"ha":474,"x_min":68,"x_max":385,"o":"m 385 429 q 363 224 385 331 q 305 35 342 117 q 211 -111 269 -47 q 111 -174 153 -174 q 68 -144 68 -174 l 68 -134 q 126 -41 68 -127 q 205 107 184 45 q 256 433 256 258 q 224 722 256 609 q 122 928 193 834 q 87 994 87 975 q 129 1035 87 1035 q 225 975 171 1035 q 364 671 326 863 q 385 487 385 566 l 385 429 z "},"*":{"ha":633,"x_min":89,"x_max":512,"o":"m 89 765 q 105 800 89 783 q 140 817 121 817 q 202 800 159 817 q 251 783 245 783 q 255 810 256 783 q 254 850 254 837 q 292 935 254 935 l 302 935 q 366 863 356 935 l 367 846 q 370 825 368 827 q 406 815 374 815 l 435 823 q 465 827 450 827 q 512 796 512 827 q 501 737 512 764 l 486 698 l 475 639 q 452 567 475 595 q 374 505 402 505 l 368 505 q 320 530 351 505 q 278 555 290 555 q 238 536 267 555 q 185 518 209 518 q 137 545 137 518 q 159 616 137 589 q 183 641 165 623 q 202 666 202 659 q 145 703 202 679 q 89 765 89 726 z "},"+":{"ha":722,"x_min":70,"x_max":652,"o":"m 417 344 q 415 339 417 344 q 413 241 413 334 q 403 129 413 148 q 353 109 393 109 l 342 109 q 306 133 313 109 q 302 244 302 146 q 297 348 302 342 q 201 353 292 353 q 90 358 109 353 q 70 395 70 364 l 70 416 q 92 452 70 445 q 204 460 114 460 q 300 469 295 460 q 304 571 304 479 q 315 682 304 663 q 363 701 326 701 q 409 684 401 701 q 416 570 416 667 q 423 468 416 473 q 524 464 429 464 q 635 456 618 464 q 652 413 652 449 q 632 367 652 376 q 520 357 612 357 l 486 355 l 441 354 q 417 344 420 354 z "},",":{"ha":351,"x_min":83,"x_max":258,"o":"m 102 88 q 119 142 102 125 q 176 159 136 159 l 195 159 q 243 145 227 159 q 258 96 258 132 l 258 81 l 258 77 l 257 62 l 256 44 q 201 -109 256 -15 q 120 -176 161 -176 l 116 -176 q 83 -149 83 -176 q 104 -98 83 -140 q 125 -40 125 -56 q 115 4 125 -23 q 104 52 104 31 l 102 61 l 102 88 z "},"-":{"ha":569,"x_min":76,"x_max":494,"o":"m 117 330 q 76 366 76 330 l 76 386 q 102 436 76 430 q 289 442 128 442 l 382 444 l 458 444 q 494 408 494 444 l 494 388 q 465 337 494 344 q 275 332 445 332 l 265 332 l 250 332 l 219 332 l 203 331 l 173 331 l 152 330 l 117 330 z "},".":{"ha":353,"x_min":93,"x_max":260,"o":"m 208 155 q 256 108 256 155 q 259 88 259 94 l 260 77 l 260 71 l 259 68 q 198 -9 259 -9 l 181 -11 l 163 -11 l 161 -10 l 155 -10 q 146 -9 149 -9 q 93 59 93 -9 l 93 85 q 95 108 95 95 q 109 138 95 121 q 149 155 123 155 q 159 157 157 157 l 177 158 l 183 158 l 186 157 l 203 156 q 208 155 205 155 z "},"/":{"ha":572,"x_min":35,"x_max":547,"o":"m 454 989 q 462 997 454 989 q 508 1006 469 1006 q 547 977 547 1006 q 478 788 547 960 q 299 330 410 616 q 165 -6 188 45 q 128 -73 142 -56 q 74 -89 114 -89 q 35 -60 35 -89 q 69 43 35 -47 q 385 851 332 730 q 454 989 439 972 z "},":":{"ha":368,"x_min":98,"x_max":267,"o":"m 199 638 q 249 623 231 638 q 267 564 267 608 l 267 553 q 207 475 267 475 q 199 474 201 474 l 184 473 l 173 473 q 104 525 104 473 q 102 533 102 530 l 101 545 l 101 564 l 104 584 q 157 635 104 635 q 165 637 163 637 l 176 638 l 199 638 m 182 14 l 170 14 q 101 62 101 14 q 99 73 99 71 l 98 87 l 98 99 q 116 162 98 144 q 184 180 134 180 l 187 180 l 208 178 q 213 178 210 178 q 262 112 262 178 l 262 89 l 260 69 q 237 27 260 40 q 182 14 214 14 z "},";":{"ha":367,"x_min":89,"x_max":266,"o":"m 266 528 q 245 468 266 483 q 187 453 224 453 l 178 453 l 176 454 l 168 454 q 154 456 155 456 q 109 505 109 456 q 107 513 107 510 l 106 527 l 106 538 q 168 618 106 618 q 176 619 174 619 l 188 620 l 196 620 l 218 617 q 262 571 262 617 q 264 562 264 563 l 266 548 l 266 528 m 198 168 q 250 152 237 168 q 262 102 262 136 l 262 83 q 213 -87 262 -9 q 123 -164 164 -164 l 119 -164 q 89 -134 89 -164 q 110 -86 89 -128 q 131 -28 131 -44 q 119 18 131 -13 q 106 92 106 48 q 170 167 106 167 l 179 168 l 198 168 z "},"<":{"ha":709,"x_min":73,"x_max":604,"o":"m 569 737 l 579 737 q 602 694 602 737 q 549 610 602 652 q 357 489 495 568 q 220 400 220 409 q 361 312 220 391 q 541 206 502 233 q 604 126 604 163 l 604 116 q 574 73 604 73 q 522 94 564 73 q 120 327 302 208 q 73 397 73 358 q 121 467 73 435 q 569 737 533 737 z "},"=":{"ha":745,"x_min":80,"x_max":648,"o":"m 122 469 q 82 505 82 469 l 82 517 q 112 569 82 564 q 371 574 142 574 l 464 574 l 595 574 q 647 538 647 574 l 647 519 q 614 474 647 479 q 358 471 595 471 l 312 471 l 292 470 l 246 470 l 220 469 l 122 469 m 128 224 q 80 265 80 224 l 81 271 l 81 278 q 113 324 81 319 q 376 330 145 330 l 568 331 l 574 331 q 636 323 625 331 q 648 289 648 316 l 647 283 q 617 231 647 236 q 352 226 587 226 l 332 226 l 312 225 l 273 225 l 253 224 l 200 224 l 180 224 l 128 224 z "},">":{"ha":706,"x_min":104,"x_max":632,"o":"m 130 72 q 107 116 107 72 q 167 203 107 159 q 347 318 203 231 q 490 408 490 406 q 323 513 490 410 q 151 619 156 616 q 104 699 104 656 q 132 741 104 741 q 180 721 147 741 q 290 657 214 701 q 383 602 366 613 l 479 547 q 583 485 554 504 q 632 413 632 452 q 585 343 632 374 q 130 72 170 72 z "},"?":{"ha":661,"x_min":80,"x_max":584,"o":"m 584 755 l 584 730 q 549 600 584 658 q 450 481 515 541 q 369 400 385 420 q 346 331 354 379 q 334 278 337 283 q 293 262 323 262 q 247 278 262 262 q 231 347 231 295 q 257 444 231 399 q 342 547 284 488 q 423 642 401 605 q 445 730 445 679 q 409 813 445 782 q 322 844 374 844 q 206 810 271 844 q 123 777 140 777 q 80 824 80 777 l 80 834 q 161 920 80 876 q 323 964 241 964 l 349 964 q 512 907 445 964 q 565 837 545 879 q 584 755 584 794 m 299 161 q 366 90 366 161 l 366 75 l 365 73 l 365 66 q 363 58 363 61 q 342 11 363 28 q 284 -7 320 -7 l 278 -7 l 259 -5 q 210 45 210 -5 q 208 54 208 51 l 207 68 l 207 82 l 208 85 l 208 91 l 210 108 l 211 118 q 261 159 211 159 l 275 161 l 299 161 z "},"@":{"ha":1152,"x_min":76,"x_max":1048,"o":"m 688 475 q 668 513 688 498 q 610 528 649 528 l 605 528 q 489 474 538 528 q 439 338 439 419 l 439 302 q 441 286 441 291 q 467 217 441 246 q 526 188 492 188 l 530 189 q 640 257 595 189 q 686 433 686 326 l 687 443 l 688 462 l 688 475 m 541 -138 q 204 -7 336 -138 q 76 349 76 121 q 113 560 76 461 q 357 840 186 758 q 581 890 465 890 l 619 890 q 623 890 619 890 q 792 856 712 890 q 1048 467 1048 745 q 977 227 1047 315 q 780 140 906 140 q 734 151 772 140 q 677 162 696 162 q 610 153 657 162 q 533 144 564 144 q 432 189 475 144 q 389 329 389 233 q 452 534 389 425 q 566 597 488 597 l 610 595 l 633 598 q 684 602 659 602 q 764 472 740 602 q 797 326 788 343 q 839 293 814 293 q 885 330 863 293 q 907 429 907 366 q 907 432 907 430 q 883 555 907 493 q 581 743 812 743 l 579 743 q 446 709 519 742 q 323 617 372 677 q 227 357 227 502 q 353 50 227 154 q 493 -22 414 -1 q 724 -43 573 -43 q 780 -61 768 -43 q 783 -70 783 -65 q 752 -102 783 -85 q 578 -138 687 -138 l 541 -138 z "},"A":{"ha":876,"x_min":64,"x_max":813,"o":"m 565 411 l 565 416 q 556 458 565 420 q 544 510 548 496 q 520 613 541 524 q 476 754 500 702 q 447 807 452 807 q 419 753 443 807 q 302 410 302 487 l 302 406 q 365 387 302 387 l 394 387 l 400 387 l 459 387 l 488 387 l 494 387 l 505 387 l 526 389 q 565 411 565 389 m 813 65 l 813 53 q 772 26 813 26 q 702 60 731 26 q 642 167 672 94 q 598 253 612 239 q 468 283 566 283 q 275 256 317 283 q 215 159 249 239 q 176 70 181 78 q 108 26 149 26 l 96 26 q 64 58 64 26 q 110 226 64 83 q 304 815 276 747 q 362 921 332 883 q 440 958 392 958 q 522 921 489 958 q 606 759 554 884 q 768 245 704 521 q 794 151 775 217 q 813 65 813 85 z "},"B":{"ha":831,"x_min":101,"x_max":752,"o":"m 239 610 q 247 567 239 577 q 291 557 255 557 l 324 557 l 330 557 q 561 716 561 557 l 561 728 q 522 822 561 787 q 409 857 482 857 l 347 857 l 330 856 l 309 854 q 256 843 269 854 q 243 790 243 831 l 241 779 q 241 768 241 774 l 241 757 l 241 745 l 240 734 l 240 711 l 239 689 l 239 610 m 240 324 l 240 260 q 251 132 240 150 q 345 113 261 113 l 391 113 q 614 291 614 113 l 614 298 q 561 419 614 377 q 404 461 507 461 l 384 461 l 378 460 q 258 446 275 460 q 240 324 240 432 m 418 963 q 617 907 549 963 q 694 738 694 844 q 631 562 694 631 q 600 523 600 526 q 615 509 600 519 l 628 502 q 718 416 683 469 q 752 290 752 363 l 752 273 q 724 155 751 210 q 376 0 648 1 l 271 0 q 158 10 196 0 q 112 50 120 20 q 103 304 103 80 l 103 542 l 104 587 q 104 617 104 602 l 101 840 l 101 869 q 136 945 101 930 q 277 960 171 960 l 292 960 q 323 961 308 961 l 370 963 l 418 963 z "},"C":{"ha":830,"x_min":71,"x_max":762,"o":"m 218 435 q 282 205 218 290 q 470 121 347 121 q 625 155 534 121 q 723 189 716 189 q 762 150 762 189 q 736 100 762 129 q 653 43 711 72 q 459 -4 559 -4 l 438 -4 q 171 109 271 -4 q 96 251 121 165 q 71 433 71 337 l 71 455 q 309 922 72 810 q 470 960 389 960 l 490 960 q 655 915 580 960 q 731 819 731 869 q 688 768 731 768 q 605 798 681 768 q 469 827 530 827 q 357 801 408 827 q 279 730 307 774 q 218 435 218 633 z "},"D":{"ha":895,"x_min":113,"x_max":815,"o":"m 660 462 l 660 519 q 639 658 660 589 q 586 766 618 727 q 383 852 516 852 l 373 852 q 261 819 275 852 q 252 625 252 796 l 252 308 l 252 288 q 252 267 252 277 l 254 227 l 256 187 q 271 134 256 149 q 342 119 286 119 l 380 119 q 586 208 517 119 q 639 317 618 249 q 660 462 660 385 m 345 958 l 390 958 q 708 839 602 958 q 815 500 815 721 l 815 484 q 787 285 815 382 q 577 39 737 109 q 390 2 492 2 l 301 2 q 143 26 191 2 q 119 103 119 39 l 121 191 l 121 264 l 121 294 l 121 368 l 120 397 l 120 471 l 119 500 q 119 530 119 515 l 116 703 q 116 745 116 724 l 114 816 l 113 830 l 113 859 l 114 872 q 151 939 114 927 q 345 958 212 958 z "},"E":{"ha":764,"x_min":103,"x_max":677,"o":"m 677 64 q 619 18 677 27 q 366 1 522 1 l 295 1 q 134 33 165 1 q 103 176 103 64 l 103 247 q 114 507 103 364 q 124 774 124 650 q 159 920 124 898 q 454 960 223 960 l 522 960 q 630 950 598 960 q 662 909 662 941 q 612 860 662 873 q 450 842 562 847 q 311 815 338 836 q 267 651 267 781 q 298 579 267 592 q 444 559 329 566 q 560 551 559 551 q 596 501 596 543 q 555 448 596 459 q 426 435 545 444 q 283 413 308 427 q 249 309 249 394 q 291 139 249 174 q 454 120 314 120 l 561 121 q 677 64 677 121 z "},"F":{"ha":734,"x_min":122,"x_max":661,"o":"m 546 958 l 583 958 q 661 917 661 958 l 661 905 q 597 861 661 875 q 466 849 573 855 q 332 828 359 842 q 293 782 304 813 q 281 669 281 751 q 314 567 281 586 q 442 547 346 547 q 568 530 538 547 q 597 482 597 513 q 570 439 597 451 q 508 426 561 435 l 473 421 q 308 363 345 401 q 248 149 271 324 q 233 68 238 78 q 182 31 216 31 q 135 47 147 31 q 123 111 123 63 l 122 145 l 122 216 l 123 234 l 123 252 q 127 409 123 321 q 132 615 132 496 l 126 819 q 136 890 126 870 q 177 920 145 911 q 546 958 313 958 z "},"G":{"ha":887,"x_min":74,"x_max":773,"o":"m 589 167 q 646 268 646 206 q 606 372 646 329 q 566 422 566 414 q 624 446 566 446 q 751 403 713 446 q 773 293 773 376 l 773 248 q 717 45 773 96 q 629 8 694 24 q 487 -9 563 -9 q 327 25 410 -9 q 102 284 160 93 q 74 491 74 378 q 181 827 74 702 q 320 930 238 893 q 498 966 401 966 q 651 941 595 966 q 753 836 753 894 q 699 797 753 797 q 623 814 692 797 q 494 832 553 832 q 377 800 434 832 q 286 722 320 768 q 225 485 225 640 q 289 232 225 330 q 484 137 351 137 q 589 167 548 137 z "},"H":{"ha":904,"x_min":115,"x_max":800,"o":"m 124 713 l 120 887 q 132 926 120 914 q 181 939 143 939 q 237 886 218 939 q 252 742 245 861 q 281 595 259 622 q 534 555 315 555 q 633 596 612 555 q 654 744 647 624 q 669 888 661 863 q 751 948 688 948 q 786 932 772 948 q 800 854 800 917 l 800 782 l 800 758 l 800 658 l 798 557 l 797 506 q 795 432 795 455 l 791 206 l 792 62 q 747 12 792 12 q 672 52 691 12 q 654 236 654 93 q 630 407 654 379 q 497 435 606 435 q 279 391 314 435 q 253 245 258 364 q 237 83 248 125 q 170 22 221 22 q 125 38 134 22 q 115 106 115 55 l 115 227 l 116 251 q 119 426 116 371 q 122 542 122 481 l 123 566 q 123 614 123 591 l 124 638 l 124 713 z "},"I":{"ha":424,"x_min":113,"x_max":313,"o":"m 113 97 q 130 194 113 113 q 147 385 147 282 l 149 435 l 149 460 l 149 485 l 149 510 l 150 534 q 145 707 150 659 q 127 798 140 755 q 114 879 114 840 q 217 956 114 956 l 229 956 q 292 929 271 956 q 313 870 313 903 l 313 860 q 303 794 313 847 q 294 684 294 741 l 292 659 l 290 558 l 290 495 l 290 457 q 290 420 290 439 l 289 408 l 289 359 l 288 335 l 288 245 q 297 158 288 202 q 307 82 307 114 q 287 27 307 50 q 222 4 268 4 l 199 4 q 138 24 162 4 q 113 85 113 43 l 113 97 z "},"J":{"ha":623,"x_min":40,"x_max":531,"o":"m 40 79 q 54 119 40 102 q 88 136 68 136 q 146 123 108 136 q 211 111 184 111 q 275 138 239 111 q 369 494 369 208 q 331 789 369 663 q 315 879 315 842 q 342 938 315 917 q 414 960 370 960 l 429 960 q 492 913 465 960 q 531 774 531 846 l 531 761 q 523 654 531 746 q 515 445 515 562 q 456 92 515 198 q 367 -3 424 33 q 237 -39 311 -39 l 222 -39 q 96 -3 151 -39 q 40 79 40 33 z "},"K":{"ha":849,"x_min":122,"x_max":780,"o":"m 237 69 q 180 22 220 22 q 129 47 140 22 q 122 109 122 62 l 122 155 l 126 275 q 127 367 127 300 l 127 469 l 125 517 l 125 566 q 124 614 125 590 l 122 684 l 122 774 q 134 914 122 891 q 190 937 146 937 q 250 872 233 937 q 264 701 260 827 q 295 576 269 576 q 446 720 326 576 q 589 886 566 865 q 687 935 642 935 q 732 913 732 935 q 607 731 732 898 q 482 524 482 564 q 631 275 482 513 q 780 33 780 38 q 747 12 780 12 l 727 12 q 643 53 683 12 q 538 196 602 93 q 444 336 474 300 q 351 406 388 406 q 284 346 314 406 q 257 204 264 306 q 237 69 250 102 z "},"L":{"ha":717,"x_min":108,"x_max":683,"o":"m 606 119 q 683 62 683 119 l 683 49 q 655 9 683 18 q 554 0 627 0 l 414 0 l 399 1 q 139 22 170 1 q 108 173 108 43 l 108 280 l 109 296 l 110 373 l 110 497 l 111 528 l 111 603 l 110 648 q 110 692 110 670 l 109 737 l 109 781 l 108 870 q 118 940 108 926 q 163 955 127 955 q 218 944 199 955 q 244 899 237 932 q 252 537 252 866 q 275 159 252 208 q 333 125 288 133 q 476 117 377 117 l 520 117 q 549 118 535 118 l 578 119 l 606 119 z "},"M":{"ha":1122,"x_min":109,"x_max":1012,"o":"m 1012 92 q 966 43 1012 43 q 929 68 951 43 q 897 142 906 92 q 875 425 887 193 q 845 657 863 657 q 733 444 827 657 q 623 207 638 230 q 555 162 592 162 q 497 199 519 162 q 439 332 475 235 q 289 655 315 655 q 240 400 273 655 q 206 140 208 146 q 152 59 185 59 q 109 107 109 59 q 116 214 109 123 q 125 365 123 305 q 132 523 127 425 q 137 797 137 621 q 154 875 137 846 q 223 916 178 916 q 311 856 269 916 q 453 602 353 796 q 561 408 552 408 q 664 588 569 408 q 789 817 758 768 q 906 917 854 917 q 989 863 970 917 q 1008 568 1008 809 l 1004 299 q 1008 166 1004 223 q 1012 92 1012 109 z "},"N":{"ha":939,"x_min":113,"x_max":844,"o":"m 172 915 l 192 915 q 359 777 243 915 q 548 502 429 693 q 682 311 667 311 q 711 546 702 311 q 731 833 721 781 q 793 913 747 913 q 838 887 828 913 q 844 812 844 871 l 833 600 q 827 315 827 479 q 816 79 827 151 q 759 35 809 35 q 649 111 708 35 q 470 403 646 115 q 271 692 294 692 q 240 424 257 692 q 218 115 224 155 q 192 55 212 75 q 159 35 172 35 l 141 35 q 113 75 113 35 l 113 123 l 114 147 l 114 172 l 127 713 l 124 866 q 172 915 124 915 z "},"O":{"ha":932,"x_min":77,"x_max":848,"o":"m 213 487 l 213 442 q 231 300 213 365 q 345 130 264 176 q 448 102 393 102 l 469 102 q 567 131 524 102 q 698 469 697 216 l 698 514 q 638 760 698 665 q 569 829 612 803 q 481 854 527 854 l 450 854 q 351 825 397 854 q 279 755 305 795 q 233 644 252 715 q 213 487 213 573 m 848 517 l 848 471 q 823 272 848 366 q 748 120 797 178 q 626 25 699 62 q 477 -12 553 -12 l 432 -12 q 291 20 360 -11 q 99 269 150 85 q 77 457 77 348 l 78 472 q 104 669 79 572 q 307 933 157 865 q 454 964 375 964 l 484 964 q 627 933 555 964 q 821 703 766 873 q 848 517 848 617 z "},"P":{"ha":803,"x_min":125,"x_max":758,"o":"m 271 541 q 286 479 271 491 q 350 467 300 467 l 357 467 l 363 468 l 369 468 q 545 524 485 468 q 606 675 606 580 l 606 696 q 557 821 606 776 q 416 865 509 865 l 409 865 l 403 865 q 296 848 328 865 q 275 793 275 838 l 273 781 l 273 762 q 273 682 273 722 l 272 662 l 272 601 l 271 574 l 271 541 m 142 574 l 134 829 q 170 943 134 928 q 431 967 233 967 l 461 967 q 665 902 585 967 q 733 813 707 867 q 758 694 758 760 l 758 679 q 637 435 758 525 q 438 367 576 391 q 288 326 301 344 q 260 188 269 298 q 246 61 252 78 q 194 21 233 21 l 182 21 q 138 34 152 21 q 125 78 125 47 l 125 92 l 131 178 q 136 279 136 245 l 136 294 q 137 323 137 309 l 138 353 q 140 398 140 383 l 141 427 l 142 500 l 142 574 z "},"Q":{"ha":953,"x_min":68,"x_max":860,"o":"m 480 854 l 458 854 q 274 752 342 854 q 230 642 249 715 q 211 477 211 568 l 211 465 q 330 147 211 227 q 429 115 378 115 l 439 115 q 551 145 503 115 q 659 257 600 175 q 718 488 718 338 l 718 499 q 573 831 718 757 q 480 854 528 854 m 773 145 q 735 50 735 72 q 765 -21 735 27 q 795 -78 795 -69 q 770 -103 795 -86 q 706 -121 745 -121 q 455 -50 640 -121 q 208 81 271 22 q 106 245 145 140 q 68 461 68 349 l 68 516 q 94 699 68 614 q 294 939 149 873 q 444 971 366 971 l 481 971 q 633 937 557 971 q 832 705 781 872 q 860 514 860 616 l 860 496 l 859 478 q 773 145 859 308 z "},"R":{"ha":842,"x_min":115,"x_max":758,"o":"m 356 493 q 525 548 465 493 q 585 693 585 604 l 585 700 l 584 707 q 545 813 584 771 q 444 855 507 855 l 431 857 l 387 857 q 287 842 315 857 q 258 791 258 828 q 256 760 256 768 l 254 723 q 254 704 254 713 l 254 698 l 254 666 l 253 647 l 253 634 l 252 614 q 252 602 252 608 l 252 576 l 252 557 q 262 504 252 516 q 316 492 273 492 l 339 492 q 356 493 350 493 m 572 406 q 665 206 572 371 q 758 39 758 41 q 711 18 758 18 q 630 56 665 18 q 544 195 616 72 q 439 347 471 318 q 330 376 406 376 q 273 348 284 376 q 255 216 261 319 q 242 84 250 113 q 178 22 226 22 q 123 56 130 22 q 121 285 121 67 l 121 599 q 119 692 121 637 l 119 711 l 117 747 l 116 764 q 115 800 115 800 l 115 817 q 160 945 115 924 q 382 966 205 966 l 401 966 l 421 965 q 647 897 570 965 q 724 705 724 828 q 631 486 724 581 q 572 406 572 425 z "},"S":{"ha":774,"x_min":81,"x_max":702,"o":"m 702 253 q 613 64 702 136 q 399 -7 524 -7 q 200 26 273 -7 q 95 102 126 60 q 81 142 81 121 q 97 179 81 162 q 131 196 113 196 q 181 180 149 196 l 213 163 q 379 117 301 117 q 498 144 457 117 q 555 247 555 181 q 496 359 555 312 q 340 443 453 394 q 181 535 227 492 q 102 720 102 610 q 189 899 102 830 q 417 968 274 968 l 420 968 q 563 944 506 968 q 643 893 621 920 q 665 855 665 867 q 650 808 665 825 q 610 791 635 791 q 533 820 607 791 q 385 849 460 849 q 267 799 311 849 q 241 741 247 774 q 240 726 240 733 q 256 668 240 699 q 429 554 282 618 q 622 445 575 489 q 702 275 702 370 l 702 253 z "},"T":{"ha":760,"x_min":50,"x_max":739,"o":"m 434 28 q 428 15 434 28 q 376 2 422 2 q 320 21 330 2 q 311 80 311 41 q 316 199 311 119 q 321 412 321 279 l 323 533 q 325 581 325 567 l 325 618 q 294 803 325 764 q 155 827 275 827 q 72 840 94 827 q 50 885 50 852 l 50 897 q 116 941 50 931 q 477 959 244 959 l 612 959 q 715 949 691 959 q 739 905 739 939 q 703 857 739 871 q 604 840 686 850 q 500 807 522 831 q 460 583 460 764 l 460 548 l 459 531 l 457 428 q 456 393 456 411 l 449 193 l 448 162 l 447 115 q 434 28 447 54 z "},"U":{"ha":899,"x_min":103,"x_max":800,"o":"m 368 127 q 454 115 397 115 q 558 149 511 115 q 628 247 605 183 q 662 569 650 311 q 685 880 673 827 q 740 933 696 933 q 792 920 784 933 q 800 856 800 907 l 800 786 l 800 762 l 798 646 q 792 278 798 351 q 764 157 787 204 q 648 48 728 87 q 442 8 568 8 l 418 8 q 165 138 244 8 q 123 260 135 188 q 111 498 111 332 l 108 677 l 104 803 l 103 844 l 103 864 q 114 915 103 905 q 161 924 125 924 q 227 852 210 924 q 249 486 249 758 l 250 392 q 368 127 250 178 z "},"V":{"ha":840,"x_min":35,"x_max":808,"o":"m 434 204 q 505 386 441 204 q 612 700 569 568 q 672 868 656 832 q 763 950 709 950 l 779 950 q 808 926 808 950 q 760 760 808 914 q 487 31 553 107 q 428 9 468 9 q 369 25 388 9 q 335 73 349 41 q 208 440 321 104 q 114 686 193 481 q 35 899 35 890 q 92 930 35 930 q 93 930 92 930 q 156 898 127 930 q 324 511 229 819 q 434 204 419 204 z "},"W":{"ha":1221,"x_min":75,"x_max":1152,"o":"m 862 258 q 962 533 889 258 q 1050 843 1036 809 q 1132 921 1085 921 q 1152 899 1152 921 l 1152 877 q 1105 621 1152 854 q 991 176 1058 387 q 883 58 953 58 q 773 165 830 58 q 715 299 756 197 q 645 481 673 401 q 611 562 616 562 q 536 392 602 562 q 435 161 469 222 q 347 75 386 75 q 241 176 273 75 q 136 578 197 318 q 75 870 75 838 q 108 902 75 902 q 208 789 160 902 q 295 502 227 747 q 376 256 363 256 q 468 497 399 256 q 514 683 488 568 q 551 821 541 798 q 613 867 572 867 q 669 855 654 867 q 694 820 685 844 q 773 527 703 795 q 862 258 844 258 z "},"X":{"ha":838,"x_min":67,"x_max":775,"o":"m 621 893 q 717 949 668 949 q 766 921 766 949 q 646 719 766 911 q 526 481 526 527 q 650 243 526 436 q 775 43 775 51 q 702 16 775 16 q 611 72 660 16 q 493 241 562 129 q 411 353 425 353 q 318 223 397 353 q 202 49 238 92 q 117 6 166 6 q 67 24 67 6 l 67 38 q 192 248 67 50 q 317 500 317 446 q 200 711 317 532 q 83 912 83 890 q 138 935 83 935 q 239 887 194 935 q 339 741 263 861 q 428 620 415 620 q 523 750 436 620 q 621 893 609 880 z "},"Y":{"ha":795,"x_min":60,"x_max":753,"o":"m 701 947 l 716 947 q 753 925 753 947 l 753 913 q 630 632 753 895 q 491 325 507 369 q 458 158 476 281 q 432 16 440 36 q 385 -5 424 -5 q 336 10 345 -5 q 326 48 326 24 q 330 111 326 72 l 334 144 q 340 201 335 147 q 345 306 345 254 q 318 414 345 357 q 217 609 290 472 q 102 817 144 745 q 60 901 60 888 q 114 930 60 930 q 206 881 169 930 q 327 673 258 813 q 402 534 395 534 q 517 697 425 534 q 574 810 537 732 q 627 908 612 888 q 701 947 658 947 z "},"Z":{"ha":807,"x_min":84,"x_max":741,"o":"m 108 860 q 101 868 108 860 q 93 907 93 877 q 124 946 93 938 q 411 960 176 960 l 434 960 q 671 943 604 960 q 711 900 711 933 q 660 755 711 849 q 444 430 608 662 q 281 147 281 197 q 435 119 281 119 l 648 125 q 741 74 741 125 l 741 57 q 688 18 741 26 q 330 3 597 3 l 261 3 q 116 14 147 3 q 84 70 84 26 q 136 203 84 115 q 325 499 240 380 q 524 807 524 779 q 486 839 524 831 q 335 846 449 846 l 167 842 q 108 860 123 842 z "},"[":{"ha":517,"x_min":119,"x_max":449,"o":"m 449 1017 l 449 1005 q 429 967 449 981 q 355 942 408 953 q 288 909 301 930 q 258 728 258 863 l 257 711 q 256 677 256 694 l 256 661 q 255 626 255 643 l 252 471 l 251 454 l 250 385 q 250 349 250 367 l 248 298 l 248 263 q 273 -35 248 9 q 322 -70 288 -61 l 336 -73 l 366 -77 q 437 -131 437 -92 q 419 -165 437 -157 q 304 -172 401 -172 l 235 -172 q 142 -142 160 -172 q 119 56 119 -100 l 119 73 l 119 90 l 119 140 l 120 157 q 121 192 121 174 l 121 209 q 121 243 121 226 l 124 398 l 127 501 l 132 725 l 133 794 q 168 1011 133 967 q 303 1037 189 1037 l 338 1038 l 389 1039 q 449 1017 449 1039 z "},"\\":{"ha":576,"x_min":39,"x_max":536,"o":"m 536 -52 q 487 -82 536 -82 l 475 -82 q 396 12 436 -82 q 73 871 357 105 q 39 975 39 960 q 88 1005 39 1005 l 100 1005 q 181 903 138 1005 q 309 568 203 850 q 475 125 414 285 q 536 -52 536 -35 z "},"]":{"ha":519,"x_min":76,"x_max":406,"o":"m 199 -173 l 131 -173 q 76 -147 76 -173 l 76 -135 q 169 -76 76 -94 q 233 -50 217 -66 q 268 126 268 -9 l 269 160 l 275 487 q 264 886 275 854 q 227 930 253 918 q 173 944 220 934 q 109 968 126 954 q 92 1008 92 981 q 179 1039 92 1039 l 282 1039 q 379 1013 361 1039 q 406 850 406 976 l 406 817 l 397 301 l 397 267 l 396 250 l 396 215 l 395 197 q 395 163 395 180 l 395 112 l 393 43 q 357 -153 393 -119 q 199 -173 335 -173 z "},"^":{"ha":699,"x_min":84,"x_max":610,"o":"m 610 552 l 610 545 q 569 526 610 526 q 494 568 528 526 q 416 694 479 586 q 350 802 353 802 q 279 693 347 802 q 203 573 212 584 q 130 526 167 526 l 121 526 q 84 545 84 526 l 84 552 q 273 876 84 586 q 352 934 311 934 q 429 879 393 934 q 610 552 610 600 z "},"_":{"ha":734,"x_min":25,"x_max":701,"o":"m 80 -140 q 25 -100 25 -140 l 25 -85 q 66 -45 25 -50 q 378 -40 101 -40 l 547 -39 l 646 -39 q 701 -72 701 -39 l 701 -94 q 667 -134 701 -129 q 347 -138 633 -138 l 316 -138 l 301 -139 l 232 -139 l 201 -140 l 80 -140 z "},"`":{"ha":442,"x_min":80,"x_max":334,"o":"m 80 950 l 80 960 q 127 991 80 991 l 142 991 q 223 947 185 991 q 334 787 334 821 l 334 784 q 300 760 334 760 l 293 760 q 189 821 258 760 q 80 950 80 916 z "},"a":{"ha":709,"x_min":55,"x_max":618,"o":"m 197 186 q 239 114 197 143 q 317 94 267 94 l 321 94 q 347 96 334 96 q 429 137 393 96 q 465 215 465 178 l 467 223 l 469 259 l 469 294 q 452 329 469 319 q 389 338 435 338 l 379 338 l 374 337 l 366 337 l 337 335 q 314 333 323 333 q 230 302 265 333 q 195 221 195 272 l 195 201 q 197 186 197 191 m 149 556 q 104 605 104 556 q 151 662 104 639 q 310 699 225 699 l 342 699 q 470 675 410 699 q 561 600 529 650 q 602 314 602 535 q 610 142 602 197 q 618 60 618 86 q 553 9 618 9 q 499 27 524 9 q 459 45 474 45 q 380 19 444 45 q 250 -7 315 -7 q 107 51 159 -7 q 55 193 55 109 l 55 208 q 144 368 55 311 q 325 418 203 404 q 453 439 446 431 q 462 474 462 450 q 461 490 462 481 q 326 587 452 586 q 223 571 279 587 q 149 556 168 556 z "},"b":{"ha":746,"x_min":101,"x_max":675,"o":"m 534 390 l 532 427 q 493 549 532 500 q 406 597 454 597 l 393 597 l 387 597 q 265 534 307 597 q 233 401 233 486 q 231 373 231 380 l 230 338 l 230 302 q 258 147 230 189 q 356 105 286 105 l 362 105 q 487 169 440 105 q 534 360 534 233 l 534 383 l 534 390 m 101 168 l 101 291 l 102 307 l 102 337 l 102 368 l 102 399 l 104 445 l 104 538 l 106 646 q 107 678 107 662 l 109 756 l 109 787 q 113 947 109 925 q 153 982 121 982 l 166 982 q 231 947 216 982 q 245 805 245 912 q 250 673 245 697 q 276 649 255 649 q 305 656 279 649 l 340 665 q 426 675 381 675 q 516 656 471 675 q 647 502 604 618 q 675 353 675 426 l 675 306 q 654 191 675 254 q 503 26 614 74 q 401 5 454 5 l 372 5 q 294 19 344 5 q 231 33 245 33 l 180 29 q 119 58 136 29 q 101 168 101 87 z "},"c":{"ha":647,"x_min":58,"x_max":591,"o":"m 357 -3 l 327 -3 q 216 21 271 -3 q 126 88 162 45 q 58 307 58 169 l 58 338 q 140 581 58 491 q 242 653 183 629 q 357 677 300 677 l 386 677 q 507 643 450 677 q 563 574 563 609 q 514 525 563 525 q 452 542 510 525 q 356 559 395 559 q 195 316 195 559 q 242 162 195 214 q 374 111 290 111 q 475 132 406 111 q 559 153 545 153 q 591 111 591 153 q 499 28 591 70 q 357 -3 431 -3 z "},"d":{"ha":748,"x_min":72,"x_max":659,"o":"m 193 341 l 193 296 q 194 275 194 283 q 235 147 194 199 q 332 96 276 96 l 338 96 q 412 115 378 96 q 463 163 446 134 q 495 376 495 220 l 496 389 l 496 403 l 495 410 l 494 430 l 492 464 q 461 550 492 519 q 380 581 431 581 l 361 581 q 241 515 289 581 q 193 341 193 450 m 659 110 q 593 31 659 31 q 547 43 570 31 q 516 54 524 54 q 449 31 509 54 q 345 8 389 8 l 315 8 q 136 90 199 8 q 72 308 72 172 l 73 324 l 73 340 q 95 470 73 403 q 160 587 118 537 q 370 681 240 681 l 469 674 q 505 710 496 674 q 517 834 513 745 q 532 949 521 924 q 591 986 548 986 l 603 986 q 645 957 635 986 q 650 853 650 943 l 648 775 l 647 760 l 644 570 l 644 353 q 650 236 644 323 l 654 179 q 659 110 659 113 z "},"e":{"ha":692,"x_min":52,"x_max":608,"o":"m 395 399 q 470 418 439 399 q 487 462 487 429 l 487 466 q 457 548 487 515 q 372 582 427 582 l 364 582 q 251 536 302 582 q 199 419 199 490 l 199 408 q 231 387 199 387 l 237 385 l 262 385 l 266 386 l 303 389 l 308 389 l 333 391 q 344 393 338 392 q 369 396 350 393 q 395 399 387 399 m 359 -7 l 344 -7 q 219 18 275 -7 q 73 180 111 65 q 52 311 52 245 l 52 341 q 79 477 53 410 q 253 659 132 614 q 370 680 310 680 l 385 680 q 545 620 481 680 q 608 458 608 561 l 608 445 q 562 344 608 373 q 400 303 527 321 q 249 277 274 285 q 208 239 208 264 q 270 136 208 178 q 382 113 306 113 q 479 131 413 113 q 562 150 545 150 q 602 109 602 150 q 525 31 602 68 q 359 -7 447 -7 z "},"f":{"ha":505,"x_min":74,"x_max":497,"o":"m 289 768 q 307 711 289 730 q 382 675 311 707 q 432 617 432 654 q 381 568 432 593 q 313 504 331 544 q 279 194 279 425 q 268 27 279 60 q 199 -22 252 -22 l 185 -22 q 143 14 155 -22 q 136 115 136 35 l 138 146 q 138 179 138 163 l 140 227 l 141 275 q 127 499 141 407 q 97 568 121 538 q 74 627 74 598 l 74 638 q 103 686 74 654 q 142 747 132 717 q 221 940 208 925 q 384 1006 279 1006 q 471 987 446 1006 q 497 956 497 968 l 497 945 q 466 905 497 918 q 404 892 455 900 q 330 867 352 884 q 289 768 289 834 z "},"g":{"ha":749,"x_min":84,"x_max":644,"o":"m 498 391 l 496 425 q 468 524 496 490 q 388 557 439 557 l 363 557 q 295 538 330 557 q 239 487 260 518 q 197 304 197 425 l 198 298 q 227 157 198 205 q 326 94 264 94 l 345 94 q 454 142 413 94 q 496 295 496 191 q 497 315 497 309 l 498 350 l 498 385 l 498 391 m 84 334 l 84 371 q 105 489 84 429 q 157 585 127 550 q 351 664 223 664 q 455 646 399 664 q 551 627 511 627 q 628 579 614 627 q 642 275 642 531 l 642 181 l 643 128 q 644 93 644 94 l 644 3 q 566 -228 644 -142 q 464 -294 526 -271 q 339 -317 401 -317 l 320 -317 q 194 -293 255 -317 q 134 -233 134 -269 q 199 -191 134 -191 q 237 -194 206 -191 q 309 -197 269 -197 q 447 -148 391 -197 q 502 -19 502 -99 q 479 20 502 20 l 385 10 q 109 194 176 10 q 84 334 84 262 z "},"h":{"ha":745,"x_min":96,"x_max":654,"o":"m 159 987 q 233 945 218 987 q 241 782 241 922 q 267 643 241 643 q 292 648 276 643 l 306 652 q 347 665 326 659 q 433 670 368 670 q 614 537 563 670 q 654 100 654 435 q 639 37 654 51 q 596 24 624 24 q 541 87 554 24 q 527 283 535 111 q 501 494 518 455 q 402 561 473 561 q 269 479 306 561 q 236 267 247 434 q 221 83 225 100 q 154 17 204 17 q 110 31 124 17 q 96 79 96 44 l 96 119 l 96 141 l 98 248 l 100 333 l 101 376 l 103 504 q 104 547 104 526 l 106 673 q 114 938 106 888 q 159 987 121 987 z "},"i":{"ha":359,"x_min":98,"x_max":267,"o":"m 260 869 q 180 798 260 798 l 175 798 l 172 799 l 152 801 q 147 802 149 802 q 103 862 103 802 l 103 875 q 120 929 103 912 q 162 946 137 946 l 178 948 l 193 948 l 216 945 q 258 897 258 945 l 260 882 l 260 869 m 238 313 l 267 104 l 267 90 l 266 83 q 248 20 266 39 q 176 2 229 2 l 168 2 q 108 54 121 2 q 101 258 101 80 l 101 548 l 98 593 l 98 608 q 110 654 98 642 q 149 667 122 667 l 172 667 q 231 633 220 667 q 235 522 235 618 l 235 375 l 237 334 q 238 313 238 326 z "},"j":{"ha":367,"x_min":-49,"x_max":261,"o":"m 112 867 l 113 880 q 131 921 113 904 q 172 939 148 939 q 180 940 178 940 l 191 941 l 203 941 q 217 939 211 939 q 261 871 261 939 l 261 860 l 260 846 l 257 829 q 238 794 257 810 q 174 779 219 779 l 168 779 q 115 817 115 779 q 113 827 113 825 l 111 844 l 111 864 l 112 867 m 119 87 q 122 172 122 145 l 124 245 l 124 271 l 125 295 q 118 514 125 459 q 112 605 112 568 q 129 656 112 642 q 184 670 146 670 l 196 670 q 249 606 239 670 q 259 335 259 543 l 259 311 l 258 298 q 258 176 258 237 l 256 65 q 255 40 255 52 q 130 -255 255 -195 q 34 -277 84 -277 l 23 -277 q -34 -262 -19 -277 q -49 -233 -49 -246 l -49 -223 q 8 -164 -49 -186 q 83 -107 64 -141 q 119 87 119 -41 z "},"k":{"ha":708,"x_min":94,"x_max":635,"o":"m 151 988 l 167 988 q 229 930 215 988 q 238 677 238 891 q 261 463 238 463 q 385 562 283 463 q 541 661 486 661 q 595 637 595 661 q 517 518 595 631 q 439 376 439 405 q 537 207 439 347 q 635 46 635 68 q 606 24 635 24 q 523 52 555 24 q 416 193 490 80 q 307 307 342 307 q 253 243 272 307 q 239 156 246 222 q 215 60 232 91 q 157 30 199 30 q 108 66 116 30 q 94 256 94 131 l 94 340 l 94 361 q 94 425 94 393 l 95 468 l 97 554 l 100 745 q 104 952 100 937 q 151 988 113 988 z "},"l":{"ha":370,"x_min":103,"x_max":285,"o":"m 166 1002 l 189 1002 q 233 989 221 1002 q 248 955 244 975 q 251 864 251 935 l 248 722 l 248 698 l 246 662 l 246 638 l 243 494 l 243 470 l 242 446 q 245 274 242 307 q 267 155 248 240 q 285 70 285 71 q 269 17 285 32 q 212 1 253 1 l 200 1 q 134 33 155 1 q 103 162 103 78 l 103 205 l 104 217 l 105 261 l 106 273 q 106 296 106 284 l 107 343 l 107 367 l 109 427 l 109 451 l 111 524 l 111 547 l 113 631 q 113 656 113 644 l 114 703 l 114 727 l 115 787 l 115 833 l 112 922 q 124 983 112 964 q 166 1002 136 1002 z "},"m":{"ha":1094,"x_min":92,"x_max":1006,"o":"m 322 641 q 421 661 375 661 q 497 647 467 661 q 561 612 528 632 q 604 593 593 593 q 678 622 616 593 q 798 651 741 651 q 901 619 856 651 q 968 529 947 587 q 1006 102 1006 425 q 965 36 1006 36 q 907 93 924 36 q 875 293 891 151 q 843 469 859 435 q 743 536 810 536 q 651 464 676 536 q 621 244 635 415 q 606 67 608 74 q 544 23 593 23 q 484 47 496 23 q 473 263 473 71 q 451 502 473 456 q 366 549 429 549 q 298 523 336 549 q 242 454 260 497 q 215 272 224 410 q 193 90 205 134 q 142 45 180 45 q 103 70 115 45 q 92 158 92 94 l 92 183 q 92 235 92 209 q 112 568 92 473 q 172 623 123 623 l 246 612 l 322 641 z "},"n":{"ha":748,"x_min":88,"x_max":669,"o":"m 105 583 q 147 637 113 637 q 210 614 182 637 q 247 591 239 591 q 291 611 255 591 q 336 635 328 631 q 447 659 391 659 q 600 591 550 659 q 650 342 650 522 q 660 190 650 306 q 669 71 669 75 q 618 27 669 27 q 551 83 568 27 q 522 297 534 140 q 494 492 509 455 q 387 561 465 561 q 314 538 349 561 q 259 473 279 516 q 226 267 239 429 q 206 77 214 105 q 183 35 199 50 q 139 20 167 20 q 99 34 111 20 q 88 90 88 47 l 88 107 l 89 125 l 91 213 q 91 248 91 231 l 92 301 q 105 583 92 485 z "},"o":{"ha":727,"x_min":66,"x_max":657,"o":"m 193 343 l 193 306 q 235 148 193 205 q 347 92 277 92 l 353 92 q 470 156 427 92 q 513 339 513 220 l 513 369 q 476 522 513 461 q 374 583 439 583 l 354 583 q 238 517 283 583 q 193 343 193 452 m 657 355 l 657 333 q 573 83 657 178 q 471 13 533 37 q 345 -11 408 -11 l 323 -11 q 127 86 203 -11 q 66 305 66 164 l 66 339 q 67 396 67 361 q 88 490 67 429 q 231 654 130 610 q 350 682 292 682 l 372 682 q 589 585 507 682 q 657 355 657 507 z "},"p":{"ha":750,"x_min":90,"x_max":680,"o":"m 538 346 l 538 369 q 498 532 538 478 q 401 585 459 585 l 389 585 q 276 538 319 585 q 232 408 232 491 l 230 387 l 229 358 l 229 329 l 228 307 l 228 286 q 250 136 228 168 q 354 87 281 87 l 361 87 q 490 157 443 87 q 538 346 538 226 m 168 650 q 208 640 187 650 q 237 629 229 629 q 309 655 244 629 q 428 680 373 680 l 443 680 q 540 658 493 680 q 619 593 587 636 q 680 397 680 513 l 680 350 q 656 203 680 276 q 592 85 633 130 q 368 -7 509 -7 q 301 0 332 -7 q 259 6 271 6 q 226 -138 226 6 q 208 -254 226 -222 q 151 -287 190 -287 l 138 -287 q 101 -272 113 -287 q 90 -218 90 -256 l 90 -203 l 91 -189 l 94 -68 l 98 85 l 102 331 q 104 608 102 600 q 168 650 114 650 z "},"q":{"ha":746,"x_min":73,"x_max":649,"o":"m 498 401 l 497 435 q 466 543 497 509 q 384 576 435 576 l 364 576 q 247 514 292 576 q 201 358 201 452 l 200 343 l 199 321 l 199 298 l 200 291 l 201 276 q 201 262 201 269 q 242 142 201 197 q 340 87 282 87 l 347 87 l 353 87 q 459 135 422 87 q 496 275 496 182 l 498 288 l 498 302 l 499 338 l 499 394 l 498 401 m 644 362 l 644 136 l 644 92 q 644 47 644 69 l 645 3 q 645 -42 645 -20 l 646 -57 q 646 -87 646 -72 l 646 -102 q 647 -130 647 -117 l 649 -174 l 649 -216 q 639 -268 649 -251 q 588 -284 629 -284 q 530 -254 548 -284 q 513 -142 513 -224 q 475 18 513 18 q 454 12 473 19 q 339 -7 393 -7 q 232 14 282 -7 q 94 191 134 57 q 73 326 73 263 l 73 358 q 142 583 73 495 q 232 654 180 631 q 332 677 283 677 l 347 677 q 454 656 395 677 q 526 635 513 635 l 564 638 q 639 581 630 638 q 644 362 644 552 z "},"r":{"ha":543,"x_min":96,"x_max":500,"o":"m 96 555 q 107 624 96 602 q 150 647 119 647 q 222 625 181 647 q 268 602 262 602 q 290 614 273 602 q 407 661 356 661 l 426 661 q 478 644 457 661 q 500 596 500 627 q 473 551 500 565 q 425 541 461 545 q 353 523 388 536 q 291 470 318 509 q 252 245 252 412 l 249 170 l 248 126 q 228 37 248 66 q 163 9 209 9 l 153 9 q 103 50 112 9 q 102 179 102 54 l 102 315 l 102 327 l 102 349 l 101 361 q 101 384 101 372 l 98 471 l 96 534 l 96 555 z "},"s":{"ha":630,"x_min":75,"x_max":567,"o":"m 139 370 q 81 501 81 420 q 150 635 81 582 q 330 688 218 688 l 347 688 q 457 670 410 688 q 531 609 531 642 q 481 560 531 560 q 424 573 477 560 q 328 585 372 585 q 250 564 285 585 q 216 503 216 543 q 258 437 216 463 q 374 391 284 422 q 509 323 464 361 q 567 200 567 275 l 567 184 q 495 47 567 102 q 321 -7 424 -7 l 303 -7 q 145 25 215 -7 q 75 93 75 56 q 127 144 75 144 q 198 124 139 144 q 310 104 256 104 q 397 126 363 104 q 431 188 431 148 q 388 256 431 229 q 269 306 361 273 q 139 370 176 338 z "},"t":{"ha":504,"x_min":60,"x_max":433,"o":"m 183 76 q 160 112 183 76 q 136 311 136 148 q 116 532 136 473 q 84 576 108 557 q 60 627 60 595 q 85 678 60 659 q 111 694 91 682 q 138 716 132 706 q 153 781 145 726 q 212 892 169 892 l 222 892 q 271 865 257 892 q 287 793 279 851 q 308 716 294 734 q 377 679 321 699 q 433 631 433 659 q 387 589 433 603 q 306 541 319 568 q 274 292 274 479 q 294 173 274 205 q 349 127 313 141 q 377 119 352 126 q 416 101 401 112 q 431 64 431 90 q 407 22 431 39 q 335 5 381 5 q 183 76 231 5 z "},"u":{"ha":747,"x_min":83,"x_max":664,"o":"m 330 104 q 415 127 375 104 q 478 199 456 151 q 514 408 501 247 q 530 585 526 568 q 584 638 542 638 q 636 607 625 638 q 647 486 647 575 q 655 306 647 396 q 663 161 663 216 l 664 130 q 645 52 664 73 q 596 31 627 31 q 540 47 566 31 q 502 62 513 62 q 459 50 490 62 q 397 25 429 37 q 313 14 366 14 l 296 14 q 136 88 188 14 q 83 340 83 162 l 83 412 l 84 429 l 84 464 q 92 631 84 613 q 148 659 102 659 q 212 604 194 659 q 218 397 218 583 q 235 172 218 212 q 330 104 262 104 z "},"v":{"ha":676,"x_min":39,"x_max":633,"o":"m 39 642 q 79 665 39 665 q 143 649 119 665 q 188 586 166 633 q 264 350 210 539 q 337 161 318 161 q 420 362 353 161 q 513 615 487 564 q 586 666 538 666 q 633 636 633 666 q 567 419 633 624 q 437 84 500 215 q 390 19 412 33 q 331 5 368 5 q 276 20 294 5 q 217 121 257 35 q 108 421 177 208 q 39 642 39 634 z "},"w":{"ha":997,"x_min":73,"x_max":922,"o":"m 498 378 q 434 259 489 378 q 353 101 379 140 q 275 36 310 36 q 186 103 210 36 q 115 379 157 184 q 73 615 73 574 q 94 638 73 638 q 173 570 139 638 q 229 381 175 566 q 308 197 283 197 q 373 359 326 197 q 406 481 389 415 l 416 529 q 433 598 430 589 q 498 642 449 642 q 563 611 547 642 q 621 388 578 581 q 686 196 664 196 q 774 396 709 196 q 844 602 840 595 q 909 644 869 644 q 922 627 922 644 q 892 422 922 580 q 815 126 862 264 q 779 62 800 83 q 718 42 758 42 q 534 298 649 42 q 498 378 499 378 z "},"x":{"ha":678,"x_min":62,"x_max":624,"o":"m 116 -3 l 101 -3 q 62 17 62 -3 q 151 183 62 37 q 240 346 240 330 q 154 492 240 363 q 68 635 68 621 q 137 663 68 663 q 209 634 179 663 q 289 529 239 606 q 351 452 339 452 q 412 537 357 452 q 492 646 468 621 q 561 670 515 670 q 606 647 606 670 q 518 498 606 636 q 431 328 431 360 q 527 180 431 309 q 624 43 624 51 q 566 13 624 13 q 563 13 564 13 q 477 43 506 13 q 393 151 447 75 q 333 227 338 227 q 267 141 321 227 q 184 26 212 56 q 116 -3 156 -3 z "},"y":{"ha":695,"x_min":67,"x_max":631,"o":"m 131 640 q 194 584 168 640 q 258 370 220 528 q 336 173 296 212 q 419 284 373 173 q 474 471 445 346 q 522 631 503 597 q 574 665 540 665 l 589 665 q 631 620 631 665 q 571 330 631 597 q 458 -47 511 62 q 331 -216 404 -157 q 199 -276 257 -276 l 189 -276 q 144 -247 144 -276 q 209 -182 144 -224 q 285 -127 273 -141 q 326 -20 326 -76 q 261 107 326 8 q 158 299 195 207 q 67 596 67 524 q 131 640 67 640 z "},"z":{"ha":659,"x_min":72,"x_max":593,"o":"m 593 60 q 557 15 593 22 q 277 3 497 3 l 175 2 l 142 2 q 84 11 96 2 q 72 52 72 20 q 232 323 72 114 q 393 557 393 532 q 268 576 393 576 q 125 581 142 576 q 80 628 80 593 q 100 672 80 663 q 210 682 121 682 l 244 683 l 363 683 q 537 675 500 683 q 574 623 574 667 q 417 363 574 578 q 261 131 261 147 q 369 107 261 107 l 524 112 q 593 60 593 112 z "},"{":{"ha":506,"x_min":75,"x_max":447,"o":"m 307 629 q 256 471 307 529 q 227 431 227 438 q 264 391 253 404 q 298 240 298 349 l 291 91 q 317 -28 291 18 q 383 -83 332 -54 q 435 -144 435 -112 q 393 -182 435 -182 l 377 -182 q 211 -108 267 -182 q 168 77 168 -50 l 176 260 q 162 333 176 307 q 111 381 148 359 q 75 435 75 404 q 117 495 75 467 q 171 551 159 523 q 182 647 182 579 l 178 780 q 236 983 178 916 q 402 1050 293 1050 q 447 1018 447 1050 q 394 950 447 985 q 329 895 342 916 q 304 761 304 855 l 305 696 l 307 663 l 307 629 z "},"|":{"ha":383,"x_min":132,"x_max":255,"o":"m 141 863 l 143 991 q 154 1029 143 1013 q 200 1044 164 1044 q 245 1029 235 1044 q 255 970 255 1014 l 255 866 l 254 852 q 254 813 254 833 l 254 786 l 254 760 l 253 733 l 253 680 l 252 652 l 252 626 l 252 599 l 252 572 l 251 545 q 251 491 251 518 l 250 465 l 250 172 q 242 -149 250 -101 q 181 -186 235 -186 q 142 -172 151 -186 q 132 -113 132 -157 l 132 -21 l 133 -8 l 133 32 l 134 59 l 134 112 l 134 139 l 134 165 l 135 193 l 135 246 l 136 273 q 136 300 136 286 l 136 326 q 136 380 136 353 l 137 394 l 137 448 l 138 461 l 138 515 l 138 528 l 138 582 l 139 622 l 139 662 l 140 675 l 140 729 l 140 769 q 140 796 140 783 l 141 836 l 141 863 z "},"}":{"ha":509,"x_min":71,"x_max":443,"o":"m 213 595 l 222 800 q 205 886 222 853 q 138 951 188 919 q 87 1022 87 983 q 125 1050 87 1050 l 141 1050 q 233 1031 189 1050 q 306 975 278 1013 q 345 789 345 923 q 340 715 345 773 q 336 611 336 657 q 351 542 336 564 q 404 494 366 519 q 443 448 443 469 q 412 387 443 409 q 350 326 362 351 q 338 234 338 300 l 339 201 q 340 151 340 168 l 342 117 l 341 84 q 224 -161 341 -105 q 132 -184 177 -184 l 116 -184 q 71 -153 71 -184 q 124 -84 71 -114 q 198 -16 178 -54 q 218 117 218 23 l 217 183 l 216 199 q 216 260 216 216 q 280 416 216 352 q 294 434 294 430 q 266 466 294 439 q 213 595 213 517 z "},"~":{"ha":722,"x_min":79,"x_max":646,"o":"m 225 587 l 246 587 q 366 547 285 587 q 479 507 446 507 q 553 538 513 507 q 614 570 593 570 q 646 526 646 570 q 596 442 646 482 q 492 401 547 401 l 478 401 q 354 442 435 401 q 244 482 273 482 q 171 450 215 482 q 110 418 127 418 q 79 450 79 418 l 79 457 q 127 546 79 505 q 225 587 174 587 z "},"":{"ha":401,"x_min":0,"x_max":0,"o":""},"":{"ha":414,"x_min":119,"x_max":274,"o":"m 121 787 q 164 815 121 815 l 182 815 l 206 812 q 254 791 237 812 q 271 745 271 771 l 273 734 q 273 729 273 732 l 274 722 l 274 716 q 248 671 274 671 l 243 669 l 222 667 l 214 667 l 187 671 q 139 691 156 671 q 122 735 122 711 q 121 743 121 741 l 119 753 l 119 774 l 120 776 l 120 781 q 121 787 121 786 m 254 -67 q 242 -127 254 -113 q 191 -142 231 -142 l 179 -142 q 145 -127 151 -142 q 138 -69 138 -113 l 138 -22 l 139 -14 q 139 3 139 -5 l 140 27 q 140 52 140 39 l 140 68 q 140 85 140 77 l 141 93 l 141 110 l 142 142 l 142 168 l 144 201 q 156 527 144 446 q 200 559 161 559 l 206 559 q 237 537 233 559 q 249 205 249 476 l 250 155 l 250 130 l 252 96 q 252 72 252 84 l 252 63 q 252 47 252 55 l 253 22 l 253 5 l 254 -19 l 254 -67 z "},"":{"ha":728,"x_min":98,"x_max":627,"o":"m 218 380 q 251 235 218 296 q 328 174 284 174 l 332 174 q 347 195 347 174 l 349 210 q 349 243 349 227 l 350 254 l 350 282 l 351 294 q 351 304 351 299 l 351 310 l 351 321 l 359 473 l 360 479 l 362 513 q 367 568 367 551 l 370 595 l 370 616 q 353 646 370 646 l 349 646 q 257 582 294 646 q 220 448 220 519 l 219 435 l 218 411 l 218 380 m 98 385 l 98 420 q 155 640 98 564 q 238 710 187 683 l 281 729 q 330 756 317 746 q 370 811 342 766 q 418 857 397 857 q 472 831 450 857 q 617 635 617 665 q 579 595 617 595 q 533 607 565 595 q 483 620 500 620 q 444 568 452 620 q 427 274 427 446 q 438 203 427 225 q 483 180 448 180 q 535 196 498 180 q 595 211 573 211 q 627 175 627 211 q 550 91 627 140 q 448 10 473 43 q 377 -51 399 -51 q 341 -23 354 -51 q 262 66 313 39 q 144 182 190 105 q 98 385 98 258 z "},"":{"ha":767,"x_min":90,"x_max":676,"o":"m 110 19 q 100 25 110 19 q 90 57 90 31 q 124 136 90 83 q 170 227 158 189 q 182 323 182 266 q 137 415 182 380 q 92 488 92 450 q 119 536 92 506 q 150 575 146 566 q 170 689 153 585 q 223 845 186 793 q 317 924 259 896 q 441 952 374 952 l 463 952 q 588 921 526 952 q 651 850 651 890 q 595 805 651 805 q 539 815 583 805 q 473 825 496 825 q 356 782 397 825 q 316 662 316 739 q 354 562 316 585 q 463 534 363 556 q 530 488 530 519 q 503 444 530 460 q 437 424 500 442 q 354 381 374 405 q 319 296 334 357 q 304 194 304 235 q 334 139 304 153 q 480 125 364 125 q 629 116 595 125 q 676 67 676 102 q 530 0 676 0 l 485 0 l 262 7 l 177 6 q 110 19 129 6 z "},"":{"ha":808,"x_min":91,"x_max":720,"o":"m 411 690 l 393 690 q 276 636 321 690 q 230 502 230 582 l 230 489 q 275 357 230 411 q 389 304 321 304 l 413 304 q 526 359 479 304 q 572 486 572 414 l 572 511 q 522 640 572 589 q 411 690 471 690 m 252 230 q 195 197 231 230 q 143 164 160 164 q 109 184 126 164 q 91 215 91 203 q 124 267 91 227 q 158 321 158 307 q 142 385 158 336 q 126 485 126 433 q 142 586 126 536 q 157 638 157 635 q 126 707 157 665 q 94 760 94 749 q 112 792 94 772 q 143 812 130 812 q 191 782 157 812 q 258 753 224 753 q 290 762 262 753 q 344 777 318 771 q 412 783 370 783 q 505 768 454 783 q 559 753 556 753 q 617 782 581 753 q 668 811 654 811 q 702 792 683 811 q 720 755 720 772 q 684 707 720 749 q 648 647 648 666 q 661 593 648 643 q 674 501 674 543 q 666 432 674 460 q 647 378 658 405 q 636 332 636 351 q 671 271 636 314 q 706 220 706 228 q 690 193 706 212 q 661 174 675 174 q 612 205 648 174 q 547 237 576 237 q 498 221 539 236 q 404 206 456 206 q 304 218 351 206 q 252 230 258 230 z "},"":{"ha":779,"x_min":73,"x_max":709,"o":"m 680 939 q 709 914 709 939 l 709 899 q 680 833 709 888 q 560 548 560 602 q 585 498 560 530 q 610 448 610 465 q 556 394 610 418 q 502 338 502 371 q 565 299 502 319 q 629 256 629 278 q 593 212 629 226 l 573 208 l 553 205 l 532 201 q 480 177 501 195 q 459 102 459 160 q 448 22 459 43 q 398 1 437 1 l 376 1 q 332 22 342 1 q 319 97 322 42 q 302 172 315 153 q 221 207 290 191 q 153 256 153 222 q 217 303 153 284 q 280 351 280 321 q 225 400 280 370 q 170 450 170 429 q 193 500 170 465 q 216 547 216 534 q 144 739 216 588 q 73 895 73 889 q 123 938 73 938 q 219 871 174 938 q 311 691 235 848 q 398 534 387 534 q 482 694 404 534 q 578 883 559 855 q 680 939 616 939 z "},"":{"ha":376,"x_min":123,"x_max":239,"o":"m 123 578 l 123 982 q 134 1023 123 1013 q 181 1032 144 1032 l 199 1032 q 235 1006 231 1032 q 238 865 238 993 l 238 654 l 239 629 l 239 585 q 231 536 239 547 q 197 525 222 525 l 185 524 l 156 524 q 123 578 123 524 m 123 -104 l 123 294 q 133 336 123 326 q 191 347 143 347 l 197 346 q 233 332 227 346 q 239 281 239 319 l 239 -104 q 229 -152 239 -140 q 176 -163 219 -163 l 165 -163 q 131 -152 139 -163 q 123 -104 123 -140 z "},"":{"ha":696,"x_min":100,"x_max":596,"o":"m 214 493 l 214 482 q 319 370 214 412 q 385 339 355 354 q 424 325 414 325 l 437 325 q 468 343 454 325 q 482 402 482 362 q 444 480 482 442 q 293 585 340 585 l 283 585 q 238 558 261 585 q 214 493 214 531 m 357 833 q 248 753 248 833 q 296 680 248 716 q 405 625 309 670 q 538 544 501 579 q 596 425 596 489 l 596 404 q 563 299 596 355 q 530 241 530 244 q 549 191 530 237 q 569 100 569 144 q 501 -40 569 13 q 337 -93 433 -93 q 175 -58 241 -93 q 108 19 108 -24 q 149 62 108 62 q 217 39 154 62 q 329 16 280 16 q 408 37 378 16 q 437 92 437 58 q 387 180 437 145 q 325 213 372 191 q 265 242 277 236 q 152 319 186 282 q 100 439 100 373 l 100 459 q 133 551 100 510 q 165 597 165 593 q 138 653 165 602 q 111 747 111 705 q 173 887 111 831 q 333 943 235 943 l 354 943 q 484 911 427 943 q 540 848 540 879 q 502 799 540 799 q 444 816 492 799 q 357 833 396 833 z "},"":{"ha":568,"x_min":66,"x_max":477,"o":"m 109 795 q 68 838 68 795 q 67 846 67 844 l 66 857 l 66 880 q 111 940 66 940 l 113 941 l 116 941 l 136 943 l 149 943 q 208 900 208 943 q 210 890 210 894 l 212 877 l 212 856 l 209 838 q 169 796 209 796 l 157 793 l 138 792 l 131 792 l 121 793 l 116 793 q 109 795 111 795 m 414 943 q 473 905 473 943 q 475 892 475 897 l 477 874 l 477 861 l 476 848 l 473 833 q 431 795 473 795 l 429 795 l 427 794 l 404 792 l 396 792 l 386 793 l 381 793 q 374 795 377 795 q 335 833 335 795 q 332 846 332 842 l 331 861 l 331 875 l 332 888 l 335 903 q 379 941 335 941 l 382 941 l 384 942 l 401 943 l 414 943 z "},"":{"ha":1019,"x_min":71,"x_max":942,"o":"m 494 120 l 519 120 q 522 120 520 120 q 654 148 589 120 q 826 342 779 200 q 850 494 850 411 l 849 507 q 821 666 849 593 q 500 876 739 876 q 496 876 498 876 q 365 849 427 876 q 187 664 239 796 q 158 513 158 590 l 158 488 l 159 475 q 182 346 159 415 q 358 149 230 203 q 494 120 426 120 m 497 679 q 386 484 386 679 q 513 315 386 315 q 586 335 541 315 q 648 354 632 354 q 680 322 680 354 q 627 259 680 290 q 519 228 573 228 l 496 228 q 414 248 456 228 q 298 480 298 304 l 298 505 q 424 749 298 692 q 499 766 462 766 l 522 766 q 627 736 579 766 q 674 666 674 706 q 637 637 674 637 q 582 658 629 637 q 497 679 534 679 m 519 39 l 490 39 q 323 73 406 39 q 96 326 156 143 q 71 500 71 404 q 102 682 71 597 q 327 922 163 854 q 493 956 408 956 l 523 956 q 690 921 608 956 q 916 669 855 852 q 942 496 942 591 l 941 481 q 908 303 941 389 q 673 67 842 132 q 519 39 600 39 z "},"":{"ha":546,"x_min":68,"x_max":454,"o":"m 258 732 q 199 708 224 732 q 175 655 175 684 l 173 642 l 173 633 q 218 584 173 584 l 245 584 q 300 605 274 584 q 327 654 327 627 q 330 670 330 665 l 332 697 l 332 711 q 314 729 332 729 q 306 730 309 730 l 296 732 l 280 732 l 272 732 l 258 732 m 256 972 l 267 972 l 278 971 q 418 909 374 971 q 446 720 446 869 q 449 620 446 642 l 452 602 q 454 557 454 578 q 401 514 454 514 q 361 525 381 514 q 332 536 342 536 q 282 519 323 536 q 210 503 241 503 l 200 503 q 104 540 141 503 q 68 629 68 576 l 68 640 q 125 743 68 701 q 184 769 153 763 q 254 781 216 776 q 301 789 292 786 q 321 827 321 796 q 241 888 321 888 l 239 888 q 183 879 223 888 q 136 869 144 869 q 100 903 100 869 q 150 951 100 931 q 256 972 200 972 z "},"":{"ha":766,"x_min":62,"x_max":665,"o":"m 385 636 q 241 446 385 608 q 193 388 193 392 q 290 274 193 383 q 387 132 387 165 q 349 93 387 93 q 264 146 317 93 q 62 385 62 349 q 190 546 62 411 q 341 682 317 682 l 348 682 q 385 636 385 682 m 665 141 q 625 98 665 98 l 618 98 q 468 230 593 98 q 344 387 344 362 q 470 545 344 412 q 621 678 595 678 l 629 678 q 664 638 664 678 q 578 509 664 612 l 474 386 q 522 331 474 385 l 578 269 q 665 141 665 171 z "},"":{"ha":780,"x_min":78,"x_max":694,"o":"m 627 502 q 681 487 667 502 q 694 418 694 473 l 694 409 l 693 372 q 693 353 693 362 l 692 343 l 692 325 q 688 197 692 213 q 659 182 684 182 l 650 182 q 595 203 612 182 q 578 278 578 224 q 538 385 578 370 q 328 390 524 390 q 111 395 133 390 q 78 447 78 402 q 95 497 78 492 q 384 501 113 501 l 496 502 l 627 502 z "},"":{"ha":600,"x_min":79,"x_max":517,"o":"m 480 343 l 121 343 q 79 379 79 343 l 79 395 q 106 454 79 448 q 307 456 112 456 l 416 456 l 465 456 q 517 425 517 456 l 517 399 q 480 343 517 343 z "},"":{"ha":977,"x_min":55,"x_max":875,"o":"m 550 694 q 548 716 548 703 q 529 748 548 730 q 488 767 511 767 l 469 769 l 425 769 q 392 762 396 769 q 389 713 389 754 l 389 657 l 388 645 q 420 602 388 602 l 450 602 l 453 603 l 481 605 q 488 606 485 606 q 529 625 510 606 q 549 667 549 644 l 550 674 l 550 694 m 453 222 l 476 222 q 595 245 534 222 q 768 428 718 292 q 793 570 793 496 l 793 594 q 768 733 793 665 q 703 844 743 800 q 603 915 663 888 q 473 942 543 942 l 450 942 q 333 920 393 942 q 227 850 273 898 q 158 735 182 803 q 134 606 134 667 l 134 558 q 159 429 134 496 q 323 250 205 304 q 453 222 383 222 m 429 838 l 471 838 q 633 686 633 838 q 577 579 633 629 q 557 552 557 561 q 601 455 557 544 q 646 361 646 366 q 610 347 646 347 q 554 374 574 347 q 518 441 545 387 q 474 514 491 495 q 428 534 456 534 q 394 518 399 534 q 388 442 388 503 q 378 362 388 381 q 334 344 368 344 q 300 377 300 344 l 300 435 l 300 446 l 300 598 q 304 817 300 806 q 429 838 313 838 m 55 595 q 85 766 56 684 q 302 991 146 930 q 446 1021 378 1021 l 475 1021 q 629 990 556 1021 q 755 909 703 960 q 841 775 807 859 q 875 601 875 692 l 875 572 q 844 402 875 484 q 760 265 813 320 q 629 179 707 210 q 479 147 552 147 l 450 147 q 294 179 370 147 q 88 393 146 240 q 55 567 55 481 l 55 595 z "},"":{"ha":572,"x_min":68,"x_max":507,"o":"m 104 804 q 68 828 68 804 l 68 853 q 80 892 68 885 q 132 900 92 900 l 137 899 l 291 899 q 490 897 481 899 q 507 866 507 893 l 507 856 q 464 804 507 804 l 406 804 l 401 805 l 231 805 l 210 804 l 104 804 z "},"":{"ha":549,"x_min":81,"x_max":469,"o":"m 168 770 q 198 692 168 722 q 266 663 228 663 l 281 663 q 348 692 318 663 q 378 774 378 722 l 378 781 l 377 785 l 377 793 q 376 804 376 800 q 345 866 376 840 q 277 893 314 893 l 270 893 q 201 866 233 893 q 170 800 170 839 l 169 793 l 168 778 l 168 770 m 266 972 l 286 972 q 411 922 353 972 q 469 788 469 873 l 469 768 q 412 637 469 690 q 283 584 355 584 l 257 584 q 134 637 187 584 q 81 761 81 690 l 81 787 q 134 915 81 857 q 266 972 186 972 z "},"":{"ha":760,"x_min":85,"x_max":666,"o":"m 85 489 l 85 510 q 111 554 85 546 q 215 558 125 558 q 312 566 306 558 q 319 662 319 574 q 328 763 319 749 q 382 777 337 777 l 393 777 q 427 759 421 777 q 432 655 432 741 q 444 562 432 568 q 542 559 448 559 q 651 553 635 559 q 666 509 666 548 q 647 461 666 470 q 538 452 627 452 q 440 444 449 452 q 431 352 431 436 q 423 253 431 267 q 380 239 414 239 l 358 239 q 326 252 332 239 q 319 353 319 264 q 303 450 319 442 q 210 452 299 452 q 109 455 121 452 q 85 489 85 461 m 416 53 l 301 53 q 110 57 132 53 q 87 99 87 60 l 88 106 l 88 113 q 120 160 88 155 q 327 163 140 163 l 435 163 l 442 163 l 635 161 q 663 124 663 161 l 663 111 q 661 91 661 97 q 633 58 661 62 q 416 53 606 53 z "},"":{"ha":541,"x_min":90,"x_max":441,"o":"m 182 474 q 103 481 117 474 q 90 515 90 488 q 138 616 90 559 q 224 700 153 633 q 313 793 294 766 q 332 854 332 821 q 260 918 332 918 q 192 897 237 918 q 126 875 146 875 q 98 911 98 875 q 151 979 98 947 q 258 1010 205 1010 l 283 1010 q 396 968 354 1010 q 438 864 438 926 q 395 746 438 803 q 298 651 372 715 q 223 573 223 587 q 309 559 223 559 q 418 552 395 559 q 441 515 441 545 l 441 505 q 409 477 441 481 q 267 475 387 475 l 231 474 l 182 474 z "},"":{"ha":541,"x_min":95,"x_max":444,"o":"m 263 1008 l 289 1008 q 382 979 351 1008 q 414 895 414 950 q 374 791 414 839 q 357 767 357 771 q 378 747 357 762 q 444 633 444 699 l 444 621 q 392 512 444 556 q 260 469 340 469 l 248 469 q 141 494 186 469 q 95 551 95 519 q 132 582 95 582 q 195 570 150 582 q 270 559 239 559 q 320 581 301 559 q 340 631 339 601 q 250 711 340 696 q 200 753 200 720 q 256 800 200 771 q 313 870 313 829 q 235 920 313 920 q 177 913 217 920 q 134 907 137 907 q 109 932 109 907 q 156 983 109 958 q 263 1008 204 1008 z "},"":{"ha":458,"x_min":112,"x_max":368,"o":"m 157 773 l 139 773 q 112 791 112 773 l 112 801 q 222 965 112 839 q 304 1001 254 1001 l 321 1001 q 368 975 368 1001 l 368 966 q 247 825 368 932 q 157 773 189 773 z "},"":{"ha":761,"x_min":96,"x_max":675,"o":"m 101 633 q 159 683 109 683 q 222 622 208 683 q 228 407 228 598 q 249 171 228 216 q 363 93 285 93 q 364 93 363 93 q 502 172 457 93 q 525 394 525 213 q 538 613 525 575 q 600 670 557 670 q 654 627 642 670 q 661 436 661 600 q 665 232 661 272 q 672 165 669 192 q 675 124 675 139 l 675 106 q 655 47 675 66 q 610 27 635 27 q 558 37 585 27 q 517 47 530 47 q 479 39 503 47 l 463 33 q 416 18 436 23 q 328 12 396 12 q 245 -9 260 12 q 227 -99 231 -31 q 208 -202 223 -167 q 156 -238 193 -238 q 105 -202 119 -238 q 96 -106 96 -179 l 96 62 l 97 84 l 97 149 l 98 191 l 98 254 q 101 633 98 612 z "},"":{"ha":806,"x_min":87,"x_max":699,"o":"m 87 671 l 87 695 q 113 810 87 755 q 184 896 139 865 q 292 941 230 927 q 484 954 355 954 l 509 954 q 668 942 638 954 q 699 901 699 929 l 699 884 q 692 830 699 864 q 679 749 686 795 q 672 356 672 703 q 671 3 672 9 q 629 -44 667 -44 q 591 -3 602 -44 q 581 181 581 37 l 579 226 l 578 271 l 578 397 q 575 594 578 479 l 572 664 l 572 688 q 563 768 572 758 q 522 779 553 779 q 481 765 490 779 q 473 661 473 750 q 446 121 473 401 q 428 6 437 33 q 395 -21 420 -21 q 360 5 370 -21 q 355 91 355 20 l 353 182 q 325 356 353 298 q 243 449 296 414 q 129 542 153 507 q 87 671 87 601 z "},"":{"ha":401,"x_min":112,"x_max":285,"o":"m 112 446 q 176 521 112 521 l 194 523 l 216 523 q 282 467 282 523 l 284 455 l 284 449 l 285 440 l 285 434 q 220 353 285 353 l 202 351 l 180 351 l 161 353 q 115 404 115 353 q 113 412 113 410 l 112 425 l 112 446 z "},"":{"ha":456,"x_min":115,"x_max":347,"o":"m 115 -250 l 115 -241 q 158 -214 115 -220 q 220 -196 201 -208 q 238 -160 238 -184 q 201 -117 238 -135 q 165 -63 165 -98 q 186 1 165 -28 q 217 13 195 13 l 222 13 l 228 12 l 233 12 q 258 -22 258 12 q 303 -74 258 -44 q 347 -151 347 -103 l 347 -168 q 310 -245 347 -208 q 210 -283 273 -283 l 199 -283 l 194 -282 q 115 -250 115 -282 z "},"":{"ha":454,"x_min":98,"x_max":333,"o":"m 255 466 l 231 466 q 177 484 199 466 q 156 534 156 502 q 184 625 156 566 q 195 731 195 650 q 188 835 195 812 q 147 858 181 858 q 98 892 98 858 l 98 897 q 135 939 98 916 q 249 996 224 996 l 256 996 q 295 969 290 996 q 298 809 298 952 q 300 653 298 666 q 318 609 302 640 q 333 542 333 578 l 333 534 q 307 480 333 507 q 255 466 292 466 z "},"":{"ha":562,"x_min":61,"x_max":479,"o":"m 170 748 l 170 718 q 195 608 170 645 q 258 572 221 572 l 268 572 q 336 607 305 572 q 367 690 367 642 q 368 704 368 700 l 370 713 l 370 728 l 370 754 l 369 768 l 368 787 q 338 864 368 831 q 272 897 309 897 l 262 897 l 258 897 q 192 851 215 897 q 170 748 170 806 m 61 709 l 61 749 q 120 913 61 854 q 259 972 179 972 l 291 972 q 369 953 329 972 q 433 902 408 934 q 479 751 479 840 l 479 718 q 478 694 478 702 q 419 546 478 605 q 272 487 360 487 l 264 487 q 117 546 172 487 q 61 709 61 606 z "},"":{"ha":766,"x_min":92,"x_max":689,"o":"m 134 678 q 283 539 160 678 q 407 388 407 400 q 283 236 407 375 q 134 97 160 97 l 127 97 q 92 135 92 97 q 188 273 92 165 q 283 386 283 380 q 187 500 283 393 q 92 633 92 608 l 92 639 q 134 678 92 678 m 411 683 q 561 547 432 683 q 689 393 689 411 q 564 234 689 375 q 414 93 438 93 l 407 93 q 370 131 370 93 l 370 137 q 467 271 370 161 q 564 387 564 380 q 468 502 564 387 q 371 650 371 616 q 411 683 371 683 z "},"":{"ha":1082,"x_min":132,"x_max":1006,"o":"m 714 198 l 787 198 q 821 214 821 198 l 821 283 l 820 286 l 820 369 l 821 382 l 821 391 q 819 416 821 416 q 751 311 817 416 q 686 205 686 207 l 686 203 q 714 198 686 198 m 262 423 l 239 423 q 210 438 226 423 q 194 485 194 452 q 202 542 194 517 q 216 598 210 567 q 223 705 223 630 q 213 800 223 780 q 170 824 208 810 q 132 861 132 839 l 132 866 q 168 913 132 887 q 281 966 241 966 l 294 966 q 324 933 319 966 q 325 854 325 928 l 323 831 l 323 815 l 322 766 l 322 751 l 321 718 l 321 694 q 323 614 321 638 q 334 563 325 591 q 344 494 344 534 q 326 438 344 453 q 262 423 309 423 m 783 954 l 794 954 q 840 926 840 954 q 378 97 840 913 q 283 -7 319 -7 l 272 -7 q 225 20 225 -7 q 248 72 225 30 q 712 890 534 592 q 783 954 750 954 m 690 109 q 598 142 598 109 l 598 149 q 618 210 598 176 q 795 468 698 345 q 879 526 840 526 l 887 526 q 932 510 925 526 q 939 365 939 494 q 945 218 939 235 q 979 191 951 200 q 1006 150 1006 182 l 1006 142 q 966 102 1006 117 q 940 53 940 93 q 930 -2 940 14 q 892 -18 920 -18 l 876 -18 q 842 -6 851 -18 q 833 46 833 7 q 821 96 833 85 q 758 106 810 106 l 707 109 l 690 109 z "},"":{"ha":1109,"x_min":107,"x_max":1019,"o":"m 331 505 l 331 490 q 312 438 331 454 q 252 423 292 423 l 244 423 q 188 443 205 423 q 171 493 171 463 q 194 596 171 523 q 203 708 203 626 q 191 809 203 790 q 148 826 188 814 q 107 864 107 838 l 107 869 q 146 916 107 889 q 263 971 230 971 q 302 944 296 971 q 305 782 305 927 q 307 621 305 636 q 319 571 308 606 q 331 505 331 536 m 773 970 l 785 970 q 829 949 829 970 q 368 83 829 897 q 279 -8 315 -8 l 269 -8 q 224 12 224 -8 l 224 22 q 696 899 224 66 q 773 970 737 970 m 840 545 l 866 545 q 977 499 936 545 q 1017 392 1017 453 q 980 282 1017 332 q 872 173 943 233 q 802 98 802 112 q 890 83 802 83 q 999 74 979 83 q 1019 34 1019 64 q 991 -2 1019 4 q 823 -8 963 -8 l 798 -8 l 773 -9 q 681 -2 701 -9 q 661 28 661 4 l 661 39 q 784 213 661 104 q 906 380 906 322 q 888 429 906 411 q 841 448 869 448 q 767 426 813 448 q 697 404 722 404 q 673 444 673 404 q 729 515 673 484 q 840 545 785 545 z "},"":{"ha":1143,"x_min":122,"x_max":1079,"o":"m 815 195 l 861 195 q 904 212 904 195 l 904 309 l 903 313 l 903 319 q 897 408 903 408 q 868 363 894 408 q 828 300 842 317 q 806 263 815 283 q 787 233 796 243 q 775 218 777 222 q 767 207 772 214 q 762 199 762 201 l 762 198 q 815 195 762 195 m 292 434 l 267 434 q 166 458 211 434 q 122 512 122 481 q 168 549 122 549 q 222 539 180 549 q 294 528 264 528 q 346 545 323 528 q 369 595 369 562 q 279 675 369 660 q 229 715 229 684 q 288 764 229 736 q 346 838 346 791 q 325 874 346 861 q 262 888 304 888 l 170 874 q 140 904 140 874 q 193 958 140 934 q 302 981 245 981 l 315 981 q 410 954 377 981 q 443 866 443 926 q 402 757 443 806 q 387 731 387 739 q 408 715 387 730 q 469 606 469 672 l 469 593 q 416 479 469 525 q 292 434 362 434 m 867 970 q 924 950 924 970 q 444 90 924 918 q 353 -3 389 -3 q 296 18 296 -3 l 296 26 q 328 90 296 33 q 801 918 639 657 q 867 970 833 970 m 943 531 l 969 531 q 1007 507 1002 531 q 1010 367 1010 493 q 1017 224 1010 240 q 1051 198 1023 208 q 1079 165 1079 189 l 1079 157 q 1038 111 1079 123 q 1010 58 1010 102 q 999 1 1010 14 q 956 -12 988 -12 l 948 -12 q 917 0 925 -12 q 907 79 907 14 q 890 109 907 102 q 792 115 873 115 q 695 118 710 115 q 669 146 669 124 l 669 154 q 852 453 669 197 q 943 531 907 531 z "},"":{"ha":674,"x_min":75,"x_max":581,"o":"m 454 751 l 454 729 l 453 718 l 451 703 q 411 657 451 657 l 400 655 l 395 655 l 387 654 l 378 654 l 376 655 l 370 655 q 308 673 322 655 q 293 722 293 690 l 291 740 l 291 763 q 293 777 293 771 q 357 821 293 821 l 381 821 l 401 819 q 454 751 454 819 m 75 62 l 75 87 q 193 313 75 208 q 288 405 271 382 q 313 478 304 428 q 330 537 322 528 q 369 547 338 547 q 413 532 401 547 q 426 469 426 517 q 326 280 426 373 q 248 192 271 230 q 224 99 224 153 q 262 11 224 45 q 369 -24 300 -24 q 461 -2 392 -24 q 536 19 530 19 q 581 -36 581 19 q 502 -116 581 -79 q 342 -153 423 -153 l 315 -153 q 97 -31 159 -153 q 75 62 75 11 z "},"":{"ha":863,"x_min":48,"x_max":801,"o":"m 371 385 l 468 385 q 554 408 554 385 q 543 461 554 422 q 528 515 531 500 q 461 717 503 629 q 416 806 420 806 q 379 732 412 806 q 313 543 347 659 q 279 409 279 427 l 279 404 q 371 385 279 385 m 250 1226 l 250 1233 q 301 1266 250 1266 l 309 1266 q 319 1265 315 1265 q 404 1228 361 1265 q 519 1072 519 1127 q 484 1047 519 1047 l 480 1047 l 476 1048 q 340 1118 430 1048 q 250 1226 250 1188 m 801 60 l 801 47 q 769 20 801 20 l 756 20 q 676 61 707 20 q 630 162 661 82 q 586 254 599 242 q 451 275 562 275 l 401 274 q 367 273 384 273 q 250 248 275 273 q 207 159 234 233 q 168 68 180 86 q 94 23 139 23 q 48 45 48 23 l 48 56 q 145 406 48 79 q 277 817 243 732 q 338 932 311 902 q 411 962 365 962 l 427 962 q 503 936 475 962 q 574 808 531 910 q 709 397 617 706 q 801 60 801 88 z "},"":{"ha":861,"x_min":51,"x_max":797,"o":"m 310 399 l 351 399 l 357 399 l 418 400 q 555 420 555 400 l 555 425 q 517 576 555 450 q 453 761 480 703 q 423 819 426 819 l 420 819 q 378 735 417 819 q 308 540 338 652 q 277 418 277 429 l 277 414 q 310 399 277 399 m 367 1034 l 352 1034 q 326 1057 326 1034 l 326 1061 q 441 1214 326 1111 q 528 1253 485 1253 l 534 1254 l 545 1254 q 592 1226 592 1254 l 592 1217 q 498 1107 592 1180 q 367 1034 404 1034 m 797 67 q 751 26 797 26 q 674 66 705 26 q 627 165 659 86 q 585 255 595 245 q 425 276 562 276 q 263 261 288 276 q 208 165 239 247 q 161 65 177 83 q 92 31 134 31 q 51 52 51 31 l 51 63 q 97 243 51 92 q 284 838 258 772 q 337 932 310 903 q 409 962 365 962 l 425 962 q 506 930 479 962 q 586 778 533 899 q 718 369 638 656 q 797 67 797 82 z "},"":{"ha":862,"x_min":48,"x_max":802,"o":"m 554 408 l 554 417 q 545 459 554 431 q 530 518 536 488 q 444 763 504 633 q 419 808 422 808 q 393 760 415 808 q 306 515 334 634 q 290 454 298 481 q 281 414 281 426 l 281 409 q 342 391 281 391 l 378 391 l 384 392 l 426 392 q 554 408 554 392 m 418 1253 l 430 1253 q 500 1223 469 1253 q 626 1063 626 1108 l 626 1059 q 583 1042 626 1042 q 494 1087 539 1042 q 421 1158 424 1158 q 352 1086 418 1158 q 268 1038 309 1038 l 262 1038 q 218 1061 218 1038 q 344 1219 218 1103 q 418 1253 381 1253 m 83 22 q 48 43 48 22 l 48 55 q 154 426 48 79 q 284 836 259 772 q 338 930 310 900 q 420 961 367 961 q 501 936 473 961 q 572 811 529 911 q 708 398 614 712 q 802 58 802 84 q 754 18 802 18 q 676 59 707 18 q 631 159 659 83 q 583 255 603 236 q 452 273 563 273 l 384 272 q 250 247 275 272 q 208 159 236 233 q 169 66 180 84 q 83 22 140 22 z "},"":{"ha":862,"x_min":52,"x_max":800,"o":"m 535 397 q 558 412 558 397 l 558 422 q 449 761 558 511 q 421 816 425 816 q 374 725 416 816 q 306 527 332 635 q 281 416 281 419 q 423 396 281 396 l 484 395 l 502 395 l 507 395 l 525 396 q 535 397 531 397 m 646 1171 l 646 1160 q 610 1089 646 1122 q 532 1056 574 1056 q 423 1086 491 1056 q 333 1116 355 1116 q 282 1090 312 1116 q 229 1065 252 1065 q 201 1101 201 1065 l 201 1107 l 201 1113 q 240 1182 201 1149 q 315 1215 278 1215 l 338 1215 q 433 1184 359 1215 q 523 1154 507 1154 q 567 1178 538 1154 q 618 1202 596 1202 q 646 1171 646 1202 m 800 64 l 800 52 q 769 24 800 24 l 756 24 q 677 66 709 24 q 631 166 659 90 q 585 260 604 242 q 454 277 566 277 l 404 276 q 370 275 387 275 q 252 251 277 275 q 205 158 237 237 q 171 74 174 79 q 86 28 142 28 q 52 48 52 28 l 52 60 q 150 411 52 84 q 280 821 247 738 q 342 934 313 905 q 412 963 370 963 l 429 963 q 503 939 476 963 q 572 816 529 915 q 707 405 614 717 q 800 64 800 94 z "},"":{"ha":856,"x_min":35,"x_max":790,"o":"m 492 392 q 524 394 508 394 q 541 410 541 394 l 541 414 q 508 547 541 429 q 442 740 475 665 q 406 815 409 815 q 373 754 402 815 q 306 562 345 692 q 268 412 268 431 l 268 408 q 402 393 268 393 l 456 392 l 492 392 m 212 1145 q 254 1213 212 1213 q 265 1216 263 1216 l 281 1217 l 296 1217 l 309 1216 l 323 1213 q 355 1175 355 1213 l 356 1170 l 358 1149 l 358 1136 l 357 1134 q 357 1128 357 1131 l 353 1106 q 319 1074 353 1074 l 307 1072 l 290 1069 l 274 1069 l 272 1070 l 254 1072 q 250 1073 252 1073 q 216 1109 216 1073 q 214 1117 214 1116 l 213 1127 l 213 1132 l 212 1143 l 212 1145 m 475 1153 l 476 1166 q 520 1208 476 1208 q 527 1210 524 1210 l 537 1211 l 562 1211 q 612 1167 612 1211 q 614 1160 614 1163 l 615 1146 l 615 1128 l 612 1107 q 574 1064 612 1064 q 563 1061 565 1061 l 545 1060 l 538 1060 q 488 1072 503 1060 q 473 1132 473 1084 l 473 1143 l 475 1153 m 790 63 l 790 50 q 744 22 790 22 q 666 64 697 22 q 619 165 650 85 q 576 257 588 245 q 414 278 553 278 q 251 265 275 278 q 192 165 227 252 q 147 66 158 79 q 76 30 117 30 q 35 50 35 30 l 35 61 q 139 428 35 88 q 271 836 242 768 q 327 935 300 904 q 398 965 355 965 l 415 965 q 498 932 469 965 q 647 567 562 858 q 761 188 732 276 q 790 63 790 99 z "},"":{"ha":871,"x_min":33,"x_max":795,"o":"m 349 1184 q 367 1141 349 1163 q 416 1120 384 1120 l 421 1120 l 423 1120 l 428 1120 l 437 1122 q 466 1137 447 1122 q 485 1173 485 1152 l 487 1187 l 487 1199 q 484 1219 484 1209 q 466 1245 484 1228 q 427 1263 449 1263 l 408 1263 q 369 1245 387 1263 q 351 1211 351 1227 l 349 1196 l 349 1184 m 271 438 l 271 428 q 344 407 271 407 l 486 407 q 554 432 554 407 l 553 437 l 553 442 q 543 488 553 452 q 529 543 533 525 q 462 745 504 654 q 414 836 420 836 q 331 666 391 836 q 271 438 271 496 m 409 1325 l 432 1325 q 521 1288 484 1325 q 559 1201 559 1250 l 559 1183 q 518 1095 559 1131 q 418 1058 477 1058 l 414 1059 l 404 1059 q 391 1060 395 1060 q 315 1096 351 1060 q 279 1173 279 1133 l 277 1182 l 277 1200 q 279 1214 279 1210 q 318 1290 279 1254 q 409 1325 357 1325 m 795 81 l 795 68 q 751 37 795 37 q 675 79 707 37 q 629 183 663 95 q 576 283 595 271 q 409 303 545 303 q 245 281 273 303 q 197 189 225 266 q 153 87 170 111 q 78 44 124 44 q 33 65 33 44 q 117 398 33 86 q 243 810 201 709 q 326 956 284 910 q 412 987 354 987 q 507 953 469 987 q 589 809 544 919 q 715 403 635 699 q 795 81 795 106 z "},"":{"ha":1191,"x_min":83,"x_max":1084,"o":"m 429 397 q 472 391 436 397 l 497 391 q 543 399 536 391 q 551 430 551 408 l 551 457 l 550 472 q 547 500 547 499 l 553 644 l 554 651 l 556 692 q 556 705 556 699 l 557 737 l 559 765 l 559 806 q 551 826 559 826 q 469 738 516 826 q 414 604 422 649 q 367 488 406 559 q 329 410 329 416 l 329 407 q 347 401 329 401 l 386 404 l 429 397 m 953 945 q 1070 899 1070 945 q 1016 855 1070 869 q 890 842 982 846 q 774 826 798 840 q 723 695 723 796 q 754 576 723 595 q 885 554 786 557 q 998 548 983 552 q 1031 502 1031 539 q 1013 453 1031 465 q 893 434 995 442 q 757 398 791 427 q 723 292 723 370 q 771 144 723 168 q 904 125 799 130 q 1037 114 1009 121 q 1084 66 1084 100 q 1056 30 1084 41 q 956 18 1027 18 l 929 18 l 902 19 q 642 65 724 19 q 603 101 612 82 q 584 178 593 121 q 552 257 574 236 q 469 279 531 279 q 302 245 353 279 q 236 158 278 230 q 181 73 193 85 q 116 39 150 39 q 83 66 83 39 q 281 585 83 132 q 429 861 367 781 q 527 923 464 906 q 734 939 590 939 l 899 945 l 953 945 z "},"":{"ha":841,"x_min":60,"x_max":763,"o":"m 229 475 q 282 216 229 296 q 436 136 334 136 q 597 174 484 136 q 725 213 711 213 q 763 167 763 213 l 763 153 q 732 96 763 134 q 651 33 702 58 q 460 -15 558 -15 q 283 22 361 -15 q 89 252 134 92 q 60 463 60 354 l 60 509 q 169 861 60 736 q 318 958 223 924 q 481 979 379 979 q 649 941 583 979 q 751 844 715 903 q 762 794 762 827 q 714 751 762 751 q 602 795 696 751 q 444 840 507 840 q 340 815 380 840 q 229 475 229 747 m 336 -273 l 336 -260 q 379 -234 336 -241 q 438 -219 422 -228 q 454 -184 454 -210 q 422 -136 454 -159 q 390 -81 390 -114 q 447 -16 390 -16 l 457 -16 q 481 -59 475 -16 q 528 -94 483 -67 q 574 -174 574 -120 l 574 -191 q 528 -279 574 -245 q 416 -313 483 -313 l 410 -313 q 336 -273 336 -313 z "},"":{"ha":763,"x_min":104,"x_max":673,"o":"m 226 1221 l 226 1228 q 275 1263 226 1263 l 285 1263 q 366 1233 331 1263 q 473 1110 401 1202 q 491 1064 491 1086 l 490 1061 q 465 1042 490 1042 l 458 1042 l 454 1042 l 450 1042 q 360 1080 409 1042 q 226 1221 226 1185 m 104 133 l 104 201 l 104 224 l 106 386 l 106 456 l 108 549 l 108 596 l 105 759 l 104 782 q 104 827 104 804 q 135 932 104 912 q 391 963 183 963 l 484 963 q 618 958 592 963 q 659 918 659 949 q 602 861 659 874 q 443 849 579 855 q 288 829 307 843 q 252 700 252 802 q 288 582 252 598 q 446 562 332 562 q 579 554 560 562 q 598 508 598 547 q 582 455 598 470 q 484 440 565 440 q 282 416 313 440 q 252 276 252 393 q 294 140 252 160 q 458 126 322 126 q 633 113 593 126 q 673 65 673 100 q 635 19 673 30 q 477 12 608 12 l 360 12 q 148 31 191 12 q 104 133 104 50 z "},"":{"ha":762,"x_min":110,"x_max":666,"o":"m 534 1249 q 557 1230 557 1249 l 557 1227 l 557 1224 q 469 1106 557 1204 q 352 1008 380 1008 l 349 1008 l 346 1009 q 298 1040 298 1009 l 298 1053 q 328 1114 298 1067 q 421 1216 357 1160 q 494 1249 458 1249 l 503 1250 l 524 1250 q 534 1249 530 1249 m 115 705 q 132 929 115 908 q 395 970 165 970 l 530 970 q 633 960 612 970 q 654 926 654 950 q 599 872 654 884 q 446 861 578 867 q 296 842 314 855 q 262 701 262 817 q 299 601 262 618 q 448 583 337 583 q 577 574 559 583 q 595 523 595 566 q 565 469 595 480 q 432 463 546 463 q 288 439 317 463 q 259 310 259 416 q 285 180 259 203 q 449 157 311 157 q 627 145 587 157 q 666 98 666 133 q 627 53 666 64 q 473 45 600 45 l 336 45 q 151 65 192 45 q 110 164 110 84 l 110 185 l 111 208 l 114 456 l 115 570 q 115 637 115 604 l 115 660 l 115 705 z "},"":{"ha":762,"x_min":103,"x_max":673,"o":"m 555 1042 l 539 1042 q 475 1078 515 1042 q 415 1137 435 1115 q 391 1159 395 1159 q 376 1147 387 1159 q 358 1129 366 1136 q 339 1109 351 1123 q 234 1044 279 1044 l 233 1044 q 188 1063 188 1044 q 188 1063 188 1063 l 188 1068 q 319 1230 188 1109 q 391 1260 352 1260 l 397 1260 q 477 1215 439 1260 q 593 1063 593 1078 l 593 1059 q 555 1042 593 1042 m 107 594 q 123 919 107 899 q 344 960 155 960 l 391 962 l 460 962 l 484 961 q 618 956 594 961 q 659 917 659 948 q 602 859 659 873 q 447 848 571 852 q 304 837 323 844 q 262 793 273 825 q 252 679 252 761 q 290 579 252 597 q 444 561 329 561 q 579 552 559 561 q 599 501 599 544 q 568 446 599 458 q 432 438 549 438 q 283 415 315 438 q 252 284 252 392 q 277 151 252 176 q 419 127 302 127 l 441 126 q 528 125 465 125 q 673 64 673 125 q 639 20 673 29 q 477 10 605 10 l 337 10 q 148 29 192 10 q 103 131 103 47 l 103 175 l 104 199 l 104 222 l 106 407 l 106 454 l 107 548 q 107 594 107 571 z "},"":{"ha":762,"x_min":101,"x_max":669,"o":"m 324 1143 l 324 1125 l 323 1114 l 323 1108 q 321 1100 321 1103 q 284 1057 321 1057 l 280 1055 l 264 1053 l 254 1053 l 252 1054 q 200 1066 216 1054 q 184 1109 184 1079 l 184 1138 l 185 1141 l 185 1157 l 187 1174 q 225 1208 187 1208 l 238 1211 l 256 1213 l 274 1213 l 289 1210 q 324 1143 324 1210 m 444 1131 l 444 1152 l 448 1177 q 517 1216 448 1216 l 520 1216 q 587 1171 587 1216 l 589 1160 q 589 1155 589 1158 l 589 1147 l 589 1137 l 589 1134 l 589 1126 q 587 1114 587 1114 q 543 1070 587 1070 q 536 1069 538 1069 l 523 1067 l 503 1067 l 483 1070 q 444 1131 444 1070 m 391 966 l 414 966 l 437 966 l 460 966 q 616 961 590 966 q 655 920 655 954 q 595 863 655 875 q 437 854 569 858 q 282 833 306 850 q 248 686 248 809 q 288 586 248 604 q 442 568 328 568 q 574 559 555 568 q 593 507 593 550 q 561 452 593 463 q 425 447 545 447 q 277 424 306 447 q 248 284 248 400 q 290 147 248 169 q 450 136 312 136 q 628 123 587 136 q 669 74 669 110 q 629 28 669 38 q 425 21 600 21 l 401 21 l 378 22 q 142 41 182 22 q 101 143 101 60 l 101 165 l 102 211 l 103 280 l 105 418 l 106 488 l 106 558 l 104 674 l 102 812 q 135 937 102 918 q 391 966 185 966 z "},"":{"ha":411,"x_min":39,"x_max":294,"o":"m 294 1049 l 294 1042 q 263 1021 294 1021 l 260 1022 q 163 1072 219 1022 q 39 1215 39 1180 l 39 1225 q 78 1257 39 1257 l 84 1259 l 87 1259 l 91 1258 q 190 1205 149 1258 q 294 1049 294 1072 m 207 31 l 184 31 q 124 49 143 31 q 106 110 106 68 q 116 200 106 151 q 126 296 126 250 l 126 436 l 125 460 l 125 566 l 125 590 q 125 613 125 602 l 123 693 q 112 791 123 726 q 100 867 100 856 l 100 888 q 122 951 100 933 q 195 969 143 969 l 218 969 q 287 876 287 969 q 278 803 287 844 q 269 731 269 762 l 269 689 l 270 665 l 270 571 l 271 547 l 271 441 l 271 417 q 271 316 271 417 q 282 204 271 269 q 294 121 294 139 l 294 111 q 272 47 294 64 q 207 31 251 31 z "},"":{"ha":413,"x_min":106,"x_max":363,"o":"m 145 1015 l 136 1015 q 110 1036 110 1015 l 110 1046 q 219 1208 110 1083 q 316 1256 261 1256 l 319 1256 q 363 1220 363 1256 l 363 1217 q 253 1080 363 1178 q 145 1015 180 1015 m 209 37 l 186 37 q 125 56 144 37 q 106 114 106 75 q 118 207 106 153 q 129 299 129 260 l 130 322 l 130 522 l 130 545 l 130 604 l 129 662 l 129 684 q 127 729 127 707 q 117 798 127 751 q 107 890 107 846 q 128 953 107 935 q 201 970 149 970 l 223 970 q 277 948 260 970 q 294 879 294 926 l 276 738 l 275 716 l 275 505 l 274 481 l 274 317 q 284 205 274 266 q 295 140 295 144 l 295 129 l 294 118 q 269 50 294 72 q 209 37 254 37 z "},"":{"ha":419,"x_min":7,"x_max":401,"o":"m 401 1052 q 347 1027 401 1027 q 271 1067 313 1027 q 236 1100 254 1082 l 203 1133 l 171 1100 q 130 1062 169 1098 q 49 1027 91 1027 q 7 1048 7 1027 l 7 1053 q 130 1215 7 1080 q 205 1251 163 1251 l 210 1251 q 279 1215 246 1251 q 401 1052 401 1082 m 223 966 q 293 884 293 966 q 284 802 293 849 q 276 719 276 754 l 276 637 l 277 613 q 277 566 277 589 l 277 542 l 277 389 l 277 365 l 277 301 q 287 196 277 244 q 297 130 297 149 l 297 109 q 276 45 297 62 q 211 28 255 28 l 188 28 q 125 50 142 28 q 109 109 109 72 q 119 195 109 146 q 130 279 130 244 l 130 336 l 129 360 q 129 383 129 372 l 128 407 l 128 513 l 129 536 l 129 608 l 128 631 q 128 654 128 642 l 127 688 q 117 794 127 733 q 106 862 106 855 l 106 894 q 128 948 106 931 q 201 966 150 966 l 223 966 z "},"":{"ha":416,"x_min":2,"x_max":397,"o":"m 77 1032 l 62 1032 q 23 1047 41 1032 q 5 1088 5 1062 l 3 1105 l 3 1111 l 2 1122 l 3 1126 q 3 1131 3 1128 l 5 1151 q 6 1160 6 1156 q 53 1206 6 1206 l 57 1207 l 72 1208 l 74 1208 q 138 1130 138 1208 l 138 1109 l 136 1086 q 119 1048 136 1065 q 77 1032 103 1032 m 253 1168 q 296 1212 253 1212 l 298 1213 l 301 1213 l 326 1215 l 329 1215 l 332 1215 l 349 1213 q 363 1211 360 1211 q 397 1142 397 1211 l 396 1139 q 383 1083 396 1099 q 328 1066 370 1066 l 315 1066 l 313 1067 l 308 1067 l 300 1067 l 286 1070 q 253 1114 253 1070 l 251 1124 q 251 1129 251 1126 l 250 1137 l 250 1145 l 252 1156 l 252 1160 q 253 1168 253 1166 m 223 972 q 224 972 223 972 q 292 890 292 972 q 292 884 292 887 q 283 808 292 848 q 274 685 274 765 l 274 340 l 275 317 q 286 211 275 274 q 296 140 296 148 l 296 119 q 276 55 296 72 q 199 39 255 39 l 188 39 q 186 39 187 39 q 110 117 110 39 q 121 208 110 156 q 132 331 132 260 l 132 500 q 120 794 132 726 q 107 880 107 863 l 108 890 l 108 901 q 139 962 108 947 q 212 972 158 972 l 223 972 z "},"":{"ha":926,"x_min":45,"x_max":839,"o":"m 273 699 l 273 640 q 296 562 273 582 q 366 545 308 552 q 429 535 423 538 q 445 495 445 527 q 425 450 445 464 q 362 436 419 445 q 290 406 304 427 q 276 266 276 385 q 290 129 276 148 q 381 111 304 111 l 393 111 q 524 129 471 111 q 686 483 686 182 l 686 496 q 509 838 686 785 q 390 852 465 852 l 355 852 q 286 827 298 852 q 273 699 273 803 m 839 470 q 812 276 839 367 q 735 125 786 184 q 439 3 631 3 l 390 1 l 326 0 l 310 0 q 143 27 158 0 q 137 220 137 38 q 132 416 137 402 q 93 440 127 431 q 52 459 58 450 q 45 501 45 469 q 62 544 45 533 q 96 552 65 546 q 132 569 127 559 q 137 625 137 578 l 135 672 l 135 703 l 134 733 l 134 764 l 134 779 q 133 810 133 795 l 132 840 q 130 886 130 871 q 162 949 130 940 q 361 962 203 962 l 393 962 q 591 935 515 962 q 804 715 748 880 q 839 488 839 613 l 839 470 z "},"":{"ha":927,"x_min":106,"x_max":818,"o":"m 583 1052 l 561 1052 q 465 1086 530 1052 q 376 1121 400 1121 q 320 1091 353 1121 q 268 1061 288 1061 q 241 1089 241 1061 l 241 1095 q 278 1177 241 1137 q 351 1217 315 1217 l 362 1217 l 368 1216 q 466 1181 393 1216 q 558 1147 540 1147 q 609 1176 577 1147 q 661 1205 641 1205 q 688 1178 688 1205 q 655 1095 688 1137 q 583 1052 621 1052 m 806 249 q 803 92 806 113 q 765 56 797 56 q 703 74 732 56 q 640 136 674 92 q 548 277 606 180 q 448 439 490 373 q 245 720 266 720 q 234 440 234 720 q 220 106 234 161 q 157 38 203 38 q 114 60 121 38 q 111 129 111 71 l 110 153 q 109 203 109 177 l 109 229 q 109 283 109 256 l 109 365 l 109 475 l 110 503 l 110 655 q 109 751 110 724 l 106 858 q 121 919 106 905 q 160 932 136 932 q 269 885 223 932 q 493 582 315 837 q 673 328 671 328 q 692 545 692 328 l 694 593 l 694 642 q 711 867 694 820 q 775 913 728 913 q 807 899 797 913 q 818 829 818 885 l 817 777 q 815 698 815 724 l 806 486 l 806 249 z "},"":{"ha":938,"x_min":69,"x_max":842,"o":"m 212 515 l 212 470 q 338 144 212 218 q 444 117 385 117 l 455 117 q 639 214 573 117 q 692 481 692 292 l 692 505 q 675 664 692 590 q 631 778 657 738 q 559 842 605 817 q 452 867 514 867 l 441 867 q 262 766 325 867 q 212 515 212 685 m 490 1054 q 341 1152 467 1054 q 281 1236 281 1198 l 281 1240 q 330 1272 281 1272 l 345 1272 q 437 1232 391 1272 q 547 1080 547 1135 l 547 1070 q 519 1053 547 1053 l 500 1053 q 490 1054 494 1054 m 842 516 l 842 469 q 753 130 842 253 q 632 33 711 71 q 464 -5 553 -5 l 448 -5 q 171 109 270 -5 q 95 262 120 167 q 69 461 69 357 l 69 524 q 98 722 69 632 q 174 868 126 811 q 458 983 269 983 l 460 983 q 628 949 555 983 q 814 720 770 883 q 842 516 842 616 z "},"":{"ha":936,"x_min":70,"x_max":840,"o":"m 212 530 l 212 463 q 334 163 212 236 q 429 136 381 136 l 462 136 q 642 238 576 136 q 696 515 696 320 l 696 526 q 677 679 696 605 q 633 790 659 753 q 460 875 574 875 l 449 875 q 267 777 331 875 q 212 530 212 692 m 397 1031 l 383 1031 q 357 1051 357 1031 l 357 1057 q 379 1107 357 1079 q 485 1225 448 1196 q 561 1254 522 1254 l 568 1255 l 583 1255 q 627 1225 627 1255 l 627 1221 q 508 1087 627 1179 q 397 1031 435 1031 m 840 513 l 840 452 q 813 259 840 351 q 738 112 786 168 q 616 26 690 57 q 463 -5 542 -5 l 432 -5 q 276 30 347 -5 q 163 121 206 65 q 70 477 71 240 l 70 509 q 291 951 70 854 q 429 981 360 981 l 475 981 q 632 945 560 981 q 747 853 703 909 q 815 706 791 798 q 840 513 840 615 z "},"":{"ha":937,"x_min":69,"x_max":842,"o":"m 214 526 l 214 470 q 234 310 214 380 q 279 203 254 239 q 446 123 335 123 l 456 123 l 467 124 q 567 150 519 124 q 692 479 692 217 l 692 482 l 692 526 q 674 667 692 592 q 628 782 655 743 q 454 867 569 867 l 444 867 q 277 781 336 867 q 232 669 249 741 q 214 526 214 597 m 448 1252 l 460 1252 q 530 1223 498 1252 q 656 1071 656 1107 l 656 1066 q 609 1045 656 1045 q 489 1124 561 1045 q 453 1156 460 1156 l 392 1099 l 383 1092 q 300 1042 329 1042 l 284 1042 q 246 1061 246 1042 l 246 1065 q 373 1219 246 1103 q 448 1252 409 1252 m 842 511 l 842 448 q 818 267 842 356 q 750 122 794 178 q 629 28 705 65 q 479 -9 553 -9 l 433 -9 q 281 24 353 -9 q 96 255 142 88 q 69 458 69 356 l 69 505 q 286 946 69 852 q 429 978 360 978 l 476 978 q 627 945 555 978 q 744 857 700 911 q 814 712 787 803 q 842 511 842 622 z "},"":{"ha":939,"x_min":72,"x_max":844,"o":"m 214 522 l 214 489 q 234 320 214 394 q 281 210 254 246 q 458 129 340 129 l 469 130 q 648 231 585 130 q 699 513 699 315 q 680 669 699 595 q 635 783 661 743 q 562 847 610 823 q 469 872 515 872 l 436 872 q 342 846 387 872 q 214 525 214 775 q 214 522 214 524 m 675 1173 l 675 1162 q 641 1092 675 1126 q 557 1058 607 1058 l 552 1058 q 449 1088 513 1058 q 362 1118 385 1118 q 309 1093 340 1118 q 257 1067 278 1067 q 229 1096 229 1067 l 229 1107 q 264 1178 229 1143 q 349 1213 299 1213 l 361 1213 q 462 1182 388 1213 q 554 1152 536 1152 q 598 1177 572 1152 q 649 1202 623 1202 q 675 1173 675 1202 m 844 493 l 844 477 q 749 120 844 233 q 626 28 701 62 q 461 -7 551 -7 l 446 -6 l 430 -6 q 285 27 357 -5 q 72 467 72 125 l 72 498 l 73 513 q 167 856 73 734 q 286 947 212 913 q 437 981 359 981 l 468 981 l 471 981 q 625 949 552 981 q 814 727 771 886 q 844 493 844 613 z "},"":{"ha":935,"x_min":54,"x_max":831,"o":"m 202 528 l 202 460 q 335 140 202 210 q 433 118 378 118 l 455 118 q 632 223 568 118 q 680 473 680 302 l 680 529 q 662 671 680 596 q 616 785 644 745 q 442 871 557 871 l 431 871 q 261 781 319 871 q 202 528 202 691 m 237 1141 l 237 1152 l 238 1154 l 240 1172 q 241 1177 241 1175 q 285 1217 241 1217 q 292 1218 290 1218 l 306 1219 l 327 1219 q 373 1207 357 1219 q 388 1161 388 1195 l 388 1135 q 385 1116 385 1125 q 343 1079 385 1079 l 340 1078 l 338 1078 l 317 1076 l 298 1076 l 296 1076 l 291 1076 l 269 1080 q 237 1141 237 1080 m 536 1076 q 499 1111 499 1076 l 496 1122 l 495 1137 l 495 1149 l 498 1168 q 534 1206 498 1206 l 547 1209 l 564 1211 l 589 1211 l 610 1208 q 652 1154 652 1208 l 652 1130 l 650 1114 q 603 1076 650 1076 q 595 1074 599 1074 l 582 1073 l 562 1073 l 559 1074 l 541 1076 q 536 1076 538 1076 m 831 513 l 831 465 q 741 126 831 251 q 618 30 697 66 q 450 -6 540 -6 l 434 -6 q 274 26 347 -6 q 80 262 126 90 q 54 467 54 361 l 54 513 q 78 708 54 616 q 150 859 103 800 q 272 950 197 917 q 437 984 347 984 l 452 984 q 618 950 544 984 q 737 859 692 916 q 806 709 781 802 q 831 513 831 615 z "},"":{"ha":718,"x_min":114,"x_max":601,"o":"m 135 180 q 125 191 135 180 q 114 216 114 201 q 196 319 114 231 q 277 413 277 408 q 201 499 277 419 q 117 597 123 579 q 115 606 115 602 q 132 639 115 621 q 174 663 153 663 q 274 580 195 663 q 360 498 353 498 q 441 581 361 498 q 545 664 521 664 q 580 643 559 664 q 601 612 601 622 l 601 602 q 520 503 601 591 q 439 409 439 416 q 520 318 439 403 q 601 216 601 234 q 578 178 601 197 q 537 159 556 159 q 442 242 519 159 q 358 326 365 326 q 313 283 351 326 q 178 159 199 159 q 135 180 157 159 z "},"":{"ha":940,"x_min":70,"x_max":838,"o":"m 210 515 l 210 453 q 248 256 210 334 q 267 237 256 237 q 401 435 298 237 q 581 801 581 778 l 581 808 q 551 845 581 823 q 463 866 521 866 l 445 866 q 442 866 444 866 q 346 842 389 866 q 233 680 264 797 q 210 515 210 593 m 688 578 q 666 736 688 690 q 657 745 662 745 q 593 640 646 745 q 436 352 541 534 q 332 144 332 170 q 351 113 332 130 q 407 95 370 95 l 422 95 q 529 125 478 95 q 661 323 626 181 q 686 491 686 420 l 687 509 l 688 536 l 688 578 m 838 496 l 838 479 q 811 274 838 369 q 606 23 760 90 q 442 -7 536 -7 q 350 1 404 -7 q 279 9 296 9 q 230 -7 262 9 q 186 -23 197 -23 l 175 -23 q 134 33 134 -23 l 141 98 q 105 229 141 103 q 70 454 70 355 l 70 507 q 98 703 71 610 q 299 947 151 881 q 480 978 370 978 q 571 968 515 978 q 638 958 628 958 q 678 975 649 958 q 722 991 707 991 l 733 991 q 775 947 775 991 l 764 869 q 783 792 764 840 q 819 678 801 744 q 838 496 838 612 z "},"":{"ha":903,"x_min":91,"x_max":798,"o":"m 277 1224 l 277 1230 q 328 1263 277 1263 l 334 1263 q 431 1223 387 1263 q 544 1072 544 1125 l 544 1065 q 517 1045 544 1045 l 499 1045 q 488 1046 491 1046 q 364 1123 451 1046 q 277 1224 277 1199 m 91 902 q 129 958 91 958 l 150 958 q 227 897 210 958 q 239 569 239 854 q 268 223 239 284 q 338 135 296 161 q 446 108 380 108 q 625 211 579 108 q 656 563 656 281 q 665 884 656 844 q 694 941 674 924 q 764 957 714 957 q 792 943 786 957 q 798 855 798 930 l 798 810 l 798 787 l 796 673 l 796 486 q 787 260 796 335 q 627 29 765 96 q 449 -8 549 -8 q 163 111 248 -8 q 110 235 124 165 q 95 471 95 305 l 93 610 l 91 836 l 91 902 z "},"":{"ha":903,"x_min":94,"x_max":795,"o":"m 390 1043 q 353 1070 353 1043 l 353 1074 q 469 1209 353 1119 q 572 1255 528 1255 l 587 1255 q 625 1233 625 1255 l 625 1227 q 525 1102 625 1191 q 416 1045 460 1045 l 397 1043 l 390 1043 m 94 884 q 102 948 94 935 q 153 962 109 962 q 228 907 214 962 q 243 575 243 852 q 270 239 243 298 q 339 152 296 179 q 447 125 381 125 q 624 226 575 125 q 655 585 655 292 q 672 920 655 878 q 762 962 690 962 q 795 884 795 962 l 795 817 l 795 795 l 793 612 q 784 277 793 342 q 626 45 761 108 q 449 8 547 8 q 113 245 164 8 q 98 480 98 316 l 96 618 l 94 819 l 94 884 z "},"":{"ha":904,"x_min":91,"x_max":799,"o":"m 292 1047 l 281 1047 q 243 1065 243 1047 l 243 1069 q 263 1106 243 1082 q 381 1237 354 1213 q 451 1260 409 1260 q 527 1226 493 1260 q 652 1069 652 1101 l 652 1065 q 608 1048 652 1048 q 518 1093 564 1048 q 446 1163 448 1163 q 386 1105 444 1163 q 292 1047 328 1047 m 444 -9 l 418 -9 q 264 26 336 -9 q 156 120 192 61 q 107 248 119 179 q 95 493 95 317 l 94 586 q 93 631 93 609 l 92 654 q 92 699 92 677 l 91 834 l 91 879 q 98 944 91 931 q 150 956 106 956 q 227 896 210 956 q 239 568 239 852 q 268 221 239 283 q 338 133 296 160 q 446 106 381 106 q 625 210 577 106 q 656 574 656 278 q 674 912 656 869 q 764 956 691 956 q 793 942 787 956 q 799 831 799 928 l 798 808 l 797 694 l 795 555 q 789 276 795 349 q 745 135 783 203 q 629 28 707 66 q 444 -9 550 -9 z "},"":{"ha":903,"x_min":85,"x_max":791,"o":"m 332 1204 q 374 1188 364 1204 q 384 1147 384 1171 l 384 1137 l 383 1135 l 381 1114 q 380 1108 380 1111 q 328 1063 380 1063 q 321 1062 324 1062 l 310 1061 l 301 1061 l 298 1061 l 283 1063 q 278 1064 280 1064 q 235 1110 235 1064 l 233 1116 l 231 1137 l 231 1149 l 235 1172 q 271 1202 235 1202 q 279 1203 275 1203 l 291 1204 l 332 1204 m 535 1071 q 499 1112 499 1071 q 498 1119 498 1117 l 496 1132 l 496 1149 l 499 1167 q 542 1209 499 1209 l 544 1210 l 547 1211 l 568 1213 l 584 1213 l 587 1212 l 604 1210 q 609 1209 607 1209 q 644 1171 644 1209 l 646 1166 l 648 1148 l 648 1133 l 645 1113 q 602 1071 645 1071 l 600 1070 l 597 1069 l 576 1067 l 560 1067 l 557 1068 l 540 1070 q 535 1071 537 1071 m 623 225 q 652 580 652 293 q 663 907 652 867 q 744 961 679 961 q 782 953 772 961 q 791 874 791 945 l 791 806 l 791 783 l 790 715 l 790 670 l 789 624 q 781 276 789 348 q 736 141 772 203 q 625 39 701 78 q 445 1 549 1 q 99 273 140 1 q 90 509 90 337 l 88 602 q 87 648 87 625 l 87 670 q 87 715 87 692 l 86 737 l 86 781 l 85 827 l 85 892 q 94 951 85 941 q 137 961 103 961 q 192 948 171 961 q 223 890 214 936 q 232 564 232 844 q 267 214 232 283 q 446 117 317 117 q 623 225 575 117 z "},"":{"ha":796,"x_min":46,"x_max":743,"o":"m 331 1038 q 310 1057 310 1038 l 310 1063 q 332 1111 310 1082 q 439 1229 401 1199 q 523 1259 477 1259 l 530 1259 q 578 1226 578 1259 l 578 1223 q 533 1156 578 1191 q 352 1040 383 1040 l 345 1038 l 331 1038 m 699 960 q 743 932 743 960 q 629 686 743 930 l 599 623 q 502 418 513 448 q 470 201 470 334 q 458 44 470 68 q 398 20 446 20 q 337 35 351 20 q 324 123 324 50 l 325 139 q 326 173 326 156 l 326 190 l 326 224 q 296 422 326 352 q 165 681 284 448 q 46 926 46 914 l 46 939 q 103 958 46 958 q 201 906 160 958 q 304 705 224 877 q 399 533 385 533 q 510 719 423 533 q 599 907 597 905 q 699 960 634 960 z "},"":{"ha":799,"x_min":113,"x_max":718,"o":"m 568 495 l 568 516 q 525 648 568 596 q 401 699 481 699 q 382 701 389 701 l 357 701 l 351 701 q 254 652 254 701 l 254 645 l 253 639 l 252 620 l 252 607 l 252 581 l 252 547 l 252 541 l 252 508 l 253 495 q 260 327 253 340 q 365 303 274 303 l 371 303 q 515 352 462 303 q 568 495 568 401 m 393 808 q 635 729 545 808 q 695 643 672 696 q 718 520 718 589 l 718 504 q 509 215 718 272 q 380 199 463 203 q 281 183 298 195 q 257 112 264 172 q 243 35 251 52 q 192 1 228 1 l 168 1 q 117 39 125 1 q 116 79 116 45 l 119 210 q 119 239 119 224 l 119 283 l 119 313 l 120 342 l 120 416 l 119 445 l 119 576 l 117 708 l 117 737 l 116 766 l 116 795 l 115 839 l 114 854 l 113 882 q 126 941 113 926 q 169 956 140 956 l 181 956 q 239 930 223 956 q 255 875 248 914 q 276 822 262 836 q 334 808 290 809 q 393 808 378 808 z "},"":{"ha":817,"x_min":85,"x_max":744,"o":"m 387 520 q 457 628 387 547 q 526 760 526 709 q 495 835 526 810 q 414 861 463 861 q 329 827 364 861 q 277 744 293 793 q 243 288 243 642 q 222 52 243 101 q 153 2 202 2 q 109 50 114 2 q 107 227 107 61 q 106 419 107 393 q 95 503 104 445 q 85 581 85 562 l 85 607 q 113 744 85 649 q 180 886 142 840 q 409 981 259 981 q 582 922 512 981 q 652 774 652 863 q 614 641 652 722 q 576 534 576 559 q 638 439 576 509 q 713 347 701 370 q 744 232 744 292 q 675 62 744 126 q 486 -2 606 -2 q 382 27 412 -2 q 371 51 371 38 q 426 90 371 76 q 555 131 538 120 q 610 225 610 168 q 585 316 610 282 q 491 392 559 349 q 418 439 422 435 q 387 520 387 469 z "},"":{"ha":712,"x_min":48,"x_max":614,"o":"m 296 112 l 317 112 q 423 155 385 112 q 461 259 461 197 l 461 298 q 413 347 461 347 l 409 347 l 404 348 l 387 349 l 363 349 l 359 348 l 350 348 q 187 228 187 348 l 187 218 q 218 139 187 167 q 296 112 249 112 m 178 975 l 178 984 q 231 1014 178 1014 l 241 1014 q 252 1013 250 1013 q 333 970 300 1013 q 436 810 436 838 l 436 800 q 400 781 436 781 l 393 781 q 318 819 361 781 q 178 975 178 943 m 321 589 q 215 575 281 589 q 143 561 149 561 q 99 610 99 561 q 165 675 99 647 q 317 703 232 703 q 549 614 481 703 q 588 514 579 572 q 597 322 597 456 q 606 142 597 189 q 614 83 614 96 l 614 68 q 598 24 614 36 q 553 12 582 12 q 504 22 525 12 l 458 46 q 375 21 437 46 q 260 -3 313 -3 l 245 -3 q 100 54 152 -3 q 48 186 49 113 q 71 300 49 259 q 283 418 125 401 q 449 444 442 435 q 456 488 456 452 q 427 556 456 524 q 321 589 399 589 z "},"":{"ha":711,"x_min":49,"x_max":612,"o":"m 283 124 l 311 124 q 325 125 319 125 q 419 165 380 125 q 459 248 459 205 l 460 256 l 463 291 l 463 317 q 451 354 463 345 q 410 363 440 363 l 384 363 l 348 361 q 317 357 324 357 q 223 317 259 357 q 188 227 188 277 l 188 214 q 217 147 188 170 q 283 124 247 124 m 300 775 l 290 775 q 251 797 251 775 l 251 807 q 355 966 251 862 q 442 1006 395 1006 l 450 1006 q 507 974 507 1006 l 507 964 q 422 851 507 926 q 300 775 337 775 m 146 557 q 101 605 101 557 q 164 669 101 641 q 303 697 227 697 l 335 697 q 465 672 408 697 q 553 600 522 647 q 595 317 595 536 q 603 147 595 203 q 612 73 612 91 l 612 59 q 538 14 612 14 q 493 31 519 14 q 453 47 467 47 q 373 22 438 47 q 249 -2 308 -2 q 102 54 155 -2 q 49 214 49 111 q 146 373 49 317 q 364 421 220 415 q 441 434 431 424 q 452 480 452 445 q 425 550 452 516 q 334 584 398 584 q 218 571 270 584 q 146 557 166 557 z "},"":{"ha":712,"x_min":48,"x_max":614,"o":"m 294 113 l 303 113 q 419 153 374 113 q 465 270 465 193 l 465 287 q 453 335 465 323 q 394 347 441 347 l 358 347 q 230 314 273 347 q 187 229 187 281 l 187 205 q 216 138 187 163 q 294 113 245 113 m 337 1007 l 349 1007 q 418 975 388 1007 q 543 805 543 840 q 497 783 543 783 l 486 783 q 409 831 450 783 q 342 907 345 907 q 317 882 340 907 q 274 837 294 857 q 184 790 227 790 q 140 807 140 790 l 140 811 q 186 882 141 819 q 337 1007 275 1007 m 439 433 q 456 490 456 442 q 418 563 456 538 q 330 587 380 587 q 218 573 279 587 q 144 558 157 558 q 99 608 99 558 q 167 673 99 646 q 307 701 235 701 l 339 701 q 562 593 490 701 q 597 321 597 538 q 597 313 597 317 q 606 140 597 186 q 614 80 614 94 l 614 66 q 598 22 614 34 q 550 9 582 9 q 493 26 519 9 q 454 43 468 43 q 375 19 441 43 q 260 -6 309 -6 l 245 -6 q 105 47 161 -6 q 48 202 48 100 q 126 360 48 305 q 216 402 169 390 q 347 421 264 414 q 439 433 431 429 z "},"":{"ha":711,"x_min":51,"x_max":613,"o":"m 297 119 l 324 119 q 337 120 332 120 q 425 161 384 120 q 466 267 466 202 l 466 301 q 464 322 464 313 q 399 352 464 352 l 376 352 l 371 351 l 357 351 l 344 351 l 326 351 l 291 348 q 218 314 248 348 q 187 242 187 279 l 186 233 l 186 214 q 216 146 186 173 q 297 119 247 119 m 233 957 l 255 957 q 349 926 288 957 q 432 896 410 896 q 484 918 455 896 q 530 939 513 939 q 562 907 562 939 l 562 902 q 526 825 562 861 q 448 790 491 790 l 437 790 q 337 824 404 790 q 251 857 270 857 q 202 834 233 857 q 154 811 171 811 q 121 850 121 811 q 157 923 121 890 q 233 957 194 957 m 613 66 q 547 12 613 12 q 495 28 526 12 q 447 44 463 44 q 372 20 431 44 q 258 -3 313 -3 l 243 -3 q 102 53 153 -3 q 51 197 51 110 l 51 212 q 142 368 51 310 q 283 413 195 401 q 358 419 298 415 q 431 427 418 423 q 456 482 456 434 q 304 585 456 585 q 220 571 277 585 q 144 557 163 557 q 101 609 101 557 q 150 663 101 640 q 309 697 222 697 l 326 697 q 549 606 480 697 q 586 516 576 570 q 595 328 595 463 q 604 143 595 193 q 613 66 613 93 z "},"":{"ha":709,"x_min":45,"x_max":607,"o":"m 317 119 q 407 159 366 119 q 447 241 447 199 l 448 246 l 448 250 l 450 292 l 450 306 q 440 345 450 335 q 391 355 430 355 l 373 355 l 369 355 l 311 351 l 294 350 q 212 314 244 350 q 180 224 180 277 l 180 215 q 203 149 180 178 q 269 119 227 119 l 278 117 l 304 117 q 317 119 313 119 m 226 964 q 282 919 282 964 q 283 911 283 913 l 285 899 l 285 880 l 284 878 q 284 872 284 875 l 280 850 q 245 819 280 819 q 235 817 238 817 l 220 815 l 200 815 q 144 860 144 815 q 142 867 142 865 l 141 880 l 141 899 l 142 901 q 142 907 142 904 l 146 929 q 181 960 146 960 q 191 962 187 962 l 205 964 l 226 964 m 387 908 q 448 946 387 946 l 473 946 q 489 944 481 944 q 540 871 540 944 l 540 866 l 539 863 l 537 843 q 536 838 536 840 q 473 797 536 797 l 471 798 l 465 798 l 457 798 l 452 798 q 437 801 441 801 q 387 854 387 801 q 386 863 386 860 l 385 875 l 385 897 q 387 908 387 903 m 316 586 q 211 572 274 586 q 140 559 148 559 q 96 608 96 559 q 159 670 96 643 q 302 698 222 698 l 333 698 q 463 671 406 698 q 549 597 520 644 q 589 313 589 534 q 598 146 589 195 q 607 67 607 96 q 591 25 607 37 q 543 12 576 12 q 485 29 511 12 q 447 46 460 46 q 369 21 435 46 q 255 -3 302 -3 l 239 -3 q 96 54 148 -3 q 45 184 45 111 q 67 298 45 258 q 279 414 121 397 q 443 440 437 432 q 449 484 449 448 q 421 553 449 520 q 316 586 393 586 z "},"":{"ha":717,"x_min":41,"x_max":610,"o":"m 265 935 l 265 918 l 266 916 l 266 911 q 267 898 267 907 q 284 873 267 890 q 318 856 301 856 q 325 854 322 854 l 334 854 l 339 854 q 381 871 360 854 q 403 916 403 888 l 403 932 l 402 935 l 402 940 q 401 952 401 944 q 383 979 401 961 q 338 997 365 997 l 329 997 q 284 978 303 997 q 265 935 265 959 m 309 113 q 409 153 364 113 q 454 232 454 193 q 456 252 456 248 l 458 281 l 458 299 q 419 345 458 345 l 397 347 l 370 347 l 357 345 l 348 345 l 343 345 l 334 345 l 320 343 l 302 342 q 216 307 251 342 q 181 220 181 272 l 181 216 q 204 144 181 174 q 269 115 227 115 l 278 113 l 309 113 m 328 1058 l 338 1058 l 342 1057 q 441 1018 401 1057 q 481 922 481 978 l 481 912 l 480 907 q 444 819 480 859 q 355 779 408 779 l 332 779 q 318 780 323 780 q 231 823 270 780 q 193 907 193 865 l 191 916 l 191 935 q 229 1020 191 982 q 328 1058 267 1058 m 432 437 q 449 494 449 446 q 412 567 449 543 q 323 591 374 591 q 213 576 273 591 q 137 562 153 562 q 92 610 92 562 q 155 676 92 648 q 297 705 218 705 l 329 705 q 461 679 402 705 q 551 606 519 654 q 592 336 592 543 q 601 147 592 208 q 610 64 610 87 q 545 15 610 15 q 489 32 515 15 q 446 50 463 50 q 366 24 429 50 q 257 -1 303 -1 l 241 -1 q 98 51 155 -1 q 41 195 41 103 l 41 212 q 114 361 41 310 q 306 424 186 413 q 432 437 425 434 z "},"":{"ha":1096,"x_min":60,"x_max":1018,"o":"m 339 342 q 245 308 284 342 q 207 225 207 273 l 207 211 q 235 140 207 165 q 313 115 264 115 l 321 115 l 326 115 q 441 154 402 115 q 479 255 479 193 l 479 298 q 439 343 479 343 l 431 345 l 414 345 l 393 345 l 388 345 l 379 345 l 348 342 q 339 342 343 342 m 875 430 l 875 447 q 844 537 875 497 q 760 578 812 578 l 728 578 q 627 532 668 578 q 587 418 587 486 l 587 406 q 640 378 587 378 l 677 378 l 682 378 l 755 382 l 798 386 q 875 430 875 386 m 999 98 q 928 29 999 62 q 778 -5 858 -5 q 651 12 697 -5 q 567 53 606 29 q 517 76 528 76 q 464 50 505 76 q 378 11 422 24 q 255 -3 334 -3 q 118 52 176 -3 q 60 193 60 106 l 60 217 q 83 300 60 260 q 271 410 136 387 q 365 419 305 415 q 429 425 425 424 q 457 465 457 434 q 422 555 457 524 q 304 585 388 585 q 219 569 275 585 q 143 552 163 552 q 107 601 107 552 q 173 664 107 636 q 316 691 239 691 q 431 676 393 691 q 498 644 468 661 q 539 626 529 626 q 567 635 549 626 l 585 646 q 754 694 667 694 q 996 549 935 694 q 1018 436 1018 495 q 974 331 1018 351 q 821 308 943 317 l 664 296 q 610 243 610 286 q 665 138 610 178 q 785 109 704 109 q 884 127 812 109 q 967 146 956 146 q 999 98 999 146 z "},"":{"ha":688,"x_min":57,"x_max":613,"o":"m 344 -316 l 326 -316 q 258 -271 258 -316 l 258 -267 l 258 -263 q 294 -240 258 -240 q 375 -184 375 -240 q 343 -140 375 -163 q 311 -85 311 -118 q 348 -24 311 -34 q 224 11 290 -22 q 125 88 156 45 q 57 358 57 184 q 225 682 57 604 q 366 712 290 712 l 399 712 q 541 670 471 712 q 611 578 611 629 q 567 528 611 528 q 470 556 545 528 q 343 585 395 585 q 218 345 218 585 q 253 175 218 237 q 359 113 287 113 q 465 136 390 113 q 563 160 540 160 q 613 117 613 160 l 613 104 q 537 16 613 55 q 385 -23 468 -20 q 403 -63 395 -31 q 450 -98 405 -72 q 494 -177 494 -124 l 494 -194 q 450 -282 494 -248 q 344 -316 406 -316 z "},"":{"ha":718,"x_min":52,"x_max":637,"o":"m 257 410 l 287 410 l 291 410 l 432 416 l 436 416 l 445 417 q 503 453 503 417 l 503 471 q 466 568 503 530 q 374 606 428 606 l 345 606 q 241 560 281 606 q 201 457 201 515 l 199 448 l 199 435 q 257 410 199 410 m 191 981 l 191 987 q 241 1019 191 1019 l 256 1019 q 339 981 305 1019 q 448 819 448 857 l 448 815 q 412 793 448 793 l 405 793 q 320 836 369 793 q 191 981 191 948 m 613 94 q 538 24 613 57 q 376 -9 463 -9 l 360 -9 q 76 174 144 -8 q 52 320 52 237 l 52 353 q 233 685 52 615 q 355 707 290 707 l 371 707 q 372 707 371 707 q 618 555 562 707 q 637 468 637 503 l 637 439 q 592 342 637 360 q 411 317 548 323 q 243 302 275 311 q 201 255 201 291 q 250 149 201 186 q 385 112 300 112 q 492 130 418 112 q 574 147 566 147 q 613 94 613 147 z "},"":{"ha":718,"x_min":56,"x_max":633,"o":"m 496 474 l 496 504 q 458 582 496 549 q 367 616 420 616 l 352 616 q 242 568 285 616 q 199 457 199 519 l 197 434 q 243 404 197 404 l 252 402 l 269 401 l 274 402 l 301 404 l 319 405 q 336 407 332 407 l 349 409 l 393 411 q 478 427 449 411 q 496 474 496 437 m 309 787 l 298 787 q 266 808 266 787 l 266 815 l 267 819 q 375 974 267 865 q 459 1012 413 1012 l 470 1012 q 524 981 524 1012 l 524 974 l 523 970 q 403 837 523 942 q 309 787 347 787 m 377 4 l 345 4 q 220 31 281 4 q 126 96 159 57 q 56 322 56 180 l 56 354 q 218 675 56 602 q 367 705 281 705 l 382 705 q 557 642 488 705 q 613 557 593 610 q 633 460 633 504 l 633 446 q 587 347 633 366 q 417 323 556 333 q 264 311 279 314 q 208 263 208 298 q 255 160 208 199 q 383 122 301 122 q 490 137 420 122 q 567 153 559 153 q 606 111 606 153 q 534 37 606 69 q 377 4 461 4 z "},"":{"ha":718,"x_min":52,"x_max":637,"o":"m 460 418 q 502 452 502 418 l 502 474 q 462 570 502 534 q 368 606 422 606 l 349 606 q 248 565 294 606 q 202 460 202 524 l 200 446 l 200 433 q 258 409 200 409 l 274 409 l 278 410 l 431 416 l 448 417 q 460 418 456 418 m 555 818 l 555 814 q 508 793 555 793 q 387 881 461 793 q 353 916 357 916 q 324 886 349 916 q 201 793 245 793 l 196 793 q 153 811 153 793 q 194 881 153 823 q 276 976 236 940 q 356 1013 315 1013 l 362 1013 q 431 980 401 1013 q 555 818 555 844 m 613 93 q 535 21 613 52 q 376 -10 457 -10 l 360 -10 q 127 81 213 -10 q 70 188 88 123 q 52 319 52 252 l 52 351 q 219 677 52 600 q 355 705 279 705 l 387 705 q 486 686 437 705 q 617 554 583 648 q 637 466 637 500 l 637 437 q 588 338 637 359 q 413 316 559 326 q 255 303 267 306 q 201 253 201 292 q 250 148 201 185 q 385 110 298 110 q 492 127 418 110 q 574 145 566 145 q 613 93 613 145 z "},"":{"ha":715,"x_min":48,"x_max":631,"o":"m 492 453 l 492 466 l 492 471 l 490 488 q 490 496 490 493 q 451 573 490 538 q 361 607 413 607 l 342 607 q 234 560 276 607 q 193 443 193 513 l 193 435 q 254 408 193 408 l 262 408 l 267 409 l 427 416 l 443 417 q 492 453 492 417 m 295 879 q 257 817 295 817 q 245 814 249 814 l 228 812 l 213 812 l 210 812 l 205 812 l 184 817 q 153 857 153 817 q 152 865 152 863 l 151 876 l 151 899 l 153 920 q 195 958 153 958 q 202 960 200 960 l 214 961 l 235 961 l 254 958 q 292 913 292 958 l 294 903 l 294 898 l 295 890 l 295 879 m 510 949 q 551 905 551 949 l 553 890 l 553 868 q 549 849 549 854 q 486 810 549 810 l 462 810 l 449 812 l 434 814 q 403 849 403 814 q 401 859 401 856 l 399 873 l 399 890 l 402 912 q 442 948 402 948 q 454 951 450 951 l 473 952 l 481 952 l 484 951 l 505 949 q 510 949 508 949 m 388 -7 l 340 -7 q 337 -7 338 -7 q 217 19 279 -7 q 61 210 93 71 q 48 335 48 266 l 48 351 q 228 682 48 612 q 349 705 287 705 l 380 705 q 490 682 442 705 q 567 629 538 660 q 631 459 631 558 q 583 340 631 360 q 410 317 544 323 q 236 301 275 311 q 196 256 196 292 q 244 150 196 189 q 377 111 293 111 q 479 126 409 111 l 520 137 q 566 146 557 146 q 606 95 606 146 q 533 25 606 58 q 388 -7 460 -7 z "},"":{"ha":370,"x_min":19,"x_max":262,"o":"m 19 968 l 19 978 q 68 1008 19 1008 l 75 1008 q 157 962 117 1008 q 258 795 258 847 l 258 788 q 229 768 258 768 l 216 768 q 98 859 178 768 q 19 968 19 949 m 177 26 l 161 26 q 112 47 123 26 q 101 146 101 68 l 106 224 l 107 241 l 109 281 l 109 306 l 108 323 q 108 349 108 336 l 107 366 l 107 391 l 106 416 q 106 450 106 433 l 106 467 l 106 484 l 104 518 q 99 581 104 541 l 95 611 q 91 640 91 640 l 91 655 q 103 694 91 684 q 163 704 115 704 l 179 704 q 239 659 229 704 q 247 538 247 627 l 247 440 l 248 415 l 248 398 l 250 331 l 250 314 q 251 293 251 298 q 254 251 251 288 l 256 235 q 262 157 262 168 l 262 117 q 245 42 262 58 q 177 26 229 26 z "},"":{"ha":368,"x_min":92,"x_max":336,"o":"m 132 772 l 119 772 q 92 790 92 772 l 92 800 q 195 964 92 831 q 281 1011 231 1011 l 288 1011 l 291 1010 q 336 981 336 1010 l 336 974 q 314 928 336 956 q 203 812 256 853 q 132 772 151 772 m 250 301 l 252 261 l 260 143 l 260 127 q 245 41 260 60 q 184 21 231 21 l 151 21 q 113 42 123 21 q 102 125 102 64 l 109 227 q 111 252 111 243 l 112 268 q 112 301 112 284 l 113 327 q 113 412 113 370 l 113 438 l 113 498 l 112 531 l 103 608 l 99 637 l 99 659 q 161 701 99 701 l 193 701 q 243 654 233 701 q 248 444 248 635 l 249 427 q 249 351 249 389 l 250 334 l 250 309 l 250 301 z "},"":{"ha":382,"x_min":-9,"x_max":377,"o":"m 377 803 q 326 779 377 779 l 321 779 q 248 824 288 779 l 225 848 q 217 857 222 852 q 199 878 212 862 q 185 894 186 894 q 131 837 183 894 q 44 779 78 779 l 39 779 l 34 780 q -9 800 -9 780 l -9 804 q 40 881 -9 813 q 118 979 89 949 q 185 1008 148 1008 l 191 1008 q 251 980 225 1008 q 377 803 377 842 m 109 136 l 111 176 l 112 191 q 113 206 113 199 l 115 246 l 115 262 l 115 407 l 116 425 l 116 510 q 109 583 116 542 q 102 634 102 624 l 102 656 q 157 698 102 698 l 174 699 l 182 699 l 191 699 q 250 653 239 699 q 257 433 257 622 l 258 381 q 258 355 258 368 l 260 297 q 260 281 260 289 l 261 265 l 265 211 q 267 188 267 196 l 268 172 l 269 140 l 269 115 q 252 34 269 50 q 184 19 236 19 l 159 19 q 119 39 130 19 q 109 128 109 59 l 109 136 z "},"":{"ha":378,"x_min":-17,"x_max":372,"o":"m 118 855 l 117 831 q 99 803 117 817 q 58 789 82 789 l 42 789 q -14 839 -14 789 l -15 844 l -17 863 l -17 883 l -14 905 q 3 941 -14 927 q 47 955 20 955 l 56 955 q 116 903 116 955 q 117 895 117 897 l 119 884 l 119 858 l 118 855 m 227 895 q 275 958 227 958 q 282 960 279 960 l 294 961 l 310 961 l 322 960 l 336 957 q 372 895 372 957 l 372 879 l 372 876 l 370 859 q 369 853 369 856 q 330 814 369 814 l 313 811 l 307 811 l 297 810 l 294 810 q 231 854 231 810 q 229 861 229 859 l 227 877 l 227 895 m 180 20 l 156 20 q 115 45 123 20 q 107 132 107 71 l 114 234 l 115 250 l 116 267 l 116 488 l 115 522 l 101 644 l 101 651 q 113 690 101 680 q 170 701 125 701 l 178 701 q 233 684 218 701 q 247 623 247 667 l 248 606 l 250 555 l 250 418 l 250 401 q 250 368 250 385 l 251 351 l 251 317 l 262 151 l 262 119 q 247 37 262 54 q 180 20 231 20 z "},"":{"ha":768,"x_min":76,"x_max":684,"o":"m 216 298 q 256 154 216 214 q 359 95 296 95 l 387 95 q 495 154 452 95 q 538 311 538 213 l 539 326 l 540 332 l 540 361 q 500 511 540 460 q 397 562 460 562 l 384 563 l 358 563 q 257 505 296 563 q 218 384 218 447 l 217 370 l 216 349 l 216 298 m 576 829 q 606 757 576 821 q 684 412 684 588 l 684 374 q 512 20 684 105 q 389 -8 454 -8 l 370 -8 q 145 85 226 -8 q 76 312 76 165 q 158 552 76 459 q 382 644 241 644 l 441 639 q 477 664 477 639 q 445 735 477 706 q 372 764 412 764 l 334 762 q 283 798 283 762 q 300 830 283 807 q 317 864 317 852 q 288 906 317 876 q 258 960 258 937 q 304 989 258 989 q 384 970 330 989 q 475 950 438 950 l 545 954 q 589 905 589 954 l 587 895 l 581 873 q 576 829 576 855 z "},"":{"ha":757,"x_min":90,"x_max":666,"o":"m 598 933 l 598 917 q 559 845 598 880 q 483 810 521 810 l 466 810 q 373 842 440 810 q 285 873 305 873 q 235 848 265 873 q 181 823 205 823 q 156 854 156 823 l 156 865 q 193 936 156 899 q 277 973 230 973 l 283 973 l 288 972 q 381 941 315 972 q 469 910 447 910 q 519 935 490 910 q 573 959 549 959 q 598 933 598 959 m 105 664 q 112 670 105 664 q 152 677 120 677 q 209 659 184 677 q 244 641 235 641 q 281 654 254 641 l 295 662 q 429 699 363 699 l 447 699 q 562 667 512 699 q 638 574 612 635 q 664 231 664 513 l 666 89 l 666 72 q 627 6 666 6 l 610 6 q 538 62 557 6 q 528 283 528 92 q 510 518 528 473 q 462 580 492 563 q 387 597 432 597 q 304 575 342 597 q 247 511 267 553 q 227 277 227 469 q 212 52 227 85 q 129 7 191 7 q 90 69 90 7 l 90 139 l 90 157 q 90 193 90 175 l 92 301 l 92 411 l 91 466 l 91 521 l 90 609 q 105 664 90 650 z "},"":{"ha":753,"x_min":60,"x_max":675,"o":"m 355 102 l 377 102 q 490 161 450 102 q 530 334 530 219 l 530 387 q 489 544 530 484 q 370 604 448 604 l 355 604 l 349 603 q 240 546 281 603 q 199 382 199 490 l 199 335 q 239 162 199 221 q 355 102 280 102 m 201 978 l 201 988 q 256 1019 201 1019 l 262 1019 l 267 1018 q 353 977 317 1018 q 456 820 456 859 l 456 810 q 423 789 456 789 l 409 789 q 289 867 376 789 q 201 978 201 945 m 675 361 l 675 338 q 504 16 675 90 q 365 -10 442 -10 l 353 -9 q 134 81 214 -9 q 79 189 98 123 q 60 326 60 256 l 60 373 q 138 619 60 528 q 366 709 217 709 l 378 709 q 605 609 518 709 q 675 361 675 528 z "},"":{"ha":753,"x_min":60,"x_max":673,"o":"m 197 337 l 199 300 q 241 169 199 222 q 354 117 283 117 l 361 117 l 369 117 q 490 175 448 117 q 532 325 532 232 q 534 348 534 347 l 534 378 l 534 400 q 493 555 534 498 q 380 612 451 612 l 358 612 q 237 547 277 612 q 197 368 197 483 l 197 345 l 197 337 m 277 798 l 277 804 q 386 968 277 843 q 478 1009 422 1009 q 534 977 534 1009 l 533 974 l 533 970 q 408 823 533 932 q 316 775 353 775 l 313 776 q 277 798 277 776 m 352 708 l 387 708 q 510 681 453 708 q 651 517 618 629 q 673 352 673 443 l 673 340 q 515 22 673 96 q 379 -9 446 -9 l 345 -9 q 222 17 279 -9 q 83 181 117 66 q 60 346 60 256 l 61 358 l 61 370 q 226 681 61 607 q 352 708 287 708 z "},"":{"ha":755,"x_min":60,"x_max":676,"o":"m 349 106 l 378 106 q 491 164 449 106 q 533 349 533 221 l 533 380 q 492 544 533 481 q 372 606 450 606 l 357 606 l 351 605 q 241 545 282 605 q 199 374 199 484 l 199 335 q 238 168 199 230 q 349 106 277 106 m 564 811 l 564 806 q 509 788 564 788 q 435 836 475 788 q 366 909 373 909 q 307 848 363 909 q 214 787 251 787 l 209 787 q 164 804 164 787 l 164 809 q 217 888 164 819 q 299 982 270 957 q 366 1006 329 1006 l 372 1006 q 445 971 412 1006 q 564 811 564 841 m 676 371 l 676 323 q 592 74 676 162 q 366 -14 509 -14 l 355 -14 q 81 179 144 -14 q 60 322 60 243 l 60 357 q 139 615 60 524 q 367 707 218 707 l 378 707 q 600 614 516 707 q 657 506 637 572 q 676 371 676 440 z "},"":{"ha":754,"x_min":62,"x_max":675,"o":"m 356 111 l 378 111 q 493 166 452 111 q 534 318 534 222 l 535 333 l 536 356 l 536 387 q 492 549 536 489 q 374 608 448 608 l 352 608 q 239 549 280 608 q 198 372 198 489 l 198 340 q 238 174 198 237 q 356 111 277 111 m 266 959 l 277 959 q 373 928 311 959 q 456 897 435 897 q 507 922 476 897 q 554 947 537 947 q 585 916 585 947 l 585 910 q 550 835 585 870 q 467 800 515 800 l 462 800 q 362 831 424 800 q 279 862 300 862 q 227 837 257 862 q 173 811 196 811 q 146 842 146 811 l 146 848 q 183 925 146 890 q 266 959 220 959 m 345 707 l 391 707 q 509 682 449 707 q 654 515 620 634 q 675 349 675 442 q 605 90 675 179 q 507 17 568 44 q 378 -11 446 -11 l 355 -11 q 140 77 216 -11 q 62 336 62 165 l 62 360 q 221 677 62 604 q 345 707 286 707 z "},"":{"ha":749,"x_min":50,"x_max":664,"o":"m 344 104 l 366 104 q 521 351 521 104 l 521 382 q 480 547 521 488 q 369 607 439 607 l 339 607 q 229 547 269 607 q 189 377 189 487 l 189 330 q 230 161 189 218 q 344 104 272 104 m 163 919 q 205 958 163 958 l 208 958 l 210 959 l 235 961 l 237 960 l 260 958 q 264 958 262 958 q 301 916 301 958 q 302 907 302 910 l 304 895 l 304 876 l 303 873 l 301 859 q 300 853 300 856 q 263 816 300 816 q 254 814 256 814 l 239 812 l 218 812 l 216 812 l 201 814 q 197 815 199 815 q 162 857 162 815 q 161 865 161 863 l 159 878 l 159 896 l 160 899 l 162 914 q 163 919 163 917 m 473 806 q 425 818 439 806 q 410 865 410 830 l 410 885 l 413 907 q 458 947 413 947 q 466 949 464 949 l 479 950 l 503 950 l 522 947 q 557 912 557 947 q 559 903 559 905 l 560 890 l 560 869 l 557 852 q 509 809 557 809 l 504 808 l 499 808 l 486 806 l 473 806 m 664 372 l 664 325 q 486 12 664 87 q 357 -11 431 -11 l 345 -10 q 128 79 205 -10 q 50 335 50 168 l 50 359 q 229 684 50 613 q 346 706 286 706 l 370 706 q 586 617 509 706 q 664 372 664 528 z "},"":{"ha":751,"x_min":71,"x_max":664,"o":"m 331 572 q 286 633 286 572 l 286 654 q 337 718 286 718 l 342 719 l 370 721 l 373 720 l 395 719 q 405 717 403 717 q 445 671 445 717 q 446 663 446 666 l 448 653 l 448 635 l 445 616 q 397 572 445 572 l 391 570 l 366 568 l 363 568 l 361 569 l 355 569 l 336 571 q 331 572 334 572 m 112 358 q 71 395 71 358 l 71 408 q 88 459 71 454 q 233 465 106 465 l 615 465 q 656 457 649 465 q 664 421 664 450 l 663 415 q 637 361 663 366 q 355 359 621 359 l 334 359 l 307 358 l 112 358 m 444 155 l 443 142 q 394 92 443 92 q 387 90 389 90 l 376 89 l 354 89 l 328 93 q 294 137 294 93 q 292 144 292 141 l 291 159 l 291 178 q 342 244 291 244 q 349 245 347 245 l 360 247 l 382 247 q 405 243 395 243 q 441 204 441 243 q 443 194 443 197 l 445 178 l 445 158 l 444 155 z "},"":{"ha":760,"x_min":66,"x_max":668,"o":"m 446 556 l 446 565 q 379 600 446 600 l 357 600 q 241 542 284 600 q 197 398 197 484 l 197 393 l 196 387 l 195 364 l 195 330 q 219 205 195 249 q 229 196 224 196 l 232 196 q 296 282 236 196 q 400 458 355 368 q 446 556 446 549 m 293 123 l 293 115 q 347 86 293 86 l 352 86 q 479 151 431 86 q 528 313 528 215 l 529 323 q 529 336 529 330 l 530 370 l 530 382 q 507 503 530 503 q 397 319 502 503 q 293 123 293 136 m 161 -34 q 113 19 113 -34 l 120 69 q 93 160 120 73 q 66 313 66 246 l 66 367 q 91 513 66 445 q 264 685 140 646 q 404 702 318 702 l 428 701 q 472 699 452 699 q 525 712 492 699 q 572 725 557 725 q 619 671 619 725 q 612 626 612 637 q 640 530 612 616 q 668 363 668 444 l 668 336 q 583 78 668 168 q 482 11 538 33 q 342 -11 426 -11 l 271 -8 q 207 -21 243 -8 q 161 -34 171 -34 z "},"":{"ha":760,"x_min":81,"x_max":664,"o":"m 208 978 l 208 987 q 258 1021 208 1021 l 269 1021 q 359 979 322 1021 q 465 819 465 858 l 464 816 q 431 793 464 793 l 417 793 q 322 848 384 793 q 208 978 208 949 m 644 39 q 634 30 644 39 q 595 21 625 21 q 536 37 565 21 q 505 53 507 53 q 435 25 504 53 q 321 -3 366 -3 l 303 -3 q 111 121 165 -3 q 83 479 83 184 l 81 623 q 91 680 81 667 q 132 693 102 693 q 208 641 186 693 q 222 419 222 606 q 239 186 222 231 q 353 102 270 102 q 499 187 457 102 q 520 421 520 231 q 534 644 520 612 q 615 689 555 689 q 659 648 652 689 q 660 500 660 639 l 660 288 l 661 252 l 664 111 q 644 39 664 58 z "},"":{"ha":760,"x_min":83,"x_max":663,"o":"m 330 792 l 316 792 q 283 812 283 792 l 283 819 l 283 822 q 302 863 283 838 q 395 976 370 954 q 483 1015 440 1015 l 493 1015 q 541 988 541 1015 l 541 981 q 448 864 541 936 q 330 792 355 792 m 643 48 q 634 38 643 48 q 593 29 624 29 q 535 44 562 29 q 500 60 509 60 q 432 33 492 60 q 321 5 371 5 l 304 5 q 193 34 241 5 q 121 109 145 62 q 85 447 85 180 l 85 483 l 85 519 q 85 554 85 536 l 83 590 l 83 642 q 94 682 83 670 q 134 694 104 694 q 214 630 195 694 q 224 418 224 597 q 240 194 224 239 q 354 110 271 110 q 499 197 459 110 q 519 447 519 240 l 520 500 l 522 570 q 547 666 522 641 q 612 691 572 691 q 657 651 652 691 q 659 503 659 640 l 659 330 l 659 294 l 659 258 l 663 119 q 643 48 663 66 z "},"":{"ha":760,"x_min":81,"x_max":664,"o":"m 573 823 l 573 814 q 529 796 573 796 q 441 845 486 796 q 401 891 425 862 q 374 920 376 920 q 315 858 372 920 q 222 795 258 795 l 217 795 q 172 813 172 795 l 172 817 q 216 886 172 824 q 298 983 260 948 q 374 1018 336 1018 l 379 1018 q 451 982 420 1018 q 573 823 573 838 m 353 100 q 499 184 457 100 q 521 413 521 227 l 521 419 l 520 428 q 534 642 520 612 q 615 688 555 688 q 659 646 652 688 q 660 503 660 637 l 660 305 l 661 233 l 661 205 q 663 160 661 195 l 664 126 l 664 110 q 644 38 664 56 q 595 20 625 20 q 536 36 565 20 q 503 52 507 52 q 434 24 500 52 q 321 -4 369 -4 l 303 -4 q 110 119 163 -4 q 83 464 83 180 q 83 478 83 471 l 81 621 q 91 679 81 665 q 132 692 102 692 q 213 626 194 692 q 222 404 222 593 q 247 165 222 214 q 353 100 279 100 z "},"":{"ha":758,"x_min":77,"x_max":658,"o":"m 167 920 q 206 959 167 959 q 216 961 213 961 l 229 962 l 251 962 q 306 915 306 962 l 308 905 q 308 899 308 902 l 309 892 l 309 884 l 308 881 l 306 860 q 305 855 305 857 q 266 817 305 817 l 258 814 l 233 812 l 231 812 q 168 853 168 812 l 165 866 l 163 882 l 163 895 l 164 897 l 166 916 q 167 920 167 918 m 569 902 l 569 876 q 524 816 569 816 l 522 815 l 519 814 l 496 812 l 491 812 q 427 859 427 812 q 426 866 426 863 l 425 879 l 425 897 l 427 918 q 470 960 427 960 q 477 961 474 961 l 503 962 q 554 950 538 962 q 569 902 569 938 m 658 106 q 591 23 658 23 q 532 38 557 23 q 497 54 507 54 q 451 36 488 54 q 412 18 415 19 q 305 -2 362 -2 q 87 193 118 -2 q 79 358 79 247 l 79 488 l 79 542 l 77 630 q 119 693 77 693 l 134 693 q 206 635 188 693 q 216 415 216 604 q 235 181 216 227 q 283 119 254 135 q 357 102 312 102 q 440 125 402 102 q 496 192 477 149 q 515 427 515 235 q 531 648 515 618 q 614 689 553 689 q 652 642 646 689 q 653 498 653 631 l 653 337 l 654 300 l 654 255 q 656 157 654 227 l 658 123 l 658 106 z "},"":{"ha":703,"x_min":57,"x_max":631,"o":"m 300 775 l 286 775 q 258 792 258 775 l 258 804 q 370 967 258 840 q 452 1011 410 1011 l 458 1011 q 495 997 477 1011 q 514 972 514 983 l 514 969 q 433 878 514 941 q 300 775 301 775 m 57 635 q 74 672 57 661 q 130 684 90 684 q 195 625 169 684 q 261 394 221 566 q 332 187 301 222 l 342 179 q 362 195 350 179 q 421 307 399 240 q 470 499 444 373 q 511 651 496 625 q 582 693 533 693 q 631 668 631 693 q 567 375 631 656 q 454 -12 503 94 q 332 -182 405 -117 q 195 -248 260 -248 q 130 -227 130 -248 q 196 -154 130 -189 q 283 -93 262 -118 q 320 1 320 -50 q 255 127 320 32 q 155 311 189 223 q 57 635 57 557 z "},"":{"ha":764,"x_min":101,"x_max":686,"o":"m 544 329 l 544 376 q 503 541 544 485 q 389 597 462 597 l 376 597 q 276 557 313 597 q 239 453 239 517 q 237 431 237 438 l 237 425 l 237 410 l 236 403 l 236 389 l 235 359 l 235 345 l 236 338 l 236 316 l 237 302 l 237 288 l 240 218 q 272 128 240 160 q 366 96 304 96 l 388 96 q 457 116 425 96 q 506 168 488 136 q 544 329 544 235 m 279 21 q 241 -121 241 21 q 223 -217 241 -187 q 165 -246 206 -246 q 113 -226 124 -246 q 101 -163 101 -206 l 102 -146 q 102 -111 102 -128 l 102 -75 q 102 -40 102 -58 l 103 -22 l 103 14 l 104 49 l 104 85 l 104 138 l 104 245 l 105 281 l 105 623 l 104 641 q 104 712 104 676 l 104 748 q 104 783 104 766 l 103 819 q 102 854 103 837 l 101 888 l 101 904 q 116 956 101 945 q 157 967 131 967 q 224 937 210 967 q 239 809 239 906 q 247 690 239 712 q 276 669 254 669 q 300 673 284 669 l 313 679 q 427 700 370 700 q 614 614 543 700 q 686 368 686 528 l 686 329 q 665 191 686 256 q 606 83 644 125 q 416 -1 532 -1 q 322 10 362 -1 q 279 21 283 21 z "},"":{"ha":703,"x_min":56,"x_max":629,"o":"m 194 946 l 209 946 l 219 945 q 271 932 262 945 q 281 873 281 919 l 281 867 l 281 859 l 281 857 l 279 835 q 278 829 278 832 q 209 789 278 789 l 199 789 l 196 789 l 192 789 l 182 791 q 146 829 146 791 q 144 837 144 834 l 142 854 l 142 882 l 145 902 q 194 946 145 946 m 540 872 l 537 846 q 498 804 537 804 q 486 801 489 801 l 469 800 l 458 800 q 398 838 398 800 q 396 848 396 845 l 394 863 l 394 888 q 407 933 394 917 q 454 949 419 949 l 477 949 l 490 947 l 504 945 q 537 901 537 945 l 539 890 l 539 886 l 540 875 l 540 872 m 123 675 q 196 608 165 675 q 262 372 211 576 q 340 169 313 169 q 418 295 372 169 q 468 486 440 353 q 509 644 496 618 q 581 685 532 685 q 629 660 629 685 q 559 342 629 625 q 448 -31 490 59 q 334 -190 406 -121 q 195 -259 263 -259 q 127 -237 127 -259 q 195 -164 127 -199 q 284 -101 262 -129 q 320 -15 320 -56 q 259 112 320 26 q 161 286 199 197 q 56 626 56 528 q 123 675 56 675 z "},"":{"ha":385,"x_min":108,"x_max":274,"o":"m 108 625 l 108 648 q 124 683 108 674 q 179 691 140 691 l 195 691 q 244 673 229 691 q 258 613 258 655 l 260 596 l 260 570 l 260 544 l 261 518 l 261 396 l 262 378 l 262 344 l 262 327 l 262 310 l 263 293 l 271 172 l 273 156 q 274 131 274 140 l 274 90 q 258 12 274 28 q 191 -4 241 -4 l 174 -4 q 127 14 139 -4 q 116 111 116 33 l 120 176 l 123 216 l 125 249 l 125 370 l 124 396 l 124 448 l 123 465 l 123 481 l 123 499 q 115 579 123 541 l 112 594 q 108 625 108 624 z "},"":{"ha":747,"x_min":46,"x_max":694,"o":"m 445 640 q 470 599 470 640 q 406 512 470 559 q 325 437 341 465 q 290 222 290 377 q 342 132 290 155 q 507 115 382 115 q 663 100 632 115 q 694 50 694 85 q 652 6 694 15 q 507 -3 609 -3 l 340 -3 q 162 26 191 -3 q 141 179 141 48 q 131 329 141 311 q 95 349 121 347 q 64 357 69 352 q 46 401 46 375 q 82 477 46 427 q 130 566 118 528 q 142 732 142 604 q 155 911 142 859 q 199 944 163 944 q 273 891 254 944 q 285 749 285 860 q 293 622 285 637 q 321 607 300 607 q 379 623 342 607 q 445 640 416 640 z "},"":{"ha":441,"x_min":45,"x_max":376,"o":"m 243 5 q 140 260 140 5 q 131 340 140 320 q 83 369 121 360 q 45 410 45 378 l 45 418 q 86 486 45 448 q 138 557 127 524 q 150 718 150 591 l 151 747 l 153 804 q 153 871 153 804 q 161 952 153 925 q 218 988 173 988 l 231 988 q 277 963 266 988 q 289 874 289 939 l 287 831 l 286 790 q 293 671 286 690 q 338 639 299 652 q 376 595 376 625 l 376 587 q 351 524 376 559 q 296 448 298 451 q 281 317 281 405 q 286 205 281 229 q 306 133 292 182 q 320 58 320 84 q 243 5 320 5 z "},"":{"ha":936,"x_min":109,"x_max":826,"o":"m 415 1055 l 408 1055 q 374 1080 374 1055 l 374 1090 q 490 1231 374 1128 q 601 1280 545 1280 l 604 1280 q 615 1278 611 1278 q 659 1242 659 1278 l 659 1235 l 659 1232 q 561 1131 659 1207 q 415 1055 463 1055 m 256 720 q 243 435 243 720 q 232 109 243 151 q 202 47 221 66 q 156 27 183 27 q 122 45 130 27 q 109 236 109 77 l 110 264 l 111 319 l 111 541 q 116 894 111 873 q 180 933 127 933 q 288 869 233 933 q 496 591 311 842 q 688 340 682 340 q 706 576 706 340 q 721 859 706 813 q 781 905 736 905 q 826 848 826 905 l 826 794 l 825 767 l 825 740 q 820 561 825 664 q 814 275 814 458 q 807 75 814 93 q 763 56 800 56 q 652 133 711 56 q 560 276 628 163 q 466 430 492 389 q 256 720 281 720 z "},"":{"ha":760,"x_min":87,"x_max":680,"o":"m 342 778 l 336 778 l 332 779 q 300 803 300 779 l 300 817 q 325 863 300 832 q 422 978 401 961 q 504 1016 471 1016 l 507 1015 q 560 980 560 1015 l 560 973 l 559 970 q 468 859 559 941 q 342 778 376 778 m 146 636 q 222 598 187 636 q 244 585 235 585 q 282 602 254 585 q 462 660 374 660 q 633 547 587 660 q 655 429 650 505 q 680 71 680 97 q 628 28 680 28 q 557 93 576 28 q 527 302 538 157 q 498 491 515 448 q 454 549 480 534 q 388 564 427 564 q 315 540 348 564 q 260 468 281 515 q 227 259 239 421 q 210 81 215 98 q 143 23 193 23 q 98 39 108 23 q 87 105 87 56 l 87 281 q 104 579 87 488 q 146 636 114 636 z "},"":{"ha":1274,"x_min":84,"x_max":1161,"o":"m 479 850 l 459 850 q 363 825 412 850 q 239 641 274 778 q 218 465 218 554 l 218 434 q 277 199 218 290 q 352 131 306 155 q 446 107 397 107 l 466 107 q 589 164 559 107 q 629 426 629 241 q 631 457 631 448 l 632 510 l 632 562 q 595 800 632 726 q 479 850 570 850 m 1161 73 q 1112 23 1161 38 q 958 9 1063 9 q 818 14 853 9 q 751 25 783 18 q 693 31 718 31 q 585 16 669 31 q 437 1 501 1 q 304 28 374 1 q 110 255 160 84 q 84 447 84 341 l 84 477 q 113 688 84 596 q 190 836 142 781 q 312 922 238 890 q 463 954 385 954 l 489 954 q 603 940 517 954 q 705 926 689 926 q 795 939 722 926 q 978 951 869 951 q 1119 940 1086 951 q 1152 902 1152 930 q 1094 858 1152 874 q 966 844 1062 849 q 838 820 869 838 q 797 762 806 801 q 788 655 788 722 q 836 569 788 589 q 966 554 873 554 q 1076 548 1059 554 q 1103 499 1103 538 q 1072 448 1103 461 q 945 434 1053 439 q 810 403 836 428 q 783 277 783 378 q 818 149 783 177 q 979 121 852 121 q 1148 91 1106 121 q 1161 73 1161 82 z "},"":{"ha":1141,"x_min":52,"x_max":1050,"o":"m 498 388 q 362 585 498 585 l 355 585 q 231 519 277 585 q 186 336 186 454 l 186 307 q 225 148 186 208 q 332 89 265 89 l 346 89 l 353 90 q 455 139 416 90 q 494 264 494 189 l 496 279 q 496 293 496 286 l 498 308 l 498 338 l 498 388 m 849 406 q 921 449 921 406 l 921 476 q 891 549 921 515 q 818 583 862 583 l 810 585 l 792 585 l 788 584 q 685 537 726 584 q 643 433 643 490 l 642 425 l 642 417 q 671 395 642 395 l 675 395 l 679 394 l 694 393 l 701 393 l 705 394 l 784 399 l 805 401 l 821 403 q 849 406 842 406 m 1004 152 q 1038 109 1038 152 q 962 32 1038 66 q 797 -3 886 -3 q 644 37 707 -3 q 579 77 581 77 q 539 66 559 77 l 510 46 q 477 28 496 37 q 334 -5 404 -5 q 124 83 195 -5 q 52 330 52 171 q 126 584 52 490 q 344 678 201 678 q 526 622 454 678 q 578 593 562 593 q 616 617 582 593 q 799 680 703 680 l 819 680 q 977 622 913 680 q 1030 544 1010 591 q 1050 452 1050 497 q 994 334 1050 359 q 849 304 968 321 q 722 286 730 288 q 661 239 661 270 q 703 152 661 191 q 817 113 745 113 q 924 132 856 113 q 1004 152 992 152 z "},"":{"ha":791,"x_min":66,"x_max":713,"o":"m 393 1044 l 382 1044 q 321 1072 349 1044 q 189 1242 189 1204 q 229 1264 189 1264 l 245 1264 q 334 1207 277 1264 q 395 1149 391 1149 q 463 1220 398 1149 q 545 1264 503 1264 l 550 1263 q 593 1243 593 1263 l 593 1239 q 574 1201 593 1227 q 393 1044 463 1044 m 389 125 q 566 270 566 126 q 491 387 566 338 q 324 459 456 410 q 153 546 193 509 q 95 626 113 584 q 77 726 77 667 q 256 962 77 907 q 406 979 315 979 q 565 953 498 979 q 652 902 631 927 q 673 851 673 876 q 658 809 673 826 q 631 792 643 792 q 542 825 620 792 q 386 859 465 859 q 266 824 308 859 q 224 729 224 789 q 286 627 224 670 q 444 562 310 610 q 634 464 578 513 q 713 287 713 393 q 542 25 713 85 q 406 2 476 2 l 382 2 q 163 43 258 2 q 80 105 109 67 q 66 140 66 124 l 66 160 q 81 192 66 174 q 113 211 96 211 q 184 180 131 211 q 282 138 237 150 q 389 125 328 125 z "},"":{"ha":654,"x_min":62,"x_max":583,"o":"m 124 981 l 124 985 q 171 1007 124 1007 q 269 947 218 1007 q 326 886 320 886 l 391 964 q 471 1014 433 1014 l 475 1014 q 518 994 518 1014 l 518 989 q 397 827 518 958 q 316 784 358 784 l 311 784 q 254 808 279 784 q 124 981 124 939 m 121 393 q 68 526 68 441 q 135 662 68 610 q 313 713 202 713 l 351 713 q 490 681 430 713 q 551 610 551 648 q 500 568 551 568 q 455 580 491 568 q 394 600 418 593 q 312 607 369 607 q 229 583 255 607 q 202 523 202 559 q 245 461 202 488 q 367 420 262 451 q 517 352 471 389 q 583 222 583 300 l 583 205 q 513 58 583 111 q 331 4 444 4 l 312 4 q 138 36 214 4 q 62 104 62 68 l 62 118 q 78 150 62 136 q 113 164 94 164 q 189 138 115 164 q 326 111 264 111 q 446 208 446 111 q 389 279 446 247 q 259 326 357 296 q 121 393 161 356 z "},"":{"ha":795,"x_min":63,"x_max":747,"o":"m 220 1148 q 245 1193 220 1193 q 256 1196 254 1196 l 268 1197 l 275 1197 l 277 1196 l 300 1197 l 307 1197 q 342 1167 342 1197 q 347 1145 347 1151 l 349 1125 l 349 1112 q 331 1058 349 1076 q 291 1041 314 1041 l 279 1039 l 275 1039 q 233 1056 250 1039 q 216 1106 216 1073 l 216 1120 l 217 1123 l 217 1129 q 220 1148 220 1147 m 463 1142 q 510 1204 463 1204 q 522 1207 518 1207 l 540 1208 l 545 1208 q 594 1194 580 1208 q 609 1149 609 1179 l 609 1127 q 594 1081 609 1096 q 557 1065 578 1065 q 550 1064 553 1064 l 538 1063 l 522 1063 l 498 1067 q 467 1105 467 1067 q 465 1114 465 1112 l 463 1126 l 463 1142 m 694 962 l 708 962 q 747 928 747 962 q 666 733 747 909 q 547 479 585 557 q 488 347 509 401 q 452 176 468 294 q 429 39 437 58 q 381 20 420 20 q 332 32 342 20 q 322 71 322 44 q 332 177 322 98 q 341 313 341 256 q 313 428 341 369 q 250 553 286 488 q 185 673 214 618 q 110 805 157 728 q 63 901 63 882 q 118 937 63 937 q 213 884 174 937 q 323 688 252 831 q 405 544 395 544 q 558 794 442 544 q 612 902 597 878 q 694 962 650 962 z "},"":{"ha":817,"x_min":81,"x_max":744,"o":"m 572 1263 l 583 1263 q 618 1242 618 1263 l 618 1237 q 486 1072 618 1194 q 414 1038 448 1038 l 410 1039 l 404 1039 q 340 1076 374 1039 q 217 1238 217 1209 q 261 1261 217 1261 q 359 1203 306 1261 q 416 1145 412 1145 q 478 1204 419 1145 q 572 1263 537 1263 m 106 856 q 98 863 106 856 q 90 905 90 871 q 136 949 90 940 q 406 961 203 961 l 498 961 q 668 949 623 961 q 714 908 714 938 q 657 755 714 854 q 445 434 601 656 q 288 158 288 212 q 418 127 288 127 q 529 132 444 127 l 591 136 q 651 138 632 138 q 744 90 744 138 l 744 73 q 674 26 744 35 q 337 12 564 12 l 314 12 l 222 14 q 160 14 199 14 q 81 72 81 14 q 156 251 81 121 q 331 518 231 380 q 519 820 519 779 q 334 848 519 848 l 170 841 q 106 856 123 841 z "},"":{"ha":662,"x_min":66,"x_max":590,"o":"m 136 981 l 136 986 q 176 1007 136 1007 l 182 1007 l 187 1006 q 275 943 222 1006 q 334 880 329 880 q 353 899 334 880 q 376 922 372 918 q 497 1004 444 1004 q 535 985 535 1004 l 535 981 q 517 949 535 971 q 400 811 434 842 q 329 781 366 781 q 261 817 292 781 q 136 981 136 965 m 159 578 q 75 629 75 578 q 107 676 75 669 q 286 686 153 686 l 388 686 q 531 679 495 686 q 568 630 568 671 q 414 369 568 589 q 260 129 260 150 q 366 112 260 112 l 522 118 q 590 68 590 118 q 556 21 590 28 q 239 8 497 8 l 205 7 l 121 7 q 66 50 66 7 q 109 160 66 92 q 267 382 152 229 q 382 561 382 536 q 236 581 382 581 l 189 579 q 159 578 174 578 z "},"":{"ha":600,"x_min":-11,"x_max":576,"o":"m 356 719 q 380 659 356 686 q 401 643 389 649 l 414 637 q 483 577 483 605 q 414 511 483 560 q 337 398 361 473 q 296 127 313 322 q 248 -129 279 -68 q 172 -216 216 -190 q 59 -242 128 -242 q -11 -202 -11 -242 q 64 -137 -11 -172 q 146 -44 125 -109 q 184 323 184 73 q 144 524 184 399 q 134 579 134 556 q 177 657 134 603 q 242 790 221 712 q 301 910 264 867 q 460 982 363 982 q 557 958 517 982 q 576 928 576 945 q 543 880 576 893 q 480 868 536 877 q 401 838 425 860 q 356 719 356 795 z "},"":{"ha":560,"x_min":80,"x_max":482,"o":"m 80 794 l 80 803 q 97 832 80 812 q 219 975 212 968 q 283 1005 252 1005 l 288 1005 q 356 971 325 1005 q 482 800 482 833 q 445 775 482 775 l 429 775 q 343 838 401 775 q 283 901 285 901 q 219 838 282 901 q 124 775 157 775 l 119 775 q 80 794 80 775 z "},"":{"ha":564,"x_min":83,"x_max":487,"o":"m 286 759 l 275 759 q 212 789 239 759 q 83 956 83 930 l 83 961 q 123 983 83 983 l 128 983 q 219 922 163 983 q 284 860 276 860 q 348 922 286 860 q 439 983 410 983 l 450 983 q 487 958 487 983 q 357 799 487 928 q 286 759 317 759 z "},"":{"ha":544,"x_min":72,"x_max":466,"o":"m 466 935 l 466 929 q 402 824 466 873 q 267 775 339 775 l 260 775 q 91 875 148 775 q 72 930 72 908 q 102 956 72 956 q 172 908 133 956 q 268 861 212 861 q 364 910 323 861 q 428 959 404 959 l 433 959 l 437 958 q 466 935 466 958 z "},"":{"ha":375,"x_min":102,"x_max":267,"o":"m 171 762 q 102 827 102 762 l 102 849 q 104 871 104 857 q 120 902 104 885 q 158 918 137 918 l 180 922 l 199 922 q 221 920 208 920 q 251 904 235 920 q 267 854 267 888 l 267 838 l 264 819 q 248 783 264 802 q 204 764 232 764 q 196 763 199 763 l 182 762 l 171 762 z "},"":{"ha":481,"x_min":90,"x_max":374,"o":"m 296 874 l 294 891 q 277 916 294 899 q 243 933 260 933 l 233 935 l 228 935 q 182 914 202 935 q 161 877 161 894 l 159 863 l 159 850 q 179 807 159 826 q 219 787 198 787 l 233 787 l 235 788 l 239 788 q 254 790 246 790 q 278 810 262 790 q 294 845 294 831 l 296 859 l 296 871 l 296 874 m 228 998 l 242 998 q 336 961 298 998 q 374 876 374 923 l 374 852 q 331 763 374 802 q 238 724 288 724 l 214 724 q 127 761 163 724 q 90 851 90 798 l 90 860 l 91 865 q 131 958 91 918 q 228 998 171 998 z "},"":{"ha":460,"x_min":102,"x_max":355,"o":"m 260 -282 l 227 -282 q 137 -247 172 -282 q 102 -160 102 -212 l 102 -154 q 151 -41 102 -104 q 243 23 199 23 l 248 23 q 286 1 286 23 q 266 -27 286 -5 q 208 -142 208 -90 q 223 -176 208 -160 q 281 -192 239 -192 l 291 -191 l 296 -191 l 315 -190 q 355 -222 355 -190 l 355 -227 q 331 -264 355 -246 q 260 -282 307 -282 z "},"":{"ha":628,"x_min":80,"x_max":548,"o":"m 200 920 l 218 920 q 317 890 252 920 q 407 859 382 859 q 464 884 431 859 q 514 909 496 909 q 548 878 548 909 l 548 872 q 509 798 548 833 q 422 762 469 762 l 404 762 q 304 792 377 762 q 213 822 231 822 q 164 798 195 822 q 106 774 132 774 q 80 805 80 774 l 80 817 q 115 882 80 844 q 200 920 151 920 z "},"":{"ha":673,"x_min":71,"x_max":526,"o":"m 111 741 l 100 741 q 71 764 71 741 l 71 767 l 71 770 q 95 825 71 789 q 136 896 119 861 q 177 958 154 931 q 239 985 201 985 l 253 985 q 299 960 299 985 l 299 951 q 168 772 299 903 q 111 741 137 741 m 330 738 l 322 738 q 290 758 290 738 l 290 768 q 334 851 290 777 q 395 944 378 926 q 463 981 427 981 l 477 981 q 526 951 526 981 l 526 949 q 404 786 526 923 q 330 738 361 738 z "},"":{"ha":728,"x_min":77,"x_max":651,"o":"m 604 439 q 651 395 651 439 l 650 389 q 616 338 650 344 q 350 334 597 334 l 310 334 l 283 334 l 130 334 q 77 364 77 334 l 77 390 q 111 435 77 429 q 371 438 130 438 l 391 439 l 604 439 z "},"":{"ha":1044,"x_min":63,"x_max":974,"o":"m 906 438 q 974 403 974 438 l 974 384 q 926 336 974 342 q 503 334 901 334 l 484 333 l 332 333 l 291 332 l 131 332 q 63 368 63 332 l 63 387 q 111 434 63 429 q 534 437 143 437 l 686 438 l 906 438 z "},"":{"ha":336,"x_min":94,"x_max":244,"o":"m 243 741 q 180 676 243 676 l 163 676 q 151 677 154 677 q 109 697 125 677 q 94 760 94 718 l 94 795 l 95 812 l 97 834 q 136 944 97 890 q 210 998 176 998 l 214 998 l 218 998 q 244 968 244 998 l 244 964 q 228 922 244 958 q 211 863 211 885 l 230 810 q 243 741 243 775 z "},"":{"ha":332,"x_min":97,"x_max":255,"o":"m 120 759 q 134 805 134 790 q 122 846 134 819 q 109 909 109 877 l 108 918 l 108 926 q 121 977 108 960 q 176 995 135 995 l 184 995 l 189 994 q 240 977 225 994 q 255 924 255 960 l 255 902 q 214 748 255 824 q 132 673 172 673 l 125 673 q 97 698 97 673 l 97 708 l 120 759 z "},"":{"ha":330,"x_min":87,"x_max":243,"o":"m 87 -111 q 103 -67 87 -102 q 119 -20 119 -33 q 109 28 119 -8 q 96 89 96 69 l 96 98 q 96 106 96 102 q 110 159 96 142 q 162 175 125 175 l 180 175 q 229 159 215 175 q 243 109 243 142 l 243 91 l 243 87 l 242 69 l 239 43 q 189 -92 239 -12 q 127 -146 155 -146 l 115 -146 q 87 -118 87 -146 l 87 -111 z "},"":{"ha":557,"x_min":84,"x_max":472,"o":"m 233 743 q 172 682 233 682 l 154 682 q 106 697 126 682 q 87 743 87 712 q 85 756 85 751 l 84 779 l 84 792 q 123 943 84 881 q 198 1005 163 1005 l 210 1005 q 236 979 236 1005 l 236 972 q 219 927 236 964 q 202 875 202 890 q 217 822 202 861 q 233 743 233 784 m 468 745 q 408 684 468 684 l 391 684 q 336 705 352 684 q 319 774 319 726 l 319 792 l 320 797 l 322 827 q 323 836 323 832 q 363 949 323 894 q 437 1005 404 1005 l 441 1005 q 472 977 472 1005 l 472 973 q 455 928 472 966 q 437 873 437 890 q 453 827 438 857 q 468 745 468 797 z "},"":{"ha":555,"x_min":87,"x_max":481,"o":"m 124 810 q 113 857 124 829 q 99 919 99 890 l 98 928 l 98 937 q 112 989 98 972 q 165 1006 125 1006 l 174 1006 l 178 1006 q 232 988 218 1006 q 245 937 245 970 l 245 915 q 201 752 245 821 q 121 682 157 682 l 117 682 q 87 712 87 682 l 88 715 l 88 720 q 96 741 88 725 q 124 810 124 789 m 342 760 q 351 780 342 760 q 359 812 359 799 q 347 858 359 825 q 334 918 334 892 q 334 921 334 920 l 334 929 l 334 938 q 349 990 334 975 q 403 1005 364 1005 l 412 1005 q 465 988 448 1005 q 481 930 481 972 l 481 911 l 479 876 q 438 752 479 822 q 360 682 397 682 q 323 714 323 682 l 324 718 q 342 760 324 722 z "},"":{"ha":553,"x_min":78,"x_max":469,"o":"m 232 104 l 232 95 l 231 90 q 196 -63 231 22 q 114 -148 160 -148 l 110 -148 q 78 -120 78 -148 l 78 -117 l 79 -113 q 94 -69 79 -106 q 110 -16 110 -32 q 94 40 110 1 q 85 106 85 73 q 99 157 85 140 q 148 175 113 175 l 170 175 q 217 158 203 175 q 232 104 232 142 m 315 -119 l 315 -113 q 331 -69 315 -104 q 347 -18 347 -35 q 334 30 347 0 q 321 102 321 58 q 340 159 321 145 q 393 174 358 174 l 397 174 l 401 173 q 453 158 438 173 q 469 108 469 142 l 469 85 l 468 81 l 468 73 q 465 47 465 56 q 423 -81 465 -14 q 350 -147 380 -147 l 347 -147 q 315 -119 315 -147 z "},"":{"ha":671,"x_min":87,"x_max":578,"o":"m 87 649 q 115 692 87 677 q 191 701 130 701 q 264 714 252 701 q 276 782 276 728 l 274 829 q 273 893 273 860 q 286 943 273 926 q 336 960 300 960 q 384 945 372 960 q 395 863 395 930 l 394 846 q 393 815 393 830 l 392 784 q 391 739 391 768 q 501 702 391 702 q 564 690 550 702 q 578 651 578 678 q 496 595 578 600 q 431 585 445 592 q 405 548 417 578 q 393 259 393 517 q 388 -26 393 1 q 334 -72 379 -72 l 320 -72 q 279 -15 286 -72 q 275 269 275 14 q 264 550 275 523 q 240 584 254 577 q 174 593 226 590 q 87 649 87 597 z "},"":{"ha":684,"x_min":97,"x_max":586,"o":"m 401 -20 q 336 -87 401 -87 q 292 -70 302 -87 q 281 3 281 -53 l 284 85 q 268 162 284 147 q 230 183 251 178 q 177 196 208 189 q 139 205 146 203 q 111 248 111 218 q 164 293 111 277 q 254 334 245 318 q 283 479 283 381 q 260 596 283 576 q 198 610 250 605 q 121 626 145 615 q 97 669 97 637 q 125 711 97 701 q 158 715 134 715 q 266 734 250 718 q 281 841 281 750 q 295 947 281 932 q 345 962 310 962 q 391 947 380 962 q 401 875 401 932 l 401 855 q 400 792 400 835 q 415 735 400 749 q 494 718 431 722 q 562 711 557 713 q 586 680 586 701 q 555 623 586 638 q 484 610 540 616 q 414 590 429 605 q 400 475 400 574 q 432 331 400 376 q 506 296 441 317 q 570 258 570 275 q 548 213 570 231 q 484 190 542 208 q 413 158 426 172 q 399 75 399 143 l 401 35 q 401 -20 401 14 z "},"":{"ha":609,"x_min":134,"x_max":476,"o":"m 315 267 l 292 267 q 178 315 222 267 q 134 436 134 363 l 134 448 q 179 567 134 517 q 300 617 225 617 l 312 617 q 427 573 378 617 q 475 465 475 529 l 476 453 l 476 430 q 431 316 476 366 q 315 267 385 267 z "},"":{"ha":961,"x_min":66,"x_max":853,"o":"m 152 5 l 134 5 q 84 20 99 5 q 68 58 68 35 q 67 66 67 63 l 66 80 l 66 92 q 82 148 66 127 q 140 168 99 168 l 163 168 l 182 165 q 227 112 227 165 l 229 98 l 229 79 l 226 59 q 207 21 226 37 q 152 5 188 5 m 378 92 q 394 145 378 126 q 434 164 410 164 q 445 166 442 166 l 458 168 l 470 168 q 539 111 539 168 l 541 95 l 541 81 q 480 7 541 7 l 464 5 l 444 5 l 425 7 q 381 58 381 7 q 380 66 380 63 l 378 80 l 378 92 m 852 75 l 851 62 q 835 23 851 39 q 793 7 819 7 l 777 5 l 757 5 l 754 5 l 749 5 q 732 7 743 7 q 706 22 722 7 q 691 71 691 37 l 691 94 l 692 96 l 692 102 q 693 111 693 108 q 709 149 693 133 q 754 165 726 165 l 770 168 l 785 168 q 809 165 793 165 q 839 148 825 165 q 853 100 853 131 l 853 78 l 852 75 z "},"":{"ha":1501,"x_min":52,"x_max":1409,"o":"m 143 715 l 143 701 q 165 602 143 642 q 224 562 188 562 l 241 562 q 305 605 281 562 q 329 707 329 648 l 329 730 l 326 764 q 300 836 326 807 q 240 865 274 865 l 236 865 q 170 825 196 865 q 143 715 143 785 m 657 196 q 681 122 657 153 q 732 92 704 92 l 749 92 q 815 136 789 92 q 842 248 842 180 l 842 267 l 839 301 q 813 372 839 342 q 753 401 787 401 l 749 401 q 684 364 711 401 q 658 281 658 326 q 656 268 656 273 l 655 250 l 655 222 l 656 218 l 656 209 q 657 196 657 201 m 1110 218 q 1130 129 1110 168 q 1186 89 1150 89 l 1203 89 q 1268 129 1242 89 q 1295 216 1295 168 l 1295 220 l 1296 224 l 1297 243 l 1297 265 q 1276 357 1297 319 q 1216 395 1255 395 l 1208 395 l 1204 395 q 1141 359 1168 395 q 1113 273 1113 323 q 1112 260 1112 264 l 1110 237 l 1110 218 m 52 688 l 52 704 q 104 873 52 808 q 236 939 157 939 l 264 939 q 392 879 344 939 q 440 727 440 819 l 440 696 q 385 531 440 595 q 250 468 330 468 l 229 468 q 100 529 149 468 q 52 688 52 589 m 181 23 q 670 870 181 82 q 756 947 718 947 q 810 926 810 947 q 334 98 810 867 q 235 2 274 2 q 181 23 181 2 m 557 220 l 557 243 q 610 409 557 342 q 755 475 663 475 l 770 475 q 901 414 852 475 q 950 258 950 353 l 950 235 q 841 24 950 84 q 761 3 803 3 l 732 3 q 607 61 658 3 q 557 220 557 119 m 1211 3 l 1196 3 q 1066 61 1117 3 q 1016 228 1016 119 l 1016 236 l 1017 243 q 1072 412 1017 349 q 1212 475 1126 475 l 1219 475 q 1358 417 1307 475 q 1409 265 1409 358 l 1409 227 q 1351 64 1409 125 q 1211 3 1294 3 z "},"":{"ha":534,"x_min":79,"x_max":427,"o":"m 387 670 l 395 670 q 424 634 424 670 q 319 488 424 599 q 215 375 215 378 q 321 260 215 366 q 427 125 427 155 l 427 118 q 393 81 427 81 q 283 150 360 81 q 79 368 79 332 q 218 531 79 392 q 387 670 357 670 z "},"":{"ha":533,"x_min":111,"x_max":452,"o":"m 377 481 q 452 384 452 410 q 313 219 452 357 q 144 80 174 80 q 115 116 115 80 q 220 263 115 153 q 325 380 325 374 q 263 448 325 387 l 226 485 q 207 503 210 500 q 111 631 111 605 l 111 638 q 142 673 111 673 q 377 481 174 673 z "},"":{"ha":456,"x_min":-65,"x_max":520,"o":"m -65 3 q 380 886 -65 47 q 468 982 431 982 q 520 960 520 982 q 496 897 520 945 q 80 87 207 318 q -14 -20 22 -20 q -65 3 -65 -20 z "},"":{"ha":863,"x_min":66,"x_max":744,"o":"m 430 766 q 403 750 430 766 q 377 696 377 733 q 406 642 377 660 q 504 608 435 624 q 573 568 573 593 q 458 511 573 523 q 398 507 443 510 q 340 501 353 505 q 306 462 306 492 q 332 423 306 433 q 418 415 340 420 q 519 404 495 410 q 558 370 558 395 q 459 314 558 340 q 359 249 359 288 q 410 165 359 201 q 553 130 460 130 q 636 138 578 130 q 698 146 694 146 q 744 113 744 146 q 674 32 744 68 q 505 -3 604 -3 q 287 66 374 -3 q 187 200 235 106 q 102 317 139 294 q 66 367 66 340 q 105 409 66 393 q 144 460 144 425 q 109 508 144 495 q 74 540 74 521 q 113 603 74 573 q 197 718 152 633 q 294 846 243 803 q 530 932 395 932 l 532 932 q 675 905 618 932 q 733 844 733 878 q 719 804 733 819 q 663 789 704 789 l 544 799 q 430 766 482 799 z "},"":{"ha":1069,"x_min":81,"x_max":973,"o":"m 217 978 l 351 978 q 412 974 401 978 q 422 946 422 969 l 422 939 q 409 909 422 916 q 357 899 395 903 q 309 884 319 895 q 298 840 298 872 l 297 823 l 296 807 l 296 706 l 297 698 l 297 630 l 298 613 l 298 539 q 258 511 292 511 l 243 511 q 208 543 212 511 q 207 575 207 547 l 208 591 l 208 667 l 208 693 q 198 869 208 841 q 135 897 189 897 q 81 931 81 897 l 81 939 q 103 972 81 966 q 217 978 125 978 m 973 576 q 949 540 973 540 l 941 540 q 905 574 916 540 q 885 696 899 595 q 866 796 871 796 q 817 689 861 796 q 768 576 773 583 q 717 555 753 555 q 648 676 697 555 q 591 798 600 798 q 574 694 589 798 q 555 577 559 589 q 516 541 544 541 q 492 615 492 541 l 489 715 l 489 731 l 490 747 l 490 764 l 492 862 q 504 938 492 918 q 551 958 517 958 q 614 919 586 958 q 686 794 643 880 q 733 708 730 708 q 786 804 736 708 q 858 929 835 899 q 909 960 881 960 l 922 960 q 966 926 956 960 q 972 782 972 907 l 969 641 q 971 614 969 640 l 973 589 l 973 576 z "},"":{"ha":682,"x_min":73,"x_max":609,"o":"m 73 389 l 73 401 q 105 450 73 442 q 348 455 124 455 l 460 456 l 548 456 q 609 420 609 456 l 609 408 q 577 358 609 364 q 335 354 555 354 l 310 354 l 298 353 l 241 353 l 216 353 l 128 353 q 73 389 73 353 z "}}}
